{"glyphs":{"0":{"ha":853,"x_min":56,"x_max":797,"o":"m 426 -14 q 226 49 310 -14 q 99 224 142 111 q 56 486 56 338 q 99 748 56 635 q 226 924 142 861 q 426 986 310 986 q 627 924 543 986 q 754 748 711 861 q 797 486 797 635 q 754 224 797 338 q 627 49 711 111 q 426 -14 543 -14 m 426 153 q 566 238 515 153 q 617 486 617 322 q 566 735 617 650 q 426 819 515 819 q 287 735 338 819 q 236 486 236 650 q 287 238 236 322 q 426 153 338 153 z "},"1":{"ha":506,"x_min":7,"x_max":401,"o":"m 319 972 q 378 948 354 972 q 401 888 401 924 l 401 85 q 375 24 401 49 q 310 0 349 0 q 246 24 271 0 q 221 85 221 49 l 221 743 l 135 690 q 90 678 114 678 q 31 704 56 678 q 7 763 7 731 q 19 804 7 785 q 50 835 31 824 l 260 960 q 319 972 283 972 z "},"2":{"ha":744,"x_min":65,"x_max":703,"o":"m 625 153 q 681 131 658 153 q 703 75 703 108 q 681 22 703 43 q 625 0 658 0 l 153 0 q 96 22 117 0 q 75 79 75 44 q 100 140 75 114 l 403 464 q 484 576 454 519 q 514 679 514 632 q 469 788 514 742 q 367 833 425 833 q 285 806 326 833 q 211 735 244 779 q 147 701 186 701 q 91 725 117 701 q 65 778 65 749 q 79 820 65 799 q 121 869 93 842 q 243 954 174 922 q 376 986 313 986 q 538 947 468 986 q 644 840 607 908 q 682 686 682 772 q 637 512 682 601 q 515 340 592 422 l 339 153 l 625 153 z "},"3":{"ha":725,"x_min":42,"x_max":669,"o":"m 411 617 q 547 572 488 614 q 638 463 606 531 q 669 319 669 396 q 624 142 669 218 q 494 26 578 67 q 300 -14 411 -14 q 200 -1 250 -14 q 113 32 150 11 q 61 107 61 60 q 85 168 61 140 q 142 196 108 196 q 201 175 169 196 q 333 129 261 129 q 415 151 376 129 q 478 213 454 172 q 503 307 503 254 q 458 424 503 382 q 349 465 413 465 q 300 460 321 465 q 275 453 279 454 q 215 442 239 442 q 167 463 185 442 q 149 517 149 485 q 156 551 149 536 q 179 585 163 567 l 394 819 l 119 819 q 64 842 86 819 q 42 897 42 864 q 64 951 42 929 q 119 972 86 972 l 544 972 q 608 949 586 972 q 631 889 631 926 q 597 822 631 856 l 411 617 z "},"4":{"ha":983,"x_min":125,"x_max":872,"o":"m 794 417 q 850 394 828 417 q 872 339 872 372 q 850 285 872 307 q 794 264 828 264 l 736 264 l 736 85 q 712 24 736 49 q 651 0 688 0 q 593 24 617 0 q 569 85 569 49 l 569 264 l 208 264 q 151 288 178 264 q 125 346 125 313 q 146 401 125 376 l 585 939 q 654 972 611 972 q 713 948 689 972 q 736 888 736 924 l 736 417 l 794 417 m 344 417 l 569 417 l 569 694 l 344 417 z "},"5":{"ha":804,"x_min":81,"x_max":707,"o":"m 382 653 q 548 610 474 653 q 665 494 622 568 q 707 331 707 421 q 654 158 707 238 q 514 33 601 79 q 325 -14 426 -14 q 213 3 271 -14 q 119 49 156 19 q 92 88 103 63 q 81 135 81 113 q 102 180 81 160 q 158 200 124 200 q 221 174 183 200 q 324 138 279 138 q 431 164 381 138 q 510 235 481 190 q 540 331 540 279 q 489 453 540 406 q 367 500 438 500 q 310 492 335 500 q 250 467 285 483 q 210 449 225 454 q 181 443 196 443 q 103 472 126 443 q 81 542 81 501 q 82 561 81 556 l 125 906 q 153 953 131 935 q 208 972 176 972 l 610 972 q 665 950 643 972 q 688 894 688 928 q 665 841 688 863 q 610 819 643 819 l 265 819 l 239 618 q 306 643 265 633 q 382 653 346 653 z "},"6":{"ha":761,"x_min":56,"x_max":706,"o":"m 404 631 q 547 587 476 631 q 661 469 617 543 q 706 308 706 394 q 662 147 706 221 q 544 29 618 72 q 382 -14 471 -14 q 211 40 286 -14 q 96 180 136 93 q 56 365 56 267 q 91 588 56 467 q 220 818 126 710 q 475 972 314 926 q 507 976 492 976 q 567 958 543 976 q 590 899 590 939 q 570 845 590 868 q 517 813 550 822 q 355 724 429 788 q 246 571 281 660 q 404 631 315 631 m 382 139 q 493 188 447 139 q 539 308 539 236 q 493 429 539 381 q 382 478 447 478 q 270 429 315 478 q 225 308 225 381 q 270 188 225 236 q 382 139 315 139 z "},"7":{"ha":790,"x_min":83,"x_max":735,"o":"m 644 972 q 708 949 681 972 q 735 890 735 926 q 726 853 735 872 l 361 46 q 331 7 351 21 q 285 -7 310 -7 q 224 17 250 -7 q 199 74 199 40 q 207 111 199 93 l 531 819 l 161 819 q 106 842 128 819 q 83 897 83 864 q 106 951 83 929 q 161 972 128 972 l 644 972 z "},"8":{"ha":817,"x_min":83,"x_max":733,"o":"m 594 507 q 697 410 660 468 q 733 290 733 353 q 690 144 733 211 q 572 39 646 78 q 408 0 497 0 q 245 39 319 0 q 127 144 171 78 q 83 290 83 211 q 218 507 83 424 q 138 582 169 535 q 107 693 107 629 q 147 833 107 769 q 256 935 188 897 q 408 972 325 972 q 560 935 492 972 q 669 833 629 897 q 708 693 708 769 q 676 578 708 624 q 594 507 643 533 m 408 819 q 312 783 350 819 q 274 690 274 746 q 312 597 274 633 q 408 560 350 560 q 503 597 465 560 q 542 690 542 635 q 503 783 542 746 q 408 819 465 819 m 408 153 q 521 194 475 153 q 567 293 567 235 q 521 394 567 353 q 408 435 475 435 q 296 394 342 435 q 250 293 250 353 q 296 194 250 235 q 408 153 342 153 z "},"9":{"ha":761,"x_min":56,"x_max":706,"o":"m 379 990 q 550 937 475 990 q 665 797 625 883 q 706 611 706 710 q 670 388 706 510 q 541 158 635 267 q 286 4 447 50 q 254 0 269 0 q 194 19 218 0 q 171 78 171 38 q 191 131 171 108 q 244 164 211 154 q 406 253 332 189 q 515 406 481 317 q 357 346 446 346 q 215 390 285 346 q 100 508 144 433 q 56 668 56 582 q 99 830 56 756 q 217 947 143 904 q 379 990 290 990 m 379 499 q 491 547 446 499 q 536 668 536 596 q 491 789 536 740 q 379 838 446 838 q 268 789 314 838 q 222 668 222 740 q 268 547 222 596 q 379 499 314 499 z "},"\u0000":{"ha":0,"x_min":0,"x_max":0,"o":""},"\r":{"ha":389,"x_min":0,"x_max":0,"o":""}," ":{"ha":389,"x_min":0,"x_max":0,"o":""},"A":{"ha":888,"x_min":14,"x_max":874,"o":"m 867 108 q 874 75 874 90 q 850 16 874 39 q 796 -7 826 -7 q 751 8 771 -7 q 719 50 731 24 l 647 218 l 233 218 l 161 49 q 131 8 151 22 q 88 -7 111 -7 q 33 13 51 -7 q 14 65 14 32 q 18 92 14 78 l 364 922 q 397 965 375 950 q 447 978 419 981 q 494 963 472 978 q 525 922 515 949 l 867 108 m 301 378 l 579 378 l 439 703 l 301 378 z "},"Á":{"ha":888,"x_min":14,"x_max":874,"o":"m 867 108 q 874 75 874 90 q 850 16 874 39 q 796 -7 826 -7 q 751 8 771 -7 q 719 50 731 24 l 647 218 l 233 218 l 161 49 q 131 8 151 22 q 88 -7 111 -7 q 33 13 51 -7 q 14 65 14 32 q 18 92 14 78 l 364 922 q 397 965 375 950 q 447 978 419 981 q 494 963 472 978 q 525 922 515 949 l 867 108 m 301 378 l 579 378 l 439 703 l 301 378 m 449 1025 q 406 1039 422 1025 q 390 1075 390 1053 q 410 1113 390 1094 l 529 1218 q 597 1249 565 1249 q 647 1229 624 1249 q 671 1181 671 1210 q 658 1140 671 1160 q 619 1107 644 1119 l 481 1033 q 449 1025 467 1025 z "},"Ă":{"ha":888,"x_min":14,"x_max":874,"o":"m 867 108 q 874 75 874 90 q 850 16 874 39 q 796 -7 826 -7 q 751 8 771 -7 q 719 50 731 24 l 647 218 l 233 218 l 161 49 q 131 8 151 22 q 88 -7 111 -7 q 33 13 51 -7 q 14 65 14 32 q 18 92 14 78 l 364 922 q 397 965 375 950 q 447 978 419 981 q 494 963 472 978 q 525 922 515 949 l 867 108 m 301 378 l 579 378 l 439 703 l 301 378 m 447 1053 q 312 1087 369 1053 q 228 1182 254 1121 q 221 1213 221 1200 q 234 1246 221 1233 q 268 1258 247 1258 q 311 1247 294 1258 q 351 1208 328 1236 q 447 1171 385 1171 q 543 1208 514 1171 q 581 1247 564 1235 q 626 1258 599 1258 q 660 1247 647 1258 q 674 1214 674 1235 q 668 1185 674 1200 q 584 1087 642 1121 q 447 1053 526 1053 z "},"Ắ":{"ha":888,"x_min":14,"x_max":874,"o":"m 867 108 q 874 75 874 90 q 850 16 874 39 q 796 -7 826 -7 q 751 8 771 -7 q 719 50 731 24 l 647 218 l 233 218 l 161 49 q 131 8 151 22 q 88 -7 111 -7 q 33 13 51 -7 q 14 65 14 32 q 18 92 14 78 l 364 922 q 397 965 375 950 q 447 978 419 981 q 494 963 472 978 q 525 922 515 949 l 867 108 m 301 378 l 579 378 l 439 703 l 301 378 m 447 1053 q 312 1087 369 1053 q 228 1182 254 1121 q 221 1213 221 1200 q 234 1246 221 1233 q 268 1258 247 1258 q 311 1247 294 1258 q 351 1208 328 1236 q 447 1171 385 1171 q 543 1208 514 1171 q 581 1247 564 1235 q 626 1258 599 1258 q 660 1247 647 1258 q 674 1214 674 1235 q 668 1185 674 1200 q 584 1087 642 1121 q 447 1053 526 1053 m 449 1282 q 406 1296 422 1282 q 390 1332 390 1310 q 410 1369 390 1351 l 529 1475 q 597 1506 565 1506 q 647 1486 624 1506 q 671 1438 671 1467 q 658 1397 671 1417 q 619 1364 644 1376 l 481 1290 q 449 1282 467 1282 z "},"Ặ":{"ha":888,"x_min":14,"x_max":874,"o":"m 867 108 q 874 75 874 90 q 850 16 874 39 q 796 -7 826 -7 q 751 8 771 -7 q 719 50 731 24 l 647 218 l 233 218 l 161 49 q 131 8 151 22 q 88 -7 111 -7 q 33 13 51 -7 q 14 65 14 32 q 18 92 14 78 l 364 922 q 397 965 375 950 q 447 978 419 981 q 494 963 472 978 q 525 922 515 949 l 867 108 m 301 378 l 579 378 l 439 703 l 301 378 m 444 -204 q 379 -189 399 -204 q 360 -135 360 -174 l 360 -108 q 381 -54 360 -69 q 444 -39 401 -39 q 515 -54 496 -39 q 535 -108 535 -69 l 535 -135 q 514 -190 535 -175 q 444 -204 493 -204 m 447 1053 q 312 1087 369 1053 q 228 1182 254 1121 q 221 1213 221 1200 q 234 1246 221 1233 q 268 1258 247 1258 q 311 1247 294 1258 q 351 1208 328 1236 q 447 1171 385 1171 q 543 1208 514 1171 q 581 1247 564 1235 q 626 1258 599 1258 q 660 1247 647 1258 q 674 1214 674 1235 q 668 1185 674 1200 q 584 1087 642 1121 q 447 1053 526 1053 z "},"Ằ":{"ha":888,"x_min":14,"x_max":874,"o":"m 867 108 q 874 75 874 90 q 850 16 874 39 q 796 -7 826 -7 q 751 8 771 -7 q 719 50 731 24 l 647 218 l 233 218 l 161 49 q 131 8 151 22 q 88 -7 111 -7 q 33 13 51 -7 q 14 65 14 32 q 18 92 14 78 l 364 922 q 397 965 375 950 q 447 978 419 981 q 494 963 472 978 q 525 922 515 949 l 867 108 m 301 378 l 579 378 l 439 703 l 301 378 m 447 1053 q 312 1087 369 1053 q 228 1182 254 1121 q 221 1213 221 1200 q 234 1246 221 1233 q 268 1258 247 1258 q 311 1247 294 1258 q 351 1208 328 1236 q 447 1171 385 1171 q 543 1208 514 1171 q 581 1247 564 1235 q 626 1258 599 1258 q 660 1247 647 1258 q 674 1214 674 1235 q 668 1185 674 1200 q 584 1087 642 1121 q 447 1053 526 1053 m 444 1288 q 413 1296 429 1288 l 274 1369 q 235 1403 249 1383 q 222 1443 222 1422 q 246 1492 222 1472 q 296 1511 269 1511 q 364 1481 328 1511 l 483 1375 q 503 1338 503 1357 q 487 1301 503 1315 q 444 1288 471 1288 z "},"Ẳ":{"ha":888,"x_min":14,"x_max":874,"o":"m 867 108 q 874 75 874 90 q 850 16 874 39 q 796 -7 826 -7 q 751 8 771 -7 q 719 50 731 24 l 647 218 l 233 218 l 161 49 q 131 8 151 22 q 88 -7 111 -7 q 33 13 51 -7 q 14 65 14 32 q 18 92 14 78 l 364 922 q 397 965 375 950 q 447 978 419 981 q 494 963 472 978 q 525 922 515 949 l 867 108 m 301 378 l 579 378 l 439 703 l 301 378 m 447 1053 q 312 1087 369 1053 q 228 1182 254 1121 q 221 1213 221 1200 q 234 1246 221 1233 q 268 1258 247 1258 q 311 1247 294 1258 q 351 1208 328 1236 q 447 1171 385 1171 q 543 1208 514 1171 q 581 1247 564 1235 q 626 1258 599 1258 q 660 1247 647 1258 q 674 1214 674 1235 q 668 1185 674 1200 q 584 1087 642 1121 q 447 1053 526 1053 m 313 1546 q 363 1576 338 1565 q 422 1586 388 1586 q 533 1549 500 1586 q 565 1465 565 1513 q 559 1426 565 1443 q 539 1390 553 1408 q 526 1374 536 1386 q 510 1353 515 1361 q 506 1338 506 1344 q 490 1313 506 1321 q 450 1306 475 1306 q 423 1313 435 1306 q 411 1338 411 1321 q 433 1392 411 1363 q 465 1451 465 1435 q 451 1478 465 1468 q 418 1489 438 1489 q 390 1483 403 1489 q 360 1465 378 1476 q 338 1457 346 1457 q 303 1475 321 1457 q 290 1504 290 1488 q 313 1546 290 1526 z "},"Ẵ":{"ha":888,"x_min":14,"x_max":874,"o":"m 867 108 q 874 75 874 90 q 850 16 874 39 q 796 -7 826 -7 q 751 8 771 -7 q 719 50 731 24 l 647 218 l 233 218 l 161 49 q 131 8 151 22 q 88 -7 111 -7 q 33 13 51 -7 q 14 65 14 32 q 18 92 14 78 l 364 922 q 397 965 375 950 q 447 978 419 981 q 494 963 472 978 q 525 922 515 949 l 867 108 m 301 378 l 579 378 l 439 703 l 301 378 m 447 1053 q 312 1087 369 1053 q 228 1182 254 1121 q 221 1213 221 1200 q 234 1246 221 1233 q 268 1258 247 1258 q 311 1247 294 1258 q 351 1208 328 1236 q 447 1171 385 1171 q 543 1208 514 1171 q 581 1247 564 1235 q 626 1258 599 1258 q 660 1247 647 1258 q 674 1214 674 1235 q 668 1185 674 1200 q 584 1087 642 1121 q 447 1053 526 1053 m 260 1279 q 206 1306 228 1279 q 183 1378 183 1333 q 225 1463 183 1425 q 338 1500 267 1500 q 406 1486 374 1500 q 481 1447 438 1472 q 527 1422 510 1431 q 558 1414 544 1414 q 582 1422 574 1414 q 586 1443 590 1431 q 583 1463 583 1450 q 598 1498 583 1485 q 635 1511 613 1511 q 689 1484 667 1511 q 711 1415 711 1457 q 696 1360 711 1389 q 651 1310 681 1331 q 579 1290 621 1290 q 504 1304 539 1290 q 417 1344 469 1318 q 368 1369 386 1361 q 336 1376 350 1376 q 313 1368 321 1376 q 308 1347 304 1360 q 311 1328 311 1340 q 297 1292 311 1306 q 260 1279 282 1279 z "},"Ǎ":{"ha":888,"x_min":14,"x_max":874,"o":"m 867 108 q 874 75 874 90 q 850 16 874 39 q 796 -7 826 -7 q 751 8 771 -7 q 719 50 731 24 l 647 218 l 233 218 l 161 49 q 131 8 151 22 q 88 -7 111 -7 q 33 13 51 -7 q 14 65 14 32 q 18 92 14 78 l 364 922 q 397 965 375 950 q 447 978 419 981 q 494 963 472 978 q 525 922 515 949 l 867 108 m 301 378 l 579 378 l 439 703 l 301 378 m 610 1244 q 640 1233 628 1244 q 653 1210 653 1222 q 649 1192 653 1200 q 632 1168 644 1183 l 544 1068 q 506 1038 526 1047 q 460 1028 486 1028 l 438 1028 q 390 1038 410 1028 q 353 1068 371 1047 l 265 1168 q 249 1192 253 1183 q 244 1210 244 1200 q 257 1233 244 1222 q 288 1244 269 1244 q 358 1217 315 1244 l 449 1158 l 539 1217 q 610 1244 582 1244 z "},"Â":{"ha":888,"x_min":14,"x_max":874,"o":"m 867 108 q 874 75 874 90 q 850 16 874 39 q 796 -7 826 -7 q 751 8 771 -7 q 719 50 731 24 l 647 218 l 233 218 l 161 49 q 131 8 151 22 q 88 -7 111 -7 q 33 13 51 -7 q 14 65 14 32 q 18 92 14 78 l 364 922 q 397 965 375 950 q 447 978 419 981 q 494 963 472 978 q 525 922 515 949 l 867 108 m 301 378 l 579 378 l 439 703 l 301 378 m 629 1104 q 646 1082 642 1090 q 650 1063 650 1074 q 638 1039 650 1050 q 607 1028 625 1028 q 579 1035 594 1028 q 536 1058 564 1042 l 446 1111 l 356 1058 q 315 1037 333 1046 q 285 1028 297 1028 q 254 1039 267 1028 q 242 1063 242 1050 q 246 1082 242 1074 q 263 1104 250 1090 l 350 1204 q 388 1235 368 1225 q 435 1244 407 1244 l 457 1244 q 503 1235 483 1244 q 542 1204 524 1225 l 629 1104 z "},"Ấ":{"ha":888,"x_min":14,"x_max":900,"o":"m 867 108 q 874 75 874 90 q 850 16 874 39 q 796 -7 826 -7 q 751 8 771 -7 q 719 50 731 24 l 647 218 l 233 218 l 161 49 q 131 8 151 22 q 88 -7 111 -7 q 33 13 51 -7 q 14 65 14 32 q 18 92 14 78 l 364 922 q 397 965 375 950 q 447 978 419 981 q 494 963 472 978 q 525 922 515 949 l 867 108 m 301 378 l 579 378 l 439 703 l 301 378 m 629 1104 q 646 1082 642 1090 q 650 1063 650 1074 q 638 1039 650 1050 q 607 1028 625 1028 q 579 1035 594 1028 q 536 1058 564 1042 l 446 1111 l 356 1058 q 315 1037 333 1046 q 285 1028 297 1028 q 254 1039 267 1028 q 242 1063 242 1050 q 246 1082 242 1074 q 263 1104 250 1090 l 350 1204 q 388 1235 368 1225 q 435 1244 407 1244 l 457 1244 q 503 1235 483 1244 q 542 1204 524 1225 l 629 1104 m 678 1139 q 635 1153 651 1139 q 619 1189 619 1167 q 639 1226 619 1208 l 758 1332 q 826 1363 794 1363 q 876 1343 853 1363 q 900 1294 900 1324 q 887 1253 900 1274 q 849 1221 874 1233 l 710 1147 q 678 1139 696 1139 z "},"Ậ":{"ha":888,"x_min":14,"x_max":874,"o":"m 867 108 q 874 75 874 90 q 850 16 874 39 q 796 -7 826 -7 q 751 8 771 -7 q 719 50 731 24 l 647 218 l 233 218 l 161 49 q 131 8 151 22 q 88 -7 111 -7 q 33 13 51 -7 q 14 65 14 32 q 18 92 14 78 l 364 922 q 397 965 375 950 q 447 978 419 981 q 494 963 472 978 q 525 922 515 949 l 867 108 m 301 378 l 579 378 l 439 703 l 301 378 m 444 -204 q 379 -189 399 -204 q 360 -135 360 -174 l 360 -108 q 381 -54 360 -69 q 444 -39 401 -39 q 515 -54 496 -39 q 535 -108 535 -69 l 535 -135 q 514 -190 535 -175 q 444 -204 493 -204 m 629 1104 q 646 1082 642 1090 q 650 1063 650 1074 q 638 1039 650 1050 q 607 1028 625 1028 q 579 1035 594 1028 q 536 1058 564 1042 l 446 1111 l 356 1058 q 315 1037 333 1046 q 285 1028 297 1028 q 254 1039 267 1028 q 242 1063 242 1050 q 246 1082 242 1074 q 263 1104 250 1090 l 350 1204 q 388 1235 368 1225 q 435 1244 407 1244 l 457 1244 q 503 1235 483 1244 q 542 1204 524 1225 l 629 1104 z "},"Ầ":{"ha":888,"x_min":14,"x_max":874,"o":"m 867 108 q 874 75 874 90 q 850 16 874 39 q 796 -7 826 -7 q 751 8 771 -7 q 719 50 731 24 l 647 218 l 233 218 l 161 49 q 131 8 151 22 q 88 -7 111 -7 q 33 13 51 -7 q 14 65 14 32 q 18 92 14 78 l 364 922 q 397 965 375 950 q 447 978 419 981 q 494 963 472 978 q 525 922 515 949 l 867 108 m 301 378 l 579 378 l 439 703 l 301 378 m 629 1104 q 646 1082 642 1090 q 650 1063 650 1074 q 638 1039 650 1050 q 607 1028 625 1028 q 579 1035 594 1028 q 536 1058 564 1042 l 446 1111 l 356 1058 q 315 1037 333 1046 q 285 1028 297 1028 q 254 1039 267 1028 q 242 1063 242 1050 q 246 1082 242 1074 q 263 1104 250 1090 l 350 1204 q 388 1235 368 1225 q 435 1244 407 1244 l 457 1244 q 503 1235 483 1244 q 542 1204 524 1225 l 629 1104 m 649 1219 q 617 1228 633 1219 l 478 1301 q 440 1335 453 1315 q 426 1375 426 1354 q 450 1424 426 1404 q 500 1443 474 1443 q 568 1413 532 1443 l 688 1307 q 707 1269 707 1289 q 691 1233 707 1247 q 649 1219 675 1219 z "},"Ẩ":{"ha":888,"x_min":14,"x_max":874,"o":"m 867 108 q 874 75 874 90 q 850 16 874 39 q 796 -7 826 -7 q 751 8 771 -7 q 719 50 731 24 l 647 218 l 233 218 l 161 49 q 131 8 151 22 q 88 -7 111 -7 q 33 13 51 -7 q 14 65 14 32 q 18 92 14 78 l 364 922 q 397 965 375 950 q 447 978 419 981 q 494 963 472 978 q 525 922 515 949 l 867 108 m 301 378 l 579 378 l 439 703 l 301 378 m 629 1104 q 646 1082 642 1090 q 650 1063 650 1074 q 638 1039 650 1050 q 607 1028 625 1028 q 579 1035 594 1028 q 536 1058 564 1042 l 446 1111 l 356 1058 q 315 1037 333 1046 q 285 1028 297 1028 q 254 1039 267 1028 q 242 1063 242 1050 q 246 1082 242 1074 q 263 1104 250 1090 l 350 1204 q 388 1235 368 1225 q 435 1244 407 1244 l 457 1244 q 503 1235 483 1244 q 542 1204 524 1225 l 629 1104 m 558 1375 q 608 1405 583 1394 q 668 1415 633 1415 q 778 1378 746 1415 q 811 1294 811 1342 q 805 1255 811 1272 q 785 1219 799 1238 q 772 1203 782 1215 q 756 1182 761 1190 q 751 1167 751 1174 q 736 1142 751 1150 q 696 1135 721 1135 q 669 1142 681 1135 q 657 1167 657 1150 q 679 1221 657 1192 q 711 1281 711 1264 q 697 1308 711 1297 q 664 1318 683 1318 q 636 1312 649 1318 q 606 1294 624 1306 q 583 1286 592 1286 q 549 1304 567 1286 q 536 1333 536 1317 q 558 1375 536 1356 z "},"Ẫ":{"ha":888,"x_min":14,"x_max":874,"o":"m 867 108 q 874 75 874 90 q 850 16 874 39 q 796 -7 826 -7 q 751 8 771 -7 q 719 50 731 24 l 647 218 l 233 218 l 161 49 q 131 8 151 22 q 88 -7 111 -7 q 33 13 51 -7 q 14 65 14 32 q 18 92 14 78 l 364 922 q 397 965 375 950 q 447 978 419 981 q 494 963 472 978 q 525 922 515 949 l 867 108 m 301 378 l 579 378 l 439 703 l 301 378 m 629 1104 q 646 1082 642 1090 q 650 1063 650 1074 q 638 1039 650 1050 q 607 1028 625 1028 q 579 1035 594 1028 q 536 1058 564 1042 l 446 1111 l 356 1058 q 315 1037 333 1046 q 285 1028 297 1028 q 254 1039 267 1028 q 242 1063 242 1050 q 246 1082 242 1074 q 263 1104 250 1090 l 350 1204 q 388 1235 368 1225 q 435 1244 407 1244 l 457 1244 q 503 1235 483 1244 q 542 1204 524 1225 l 629 1104 m 260 1250 q 206 1277 228 1250 q 183 1349 183 1304 q 225 1433 183 1396 q 338 1471 267 1471 q 406 1457 374 1471 q 481 1418 438 1443 q 527 1393 510 1401 q 558 1385 544 1385 q 582 1393 574 1385 q 586 1414 590 1401 q 583 1433 583 1421 q 598 1469 583 1456 q 635 1482 613 1482 q 689 1455 667 1482 q 711 1386 711 1428 q 696 1331 711 1360 q 651 1281 681 1301 q 579 1261 621 1261 q 504 1275 539 1261 q 417 1315 469 1289 q 368 1340 386 1332 q 336 1347 350 1347 q 313 1339 321 1347 q 308 1318 304 1331 q 311 1299 311 1311 q 297 1263 311 1276 q 260 1250 282 1250 z "},"Ȁ":{"ha":888,"x_min":14,"x_max":874,"o":"m 867 108 q 874 75 874 90 q 850 16 874 39 q 796 -7 826 -7 q 751 8 771 -7 q 719 50 731 24 l 647 218 l 233 218 l 161 49 q 131 8 151 22 q 88 -7 111 -7 q 33 13 51 -7 q 14 65 14 32 q 18 92 14 78 l 364 922 q 397 965 375 950 q 447 978 419 981 q 494 963 472 978 q 525 922 515 949 l 867 108 m 301 378 l 579 378 l 439 703 l 301 378 m 594 1058 q 563 1067 579 1058 l 424 1140 q 385 1174 399 1154 q 372 1214 372 1193 q 396 1263 372 1243 q 446 1282 419 1282 q 514 1251 478 1282 l 633 1146 q 653 1108 653 1128 q 637 1072 653 1086 q 594 1058 621 1058 m 308 1044 q 276 1053 293 1044 l 138 1126 q 99 1160 113 1140 q 86 1200 86 1179 q 110 1249 86 1229 q 160 1268 133 1268 q 228 1238 192 1268 l 347 1132 q 367 1094 367 1114 q 351 1058 367 1072 q 308 1044 335 1044 z "},"Ä":{"ha":888,"x_min":14,"x_max":874,"o":"m 867 108 q 874 75 874 90 q 850 16 874 39 q 796 -7 826 -7 q 751 8 771 -7 q 719 50 731 24 l 647 218 l 233 218 l 161 49 q 131 8 151 22 q 88 -7 111 -7 q 33 13 51 -7 q 14 65 14 32 q 18 92 14 78 l 364 922 q 397 965 375 950 q 447 978 419 981 q 494 963 472 978 q 525 922 515 949 l 867 108 m 301 378 l 579 378 l 439 703 l 301 378 m 307 1056 q 243 1072 263 1056 q 224 1125 224 1088 l 224 1150 q 244 1204 224 1189 q 308 1219 265 1219 q 374 1203 354 1219 q 394 1150 394 1188 l 394 1125 q 374 1071 394 1086 q 307 1056 354 1056 m 583 1056 q 519 1072 539 1056 q 500 1125 500 1088 l 500 1150 q 520 1204 500 1189 q 583 1219 540 1219 q 651 1204 631 1219 q 671 1150 671 1189 l 671 1125 q 651 1071 671 1086 q 583 1056 631 1056 z "},"Ạ":{"ha":888,"x_min":14,"x_max":874,"o":"m 867 108 q 874 75 874 90 q 850 16 874 39 q 796 -7 826 -7 q 751 8 771 -7 q 719 50 731 24 l 647 218 l 233 218 l 161 49 q 131 8 151 22 q 88 -7 111 -7 q 33 13 51 -7 q 14 65 14 32 q 18 92 14 78 l 364 922 q 397 965 375 950 q 447 978 419 981 q 494 963 472 978 q 525 922 515 949 l 867 108 m 301 378 l 579 378 l 439 703 l 301 378 m 444 -204 q 379 -189 399 -204 q 360 -135 360 -174 l 360 -108 q 381 -54 360 -69 q 444 -39 401 -39 q 515 -54 496 -39 q 535 -108 535 -69 l 535 -135 q 514 -190 535 -175 q 444 -204 493 -204 z "},"À":{"ha":888,"x_min":14,"x_max":874,"o":"m 867 108 q 874 75 874 90 q 850 16 874 39 q 796 -7 826 -7 q 751 8 771 -7 q 719 50 731 24 l 647 218 l 233 218 l 161 49 q 131 8 151 22 q 88 -7 111 -7 q 33 13 51 -7 q 14 65 14 32 q 18 92 14 78 l 364 922 q 397 965 375 950 q 447 978 419 981 q 494 963 472 978 q 525 922 515 949 l 867 108 m 301 378 l 579 378 l 439 703 l 301 378 m 444 1031 q 413 1039 429 1031 l 274 1113 q 235 1146 249 1126 q 222 1186 222 1165 q 246 1235 222 1215 q 296 1254 269 1254 q 364 1224 328 1254 l 483 1118 q 503 1081 503 1100 q 487 1044 503 1058 q 444 1031 471 1031 z "},"Ả":{"ha":888,"x_min":14,"x_max":874,"o":"m 867 108 q 874 75 874 90 q 850 16 874 39 q 796 -7 826 -7 q 751 8 771 -7 q 719 50 731 24 l 647 218 l 233 218 l 161 49 q 131 8 151 22 q 88 -7 111 -7 q 33 13 51 -7 q 14 65 14 32 q 18 92 14 78 l 364 922 q 397 965 375 950 q 447 978 419 981 q 494 963 472 978 q 525 922 515 949 l 867 108 m 301 378 l 579 378 l 439 703 l 301 378 m 313 1289 q 363 1319 338 1308 q 422 1329 388 1329 q 533 1292 500 1329 q 565 1208 565 1256 q 559 1169 565 1186 q 539 1133 553 1151 q 526 1117 536 1129 q 510 1096 515 1104 q 506 1081 506 1088 q 490 1056 506 1064 q 450 1049 475 1049 q 423 1056 435 1049 q 411 1081 411 1064 q 433 1135 411 1106 q 465 1194 465 1178 q 451 1222 465 1211 q 418 1232 438 1232 q 390 1226 403 1232 q 360 1208 378 1219 q 338 1200 346 1200 q 303 1218 321 1200 q 290 1247 290 1231 q 313 1289 290 1269 z "},"Ȃ":{"ha":888,"x_min":14,"x_max":874,"o":"m 867 108 q 874 75 874 90 q 850 16 874 39 q 796 -7 826 -7 q 751 8 771 -7 q 719 50 731 24 l 647 218 l 233 218 l 161 49 q 131 8 151 22 q 88 -7 111 -7 q 33 13 51 -7 q 14 65 14 32 q 18 92 14 78 l 364 922 q 397 965 375 950 q 447 978 419 981 q 494 963 472 978 q 525 922 515 949 l 867 108 m 301 378 l 579 378 l 439 703 l 301 378 m 447 1289 q 584 1256 526 1289 q 667 1160 642 1222 q 674 1129 674 1142 q 660 1096 674 1108 q 626 1083 647 1083 q 581 1095 599 1083 q 543 1133 564 1107 q 447 1171 510 1171 q 351 1133 385 1171 q 313 1095 331 1107 q 268 1083 296 1083 q 234 1095 247 1083 q 221 1128 221 1107 q 226 1157 221 1142 q 310 1255 253 1221 q 447 1289 368 1289 z "},"Ā":{"ha":888,"x_min":14,"x_max":874,"o":"m 867 108 q 874 75 874 90 q 850 16 874 39 q 796 -7 826 -7 q 751 8 771 -7 q 719 50 731 24 l 647 218 l 233 218 l 161 49 q 131 8 151 22 q 88 -7 111 -7 q 33 13 51 -7 q 14 65 14 32 q 18 92 14 78 l 364 922 q 397 965 375 950 q 447 978 419 981 q 494 963 472 978 q 525 922 515 949 l 867 108 m 301 378 l 579 378 l 439 703 l 301 378 m 279 1042 q 228 1058 246 1042 q 210 1104 210 1074 q 228 1149 210 1133 q 279 1165 246 1165 l 615 1165 q 667 1149 649 1165 q 685 1104 685 1133 q 615 1042 685 1042 l 279 1042 z "},"Ą":{"ha":893,"x_min":15,"x_max":892,"o":"m 831 -117 q 874 -135 857 -117 q 892 -183 892 -153 q 869 -231 892 -206 q 808 -272 846 -256 q 731 -287 771 -287 q 610 -250 657 -287 q 564 -139 564 -212 q 606 -21 564 -67 q 718 54 649 25 l 647 218 l 233 218 l 161 49 q 131 8 151 22 q 88 -7 111 -7 q 31 10 47 -7 q 15 63 15 26 q 21 96 15 81 l 364 922 q 397 965 375 950 q 447 978 419 981 q 494 963 472 978 q 525 922 515 949 l 882 72 q 888 49 888 61 q 878 17 888 32 q 849 -3 869 3 q 744 -49 783 -21 q 704 -110 704 -76 q 716 -147 704 -135 q 744 -158 728 -158 q 774 -142 761 -158 q 831 -117 793 -117 m 301 378 l 579 378 l 439 703 l 301 378 z "},"Å":{"ha":893,"x_min":14,"x_max":874,"o":"m 867 108 q 874 75 874 90 q 850 16 874 39 q 796 -7 826 -7 q 751 8 771 -7 q 719 50 731 24 l 647 218 l 233 218 l 161 49 q 131 8 151 22 q 88 -7 111 -7 q 33 13 51 -7 q 14 65 14 32 q 18 92 14 78 l 358 910 q 308 963 326 931 q 289 1033 289 996 q 336 1142 289 1097 q 447 1188 383 1188 q 558 1142 511 1188 q 606 1033 606 1097 q 585 962 606 994 q 532 907 565 929 l 867 108 m 447 1090 q 403 1075 421 1090 q 386 1033 386 1060 q 403 994 386 1010 q 447 979 421 979 q 491 994 474 979 q 508 1033 508 1010 q 490 1076 508 1061 q 447 1090 472 1090 m 301 378 l 579 378 l 439 703 l 301 378 z "},"Ǻ":{"ha":893,"x_min":14,"x_max":874,"o":"m 867 108 q 874 75 874 90 q 850 16 874 39 q 796 -7 826 -7 q 751 8 771 -7 q 719 50 731 24 l 647 218 l 233 218 l 161 49 q 131 8 151 22 q 88 -7 111 -7 q 33 13 51 -7 q 14 65 14 32 q 18 92 14 78 l 358 910 q 308 963 326 931 q 289 1033 289 996 q 336 1142 289 1097 q 447 1188 383 1188 q 558 1142 511 1188 q 606 1033 606 1097 q 585 962 606 994 q 532 907 565 929 l 867 108 m 447 1090 q 403 1075 421 1090 q 386 1033 386 1060 q 403 994 386 1010 q 447 979 421 979 q 491 994 474 979 q 508 1033 508 1010 q 490 1076 508 1061 q 447 1090 472 1090 m 301 378 l 579 378 l 439 703 l 301 378 m 449 1233 q 406 1247 422 1233 q 390 1283 390 1261 q 410 1321 390 1303 l 529 1426 q 597 1457 565 1457 q 647 1438 624 1457 q 671 1389 671 1418 q 658 1348 671 1368 q 619 1315 644 1328 l 481 1242 q 449 1233 467 1233 z "},"Ã":{"ha":888,"x_min":14,"x_max":874,"o":"m 867 108 q 874 75 874 90 q 850 16 874 39 q 796 -7 826 -7 q 751 8 771 -7 q 719 50 731 24 l 647 218 l 233 218 l 161 49 q 131 8 151 22 q 88 -7 111 -7 q 33 13 51 -7 q 14 65 14 32 q 18 92 14 78 l 364 922 q 397 965 375 950 q 447 978 419 981 q 494 963 472 978 q 525 922 515 949 l 867 108 m 301 378 l 579 378 l 439 703 l 301 378 m 260 1022 q 206 1049 228 1022 q 183 1121 183 1076 q 225 1206 183 1168 q 338 1243 267 1243 q 406 1229 374 1243 q 481 1190 438 1215 q 527 1165 510 1174 q 558 1157 544 1157 q 582 1165 574 1157 q 586 1186 590 1174 q 583 1206 583 1193 q 598 1241 583 1228 q 635 1254 613 1254 q 689 1227 667 1254 q 711 1158 711 1200 q 696 1103 711 1132 q 651 1053 681 1074 q 579 1033 621 1033 q 504 1047 539 1033 q 417 1088 469 1061 q 368 1112 386 1104 q 336 1119 350 1119 q 313 1111 321 1119 q 308 1090 304 1103 q 311 1071 311 1083 q 297 1035 311 1049 q 260 1022 282 1022 z "},"Æ":{"ha":1228,"x_min":6,"x_max":1172,"o":"m 1088 160 q 1148 135 1124 160 q 1172 79 1172 111 q 1148 22 1172 44 q 1088 0 1124 0 l 650 0 q 590 24 614 0 q 565 85 565 49 l 565 199 l 260 199 l 143 26 q 83 -7 118 -7 q 29 15 53 -7 q 6 72 6 38 q 24 124 6 97 l 590 936 q 668 972 615 972 l 1088 972 q 1148 949 1124 972 q 1172 890 1172 926 q 1149 834 1172 856 q 1088 813 1125 813 l 739 813 l 739 569 l 1025 569 q 1085 547 1061 569 q 1110 488 1110 524 q 1086 431 1110 453 q 1025 410 1063 410 l 739 410 l 739 160 l 1088 160 m 565 653 l 365 356 l 565 356 l 565 653 z "},"Ǽ":{"ha":1228,"x_min":6,"x_max":1172,"o":"m 1088 160 q 1148 135 1124 160 q 1172 79 1172 111 q 1148 22 1172 44 q 1088 0 1124 0 l 650 0 q 590 24 614 0 q 565 85 565 49 l 565 199 l 260 199 l 143 26 q 83 -7 118 -7 q 29 15 53 -7 q 6 72 6 38 q 24 124 6 97 l 590 936 q 668 972 615 972 l 1088 972 q 1148 949 1124 972 q 1172 890 1172 926 q 1149 834 1172 856 q 1088 813 1125 813 l 739 813 l 739 569 l 1025 569 q 1085 547 1061 569 q 1110 488 1110 524 q 1086 431 1110 453 q 1025 410 1063 410 l 739 410 l 739 160 l 1088 160 m 565 653 l 365 356 l 565 356 l 565 653 m 829 1025 q 787 1039 803 1025 q 771 1075 771 1053 q 790 1113 771 1094 l 910 1218 q 978 1249 946 1249 q 1028 1229 1004 1249 q 1051 1181 1051 1210 q 1038 1140 1051 1160 q 1000 1107 1025 1119 l 861 1033 q 829 1025 847 1025 z "},"B":{"ha":910,"x_min":104,"x_max":854,"o":"m 688 539 q 808 450 761 510 q 854 296 854 390 q 760 65 854 131 q 535 0 665 0 l 189 0 q 128 24 153 0 q 104 85 104 49 l 104 888 q 128 948 104 924 q 189 972 153 972 l 539 972 q 803 725 803 972 q 773 615 803 663 q 688 539 743 567 m 622 694 q 594 780 622 751 q 514 808 565 808 l 285 808 l 285 592 l 518 592 q 591 619 560 592 q 622 694 622 647 m 535 160 q 637 194 600 160 q 674 296 674 229 q 631 403 674 378 q 525 428 588 428 l 285 428 l 285 160 l 535 160 z "},"C":{"ha":871,"x_min":56,"x_max":829,"o":"m 785 925 q 828 854 828 903 q 807 797 828 825 q 750 768 785 768 q 703 781 726 768 q 556 813 635 813 q 386 772 458 813 q 275 656 314 731 q 236 486 236 582 q 324 238 236 322 q 556 153 413 153 q 703 185 640 153 q 747 196 728 196 q 808 165 783 196 q 829 108 829 139 q 818 68 829 86 q 786 40 807 50 q 556 -14 678 -14 q 306 44 419 -14 q 124 214 192 101 q 56 486 56 326 q 120 740 56 628 q 299 916 185 853 q 556 979 413 979 q 785 925 679 979 z "},"Ć":{"ha":871,"x_min":56,"x_max":829,"o":"m 785 925 q 828 854 828 903 q 807 797 828 825 q 750 768 785 768 q 703 781 726 768 q 556 813 635 813 q 386 772 458 813 q 275 656 314 731 q 236 486 236 582 q 324 238 236 322 q 556 153 413 153 q 703 185 640 153 q 747 196 728 196 q 808 165 783 196 q 829 108 829 139 q 818 68 829 86 q 786 40 807 50 q 556 -14 678 -14 q 306 44 419 -14 q 124 214 192 101 q 56 486 56 326 q 120 740 56 628 q 299 916 185 853 q 556 979 413 979 q 785 925 679 979 m 507 1025 q 465 1039 481 1025 q 449 1075 449 1053 q 468 1113 449 1094 l 588 1218 q 656 1249 624 1249 q 706 1229 682 1249 q 729 1181 729 1210 q 716 1140 729 1160 q 678 1107 703 1119 l 539 1033 q 507 1025 525 1025 z "},"Č":{"ha":871,"x_min":56,"x_max":829,"o":"m 785 925 q 828 854 828 903 q 807 797 828 825 q 750 768 785 768 q 703 781 726 768 q 556 813 635 813 q 386 772 458 813 q 275 656 314 731 q 236 486 236 582 q 324 238 236 322 q 556 153 413 153 q 703 185 640 153 q 747 196 728 196 q 808 165 783 196 q 829 108 829 139 q 818 68 829 86 q 786 40 807 50 q 556 -14 678 -14 q 306 44 419 -14 q 124 214 192 101 q 56 486 56 326 q 120 740 56 628 q 299 916 185 853 q 556 979 413 979 q 785 925 679 979 m 668 1244 q 699 1233 686 1244 q 711 1210 711 1222 q 707 1192 711 1200 q 690 1168 703 1183 l 603 1068 q 565 1038 585 1047 q 518 1028 544 1028 l 496 1028 q 449 1038 468 1028 q 411 1068 429 1047 l 324 1168 q 307 1192 311 1183 q 303 1210 303 1200 q 315 1233 303 1222 q 346 1244 328 1244 q 417 1217 374 1244 l 507 1158 l 597 1217 q 668 1244 640 1244 z "},"Ç":{"ha":871,"x_min":56,"x_max":829,"o":"m 808 165 q 829 108 829 139 q 818 68 829 86 q 786 40 807 50 q 569 -14 685 -10 l 514 -165 q 457 -210 497 -210 q 399 -192 431 -210 q 367 -146 367 -174 q 383 -104 367 -125 l 457 -6 q 252 76 343 14 q 108 242 161 138 q 56 486 56 347 q 120 740 56 628 q 299 916 185 853 q 556 979 413 979 q 785 925 679 979 q 828 854 828 903 q 807 797 828 825 q 750 768 785 768 q 703 781 726 768 q 556 813 635 813 q 386 772 458 813 q 275 656 314 731 q 236 486 236 582 q 324 238 236 322 q 556 153 413 153 q 703 185 640 153 q 747 196 728 196 q 808 165 783 196 z "},"Ḉ":{"ha":871,"x_min":56,"x_max":829,"o":"m 507 1025 q 465 1039 481 1025 q 449 1075 449 1053 q 468 1113 449 1094 l 588 1218 q 656 1249 624 1249 q 706 1229 682 1249 q 729 1181 729 1210 q 716 1140 729 1160 q 678 1107 703 1119 l 539 1033 q 507 1025 525 1025 m 808 165 q 829 108 829 139 q 818 68 829 86 q 786 40 807 50 q 569 -14 685 -10 l 514 -165 q 457 -210 497 -210 q 399 -192 431 -210 q 367 -146 367 -174 q 383 -104 367 -125 l 457 -6 q 252 76 343 14 q 108 242 161 138 q 56 486 56 347 q 120 740 56 628 q 299 916 185 853 q 556 979 413 979 q 785 925 679 979 q 828 854 828 903 q 807 797 828 825 q 750 768 785 768 q 703 781 726 768 q 556 813 635 813 q 386 772 458 813 q 275 656 314 731 q 236 486 236 582 q 324 238 236 322 q 556 153 413 153 q 703 185 640 153 q 747 196 728 196 q 808 165 783 196 z "},"Ĉ":{"ha":871,"x_min":56,"x_max":829,"o":"m 785 925 q 828 854 828 903 q 807 797 828 825 q 750 768 785 768 q 703 781 726 768 q 556 813 635 813 q 386 772 458 813 q 275 656 314 731 q 236 486 236 582 q 324 238 236 322 q 556 153 413 153 q 703 185 640 153 q 747 196 728 196 q 808 165 783 196 q 829 108 829 139 q 818 68 829 86 q 786 40 807 50 q 556 -14 678 -14 q 306 44 419 -14 q 124 214 192 101 q 56 486 56 326 q 120 740 56 628 q 299 916 185 853 q 556 979 413 979 q 785 925 679 979 m 688 1104 q 704 1082 700 1090 q 708 1063 708 1074 q 696 1039 708 1050 q 665 1028 683 1028 q 638 1035 653 1028 q 594 1058 622 1042 l 504 1111 l 414 1058 q 374 1037 392 1046 q 343 1028 356 1028 q 313 1039 325 1028 q 300 1063 300 1050 q 304 1082 300 1074 q 321 1104 308 1090 l 408 1204 q 446 1235 426 1225 q 493 1244 465 1244 l 515 1244 q 562 1235 542 1244 q 600 1204 582 1225 l 688 1104 z "},"Ċ":{"ha":871,"x_min":56,"x_max":829,"o":"m 785 925 q 828 854 828 903 q 807 797 828 825 q 750 768 785 768 q 703 781 726 768 q 556 813 635 813 q 386 772 458 813 q 275 656 314 731 q 236 486 236 582 q 324 238 236 322 q 556 153 413 153 q 703 185 640 153 q 747 196 728 196 q 808 165 783 196 q 829 108 829 139 q 818 68 829 86 q 786 40 807 50 q 556 -14 678 -14 q 306 44 419 -14 q 124 214 192 101 q 56 486 56 326 q 120 740 56 628 q 299 916 185 853 q 556 979 413 979 q 785 925 679 979 m 503 1028 q 438 1043 457 1028 q 418 1097 418 1058 l 418 1124 q 438 1178 418 1163 q 504 1193 458 1193 q 574 1178 554 1193 q 593 1124 593 1163 l 593 1097 q 572 1042 593 1057 q 503 1028 551 1028 z "},"D":{"ha":993,"x_min":104,"x_max":938,"o":"m 521 972 q 745 908 651 972 q 888 733 839 843 q 938 486 938 622 q 888 240 938 350 q 745 65 839 129 q 521 0 651 0 l 189 0 q 128 24 153 0 q 104 85 104 49 l 104 888 q 128 948 104 924 q 189 972 153 972 l 521 972 m 507 160 q 694 252 632 160 q 757 486 757 344 q 694 720 757 628 q 507 813 631 813 l 278 813 l 278 160 l 507 160 z "},"Ǆ":{"ha":1893,"x_min":104,"x_max":1844,"o":"m 521 972 q 745 908 651 972 q 888 733 839 843 q 938 486 938 622 q 888 240 938 350 q 745 65 839 129 q 521 0 651 0 l 189 0 q 128 24 153 0 q 104 85 104 49 l 104 888 q 128 948 104 924 q 189 972 153 972 l 521 972 m 507 160 q 694 252 632 160 q 757 486 757 344 q 694 720 757 628 q 507 813 631 813 l 278 813 l 278 160 l 507 160 m 1844 890 q 1825 838 1844 864 l 1297 160 l 1740 160 q 1801 138 1778 160 q 1825 81 1825 117 q 1801 23 1825 46 q 1740 0 1776 0 l 1131 0 q 1068 25 1094 0 q 1042 82 1042 50 q 1061 135 1042 108 l 1588 813 l 1186 813 q 1125 835 1149 813 q 1101 893 1101 857 q 1126 950 1101 928 q 1186 972 1150 972 l 1754 972 q 1816 949 1788 972 q 1844 890 1844 925 m 1606 1244 q 1636 1233 1624 1244 q 1649 1210 1649 1222 q 1644 1192 1649 1200 q 1628 1168 1640 1183 l 1540 1068 q 1502 1038 1522 1047 q 1456 1028 1482 1028 l 1433 1028 q 1386 1038 1406 1028 q 1349 1068 1367 1047 l 1261 1168 q 1244 1192 1249 1183 q 1240 1210 1240 1200 q 1253 1233 1240 1222 q 1283 1244 1265 1244 q 1354 1217 1311 1244 l 1444 1158 l 1535 1217 q 1606 1244 1578 1244 z "},"Ð":{"ha":993,"x_min":-6,"x_max":938,"o":"m 521 972 q 745 908 651 972 q 888 733 839 843 q 938 486 938 622 q 888 240 938 350 q 745 65 839 129 q 521 0 651 0 l 189 0 q 128 24 153 0 q 104 85 104 49 l 104 413 l 79 413 q 19 434 43 413 q -6 490 -6 456 q 19 544 -6 522 q 79 565 43 565 l 104 565 l 104 888 q 128 948 104 924 q 189 972 153 972 l 521 972 m 507 160 q 694 252 632 160 q 757 486 757 344 q 694 720 757 628 q 507 813 631 813 l 278 813 l 278 565 l 321 565 q 381 544 357 565 q 406 490 406 522 q 381 434 406 456 q 321 413 357 413 l 278 413 l 278 160 l 507 160 z "},"Ď":{"ha":993,"x_min":104,"x_max":938,"o":"m 521 972 q 745 908 651 972 q 888 733 839 843 q 938 486 938 622 q 888 240 938 350 q 745 65 839 129 q 521 0 651 0 l 189 0 q 128 24 153 0 q 104 85 104 49 l 104 888 q 128 948 104 924 q 189 972 153 972 l 521 972 m 507 160 q 694 252 632 160 q 757 486 757 344 q 694 720 757 628 q 507 813 631 813 l 278 813 l 278 160 l 507 160 m 590 1244 q 621 1233 608 1244 q 633 1210 633 1222 q 629 1192 633 1200 q 613 1168 625 1183 l 525 1068 q 487 1038 507 1047 q 440 1028 467 1028 l 418 1028 q 371 1038 390 1028 q 333 1068 351 1047 l 246 1168 q 229 1192 233 1183 q 225 1210 225 1200 q 238 1233 225 1222 q 268 1244 250 1244 q 339 1217 296 1244 l 429 1158 l 519 1217 q 590 1244 563 1244 z "},"Đ":{"ha":993,"x_min":-6,"x_max":938,"o":"m 521 972 q 745 908 651 972 q 888 733 839 843 q 938 486 938 622 q 888 240 938 350 q 745 65 839 129 q 521 0 651 0 l 189 0 q 128 24 153 0 q 104 85 104 49 l 104 413 l 79 413 q 19 434 43 413 q -6 490 -6 456 q 19 544 -6 522 q 79 565 43 565 l 104 565 l 104 888 q 128 948 104 924 q 189 972 153 972 l 521 972 m 507 160 q 694 252 632 160 q 757 486 757 344 q 694 720 757 628 q 507 813 631 813 l 278 813 l 278 565 l 321 565 q 381 544 357 565 q 406 490 406 522 q 381 434 406 456 q 321 413 357 413 l 278 413 l 278 160 l 507 160 z "},"Ḍ":{"ha":993,"x_min":104,"x_max":938,"o":"m 521 972 q 745 908 651 972 q 888 733 839 843 q 938 486 938 622 q 888 240 938 350 q 745 65 839 129 q 521 0 651 0 l 189 0 q 128 24 153 0 q 104 85 104 49 l 104 888 q 128 948 104 924 q 189 972 153 972 l 521 972 m 507 160 q 694 252 632 160 q 757 486 757 344 q 694 720 757 628 q 507 813 631 813 l 278 813 l 278 160 l 507 160 m 439 -204 q 374 -189 393 -204 q 354 -135 354 -174 l 354 -108 q 375 -54 354 -69 q 439 -39 396 -39 q 510 -54 490 -39 q 529 -108 529 -69 l 529 -135 q 508 -190 529 -175 q 439 -204 488 -204 z "},"Ḏ":{"ha":993,"x_min":104,"x_max":938,"o":"m 521 972 q 745 908 651 972 q 888 733 839 843 q 938 486 938 622 q 888 240 938 350 q 745 65 839 129 q 521 0 651 0 l 189 0 q 128 24 153 0 q 104 85 104 49 l 104 888 q 128 948 104 924 q 189 972 153 972 l 521 972 m 507 160 q 694 252 632 160 q 757 486 757 344 q 694 720 757 628 q 507 813 631 813 l 278 813 l 278 160 l 507 160 m 288 -211 q 236 -195 254 -211 q 218 -149 218 -179 q 236 -103 218 -119 q 288 -87 254 -87 l 624 -87 q 675 -103 657 -87 q 693 -149 693 -119 q 624 -211 693 -211 l 288 -211 z "},"ǲ":{"ha":1664,"x_min":104,"x_max":1633,"o":"m 521 972 q 745 908 651 972 q 888 733 839 843 q 938 486 938 622 q 888 240 938 350 q 745 65 839 129 q 521 0 651 0 l 189 0 q 128 24 153 0 q 104 85 104 49 l 104 888 q 128 948 104 924 q 189 972 153 972 l 521 972 m 507 160 q 694 252 632 160 q 757 486 757 344 q 694 720 757 628 q 507 813 631 813 l 278 813 l 278 160 l 507 160 m 1556 153 q 1611 131 1589 153 q 1633 76 1633 110 q 1611 22 1633 44 q 1556 0 1589 0 l 1108 0 q 1055 23 1076 0 q 1033 72 1033 46 q 1039 112 1033 96 q 1060 149 1044 128 l 1390 576 l 1121 576 q 1065 599 1088 576 q 1043 654 1043 621 q 1065 708 1043 686 q 1121 729 1088 729 l 1549 729 q 1601 708 1579 729 q 1622 654 1622 686 q 1618 619 1622 633 q 1599 585 1614 604 l 1265 153 l 1556 153 z "},"ǅ":{"ha":1665,"x_min":104,"x_max":1635,"o":"m 521 972 q 745 908 651 972 q 888 733 839 843 q 938 486 938 622 q 888 240 938 350 q 745 65 839 129 q 521 0 651 0 l 189 0 q 128 24 153 0 q 104 85 104 49 l 104 888 q 128 948 104 924 q 189 972 153 972 l 521 972 m 507 160 q 694 252 632 160 q 757 486 757 344 q 694 720 757 628 q 507 813 631 813 l 278 813 l 278 160 l 507 160 m 1557 153 q 1613 131 1590 153 q 1635 76 1635 110 q 1613 22 1635 44 q 1557 0 1590 0 l 1110 0 q 1056 23 1078 0 q 1035 72 1035 46 q 1040 112 1035 96 q 1061 149 1046 128 l 1392 576 l 1122 576 q 1067 599 1089 576 q 1044 654 1044 621 q 1067 708 1044 686 q 1122 729 1089 729 l 1550 729 q 1602 708 1581 729 q 1624 654 1624 686 q 1619 619 1624 633 q 1600 585 1615 604 l 1267 153 l 1557 153 m 1474 1036 q 1506 1026 1492 1036 q 1519 1000 1519 1015 q 1497 951 1519 978 l 1436 875 q 1399 843 1419 853 q 1351 833 1379 833 l 1301 833 q 1253 843 1274 833 q 1217 875 1233 853 l 1156 951 q 1139 996 1139 974 q 1153 1025 1139 1014 q 1196 1036 1168 1036 q 1258 1004 1221 1036 l 1328 944 l 1397 1004 q 1434 1029 1419 1022 q 1474 1036 1449 1036 z "},"E":{"ha":794,"x_min":104,"x_max":739,"o":"m 654 160 q 715 135 690 160 q 739 79 739 111 q 715 22 739 44 q 654 0 690 0 l 189 0 q 128 24 153 0 q 104 85 104 49 l 104 888 q 128 948 104 924 q 189 972 153 972 l 654 972 q 715 949 690 972 q 739 890 739 926 q 715 834 739 856 q 654 813 692 813 l 278 813 l 278 576 l 592 576 q 652 553 628 576 q 676 494 676 531 q 653 438 676 460 q 592 417 629 417 l 278 417 l 278 160 l 654 160 z "},"É":{"ha":794,"x_min":104,"x_max":739,"o":"m 654 160 q 715 135 690 160 q 739 79 739 111 q 715 22 739 44 q 654 0 690 0 l 189 0 q 128 24 153 0 q 104 85 104 49 l 104 888 q 128 948 104 924 q 189 972 153 972 l 654 972 q 715 949 690 972 q 739 890 739 926 q 715 834 739 856 q 654 813 692 813 l 278 813 l 278 576 l 592 576 q 652 553 628 576 q 676 494 676 531 q 653 438 676 460 q 592 417 629 417 l 278 417 l 278 160 l 654 160 m 426 1025 q 384 1039 400 1025 q 368 1075 368 1053 q 388 1113 368 1094 l 507 1218 q 575 1249 543 1249 q 625 1229 601 1249 q 649 1181 649 1210 q 635 1140 649 1160 q 597 1107 622 1119 l 458 1033 q 426 1025 444 1025 z "},"Ĕ":{"ha":794,"x_min":104,"x_max":739,"o":"m 654 160 q 715 135 690 160 q 739 79 739 111 q 715 22 739 44 q 654 0 690 0 l 189 0 q 128 24 153 0 q 104 85 104 49 l 104 888 q 128 948 104 924 q 189 972 153 972 l 654 972 q 715 949 690 972 q 739 890 739 926 q 715 834 739 856 q 654 813 692 813 l 278 813 l 278 576 l 592 576 q 652 553 628 576 q 676 494 676 531 q 653 438 676 460 q 592 417 629 417 l 278 417 l 278 160 l 654 160 m 425 1053 q 290 1087 347 1053 q 206 1182 232 1121 q 199 1213 199 1200 q 212 1246 199 1233 q 246 1258 225 1258 q 289 1247 272 1258 q 329 1208 306 1236 q 425 1171 363 1171 q 521 1208 492 1171 q 559 1247 542 1235 q 604 1258 576 1258 q 638 1247 625 1258 q 651 1214 651 1235 q 646 1185 651 1200 q 562 1087 619 1121 q 425 1053 504 1053 z "},"Ě":{"ha":794,"x_min":104,"x_max":739,"o":"m 654 160 q 715 135 690 160 q 739 79 739 111 q 715 22 739 44 q 654 0 690 0 l 189 0 q 128 24 153 0 q 104 85 104 49 l 104 888 q 128 948 104 924 q 189 972 153 972 l 654 972 q 715 949 690 972 q 739 890 739 926 q 715 834 739 856 q 654 813 692 813 l 278 813 l 278 576 l 592 576 q 652 553 628 576 q 676 494 676 531 q 653 438 676 460 q 592 417 629 417 l 278 417 l 278 160 l 654 160 m 588 1244 q 618 1233 606 1244 q 631 1210 631 1222 q 626 1192 631 1200 q 610 1168 622 1183 l 522 1068 q 484 1038 504 1047 q 438 1028 464 1028 l 415 1028 q 368 1038 388 1028 q 331 1068 349 1047 l 243 1168 q 226 1192 231 1183 q 222 1210 222 1200 q 235 1233 222 1222 q 265 1244 247 1244 q 336 1217 293 1244 l 426 1158 l 517 1217 q 588 1244 560 1244 z "},"Ḝ":{"ha":794,"x_min":104,"x_max":739,"o":"m 425 1053 q 290 1087 347 1053 q 206 1182 232 1121 q 199 1213 199 1200 q 212 1246 199 1233 q 246 1258 225 1258 q 289 1247 272 1258 q 329 1208 306 1236 q 425 1171 363 1171 q 521 1208 492 1171 q 559 1247 542 1235 q 604 1258 576 1258 q 638 1247 625 1258 q 651 1214 651 1235 q 646 1185 651 1200 q 562 1087 619 1121 q 425 1053 504 1053 m 654 160 q 715 135 690 160 q 739 79 739 111 q 715 22 739 44 q 654 0 690 0 l 439 0 l 378 -165 q 321 -210 361 -210 q 263 -192 294 -210 q 231 -146 231 -174 q 247 -104 231 -125 l 325 0 l 189 0 q 128 24 153 0 q 104 85 104 49 l 104 888 q 128 948 104 924 q 189 972 153 972 l 654 972 q 715 949 690 972 q 739 890 739 926 q 715 834 739 856 q 654 813 692 813 l 278 813 l 278 576 l 592 576 q 652 553 628 576 q 676 494 676 531 q 653 438 676 460 q 592 417 629 417 l 278 417 l 278 160 l 654 160 z "},"Ê":{"ha":794,"x_min":104,"x_max":739,"o":"m 654 160 q 715 135 690 160 q 739 79 739 111 q 715 22 739 44 q 654 0 690 0 l 189 0 q 128 24 153 0 q 104 85 104 49 l 104 888 q 128 948 104 924 q 189 972 153 972 l 654 972 q 715 949 690 972 q 739 890 739 926 q 715 834 739 856 q 654 813 692 813 l 278 813 l 278 576 l 592 576 q 652 553 628 576 q 676 494 676 531 q 653 438 676 460 q 592 417 629 417 l 278 417 l 278 160 l 654 160 m 607 1104 q 624 1082 619 1090 q 628 1063 628 1074 q 615 1039 628 1050 q 585 1028 603 1028 q 557 1035 572 1028 q 514 1058 542 1042 l 424 1111 l 333 1058 q 293 1037 311 1046 q 263 1028 275 1028 q 232 1039 244 1028 q 219 1063 219 1050 q 224 1082 219 1074 q 240 1104 228 1090 l 328 1204 q 365 1235 346 1225 q 413 1244 385 1244 l 435 1244 q 481 1235 461 1244 q 519 1204 501 1225 l 607 1104 z "},"Ế":{"ha":794,"x_min":104,"x_max":896,"o":"m 654 160 q 715 135 690 160 q 739 79 739 111 q 715 22 739 44 q 654 0 690 0 l 189 0 q 128 24 153 0 q 104 85 104 49 l 104 888 q 128 948 104 924 q 189 972 153 972 l 654 972 q 715 949 690 972 q 739 890 739 926 q 715 834 739 856 q 654 813 692 813 l 278 813 l 278 576 l 592 576 q 652 553 628 576 q 676 494 676 531 q 653 438 676 460 q 592 417 629 417 l 278 417 l 278 160 l 654 160 m 607 1104 q 624 1082 619 1090 q 628 1063 628 1074 q 615 1039 628 1050 q 585 1028 603 1028 q 557 1035 572 1028 q 514 1058 542 1042 l 424 1111 l 333 1058 q 293 1037 311 1046 q 263 1028 275 1028 q 232 1039 244 1028 q 219 1063 219 1050 q 224 1082 219 1074 q 240 1104 228 1090 l 328 1204 q 365 1235 346 1225 q 413 1244 385 1244 l 435 1244 q 481 1235 461 1244 q 519 1204 501 1225 l 607 1104 m 674 1133 q 631 1147 647 1133 q 615 1183 615 1161 q 635 1221 615 1203 l 754 1326 q 822 1357 790 1357 q 872 1338 849 1357 q 896 1289 896 1318 q 883 1248 896 1268 q 844 1215 869 1228 l 706 1142 q 674 1133 692 1133 z "},"Ệ":{"ha":794,"x_min":104,"x_max":739,"o":"m 654 160 q 715 135 690 160 q 739 79 739 111 q 715 22 739 44 q 654 0 690 0 l 189 0 q 128 24 153 0 q 104 85 104 49 l 104 888 q 128 948 104 924 q 189 972 153 972 l 654 972 q 715 949 690 972 q 739 890 739 926 q 715 834 739 856 q 654 813 692 813 l 278 813 l 278 576 l 592 576 q 652 553 628 576 q 676 494 676 531 q 653 438 676 460 q 592 417 629 417 l 278 417 l 278 160 l 654 160 m 394 -204 q 329 -189 349 -204 q 310 -135 310 -174 l 310 -108 q 331 -54 310 -69 q 394 -39 351 -39 q 465 -54 446 -39 q 485 -108 485 -69 l 485 -135 q 464 -190 485 -175 q 394 -204 443 -204 m 607 1104 q 624 1082 619 1090 q 628 1063 628 1074 q 615 1039 628 1050 q 585 1028 603 1028 q 557 1035 572 1028 q 514 1058 542 1042 l 424 1111 l 333 1058 q 293 1037 311 1046 q 263 1028 275 1028 q 232 1039 244 1028 q 219 1063 219 1050 q 224 1082 219 1074 q 240 1104 228 1090 l 328 1204 q 365 1235 346 1225 q 413 1244 385 1244 l 435 1244 q 481 1235 461 1244 q 519 1204 501 1225 l 607 1104 z "},"Ề":{"ha":794,"x_min":104,"x_max":739,"o":"m 654 160 q 715 135 690 160 q 739 79 739 111 q 715 22 739 44 q 654 0 690 0 l 189 0 q 128 24 153 0 q 104 85 104 49 l 104 888 q 128 948 104 924 q 189 972 153 972 l 654 972 q 715 949 690 972 q 739 890 739 926 q 715 834 739 856 q 654 813 692 813 l 278 813 l 278 576 l 592 576 q 652 553 628 576 q 676 494 676 531 q 653 438 676 460 q 592 417 629 417 l 278 417 l 278 160 l 654 160 m 607 1104 q 624 1082 619 1090 q 628 1063 628 1074 q 615 1039 628 1050 q 585 1028 603 1028 q 557 1035 572 1028 q 514 1058 542 1042 l 424 1111 l 333 1058 q 293 1037 311 1046 q 263 1028 275 1028 q 232 1039 244 1028 q 219 1063 219 1050 q 224 1082 219 1074 q 240 1104 228 1090 l 328 1204 q 365 1235 346 1225 q 413 1244 385 1244 l 435 1244 q 481 1235 461 1244 q 519 1204 501 1225 l 607 1104 m 628 1218 q 596 1226 613 1218 l 457 1300 q 419 1333 432 1314 q 406 1374 406 1353 q 429 1422 406 1403 q 479 1442 453 1442 q 547 1411 511 1442 l 667 1306 q 686 1268 686 1288 q 670 1232 686 1246 q 628 1218 654 1218 z "},"Ể":{"ha":794,"x_min":104,"x_max":739,"o":"m 654 160 q 715 135 690 160 q 739 79 739 111 q 715 22 739 44 q 654 0 690 0 l 189 0 q 128 24 153 0 q 104 85 104 49 l 104 888 q 128 948 104 924 q 189 972 153 972 l 654 972 q 715 949 690 972 q 739 890 739 926 q 715 834 739 856 q 654 813 692 813 l 278 813 l 278 576 l 592 576 q 652 553 628 576 q 676 494 676 531 q 653 438 676 460 q 592 417 629 417 l 278 417 l 278 160 l 654 160 m 607 1104 q 624 1082 619 1090 q 628 1063 628 1074 q 615 1039 628 1050 q 585 1028 603 1028 q 557 1035 572 1028 q 514 1058 542 1042 l 424 1111 l 333 1058 q 293 1037 311 1046 q 263 1028 275 1028 q 232 1039 244 1028 q 219 1063 219 1050 q 224 1082 219 1074 q 240 1104 228 1090 l 328 1204 q 365 1235 346 1225 q 413 1244 385 1244 l 435 1244 q 481 1235 461 1244 q 519 1204 501 1225 l 607 1104 m 290 1603 q 340 1633 315 1622 q 400 1643 365 1643 q 510 1606 478 1643 q 543 1522 543 1569 q 537 1483 543 1500 q 517 1447 531 1465 q 503 1431 514 1443 q 488 1410 493 1418 q 483 1394 483 1401 q 468 1370 483 1378 q 428 1363 453 1363 q 401 1370 413 1363 q 389 1394 389 1378 q 411 1449 389 1419 q 443 1508 443 1492 q 429 1535 443 1525 q 396 1546 415 1546 q 368 1540 381 1546 q 338 1522 356 1533 q 315 1514 324 1514 q 281 1532 299 1514 q 268 1561 268 1544 q 290 1603 268 1583 z "},"Ễ":{"ha":794,"x_min":104,"x_max":739,"o":"m 654 160 q 715 135 690 160 q 739 79 739 111 q 715 22 739 44 q 654 0 690 0 l 189 0 q 128 24 153 0 q 104 85 104 49 l 104 888 q 128 948 104 924 q 189 972 153 972 l 654 972 q 715 949 690 972 q 739 890 739 926 q 715 834 739 856 q 654 813 692 813 l 278 813 l 278 576 l 592 576 q 652 553 628 576 q 676 494 676 531 q 653 438 676 460 q 592 417 629 417 l 278 417 l 278 160 l 654 160 m 607 1104 q 624 1082 619 1090 q 628 1063 628 1074 q 615 1039 628 1050 q 585 1028 603 1028 q 557 1035 572 1028 q 514 1058 542 1042 l 424 1111 l 333 1058 q 293 1037 311 1046 q 263 1028 275 1028 q 232 1039 244 1028 q 219 1063 219 1050 q 224 1082 219 1074 q 240 1104 228 1090 l 328 1204 q 365 1235 346 1225 q 413 1244 385 1244 l 435 1244 q 481 1235 461 1244 q 519 1204 501 1225 l 607 1104 m 238 1246 q 183 1273 206 1246 q 161 1344 161 1300 q 203 1429 161 1392 q 315 1467 244 1467 q 383 1453 351 1467 q 458 1414 415 1439 q 505 1389 488 1397 q 536 1381 522 1381 q 560 1389 551 1381 q 564 1410 568 1397 q 561 1429 561 1417 q 576 1465 561 1451 q 613 1478 590 1478 q 667 1451 644 1478 q 689 1382 689 1424 q 674 1326 689 1356 q 628 1277 658 1297 q 557 1257 599 1257 q 482 1271 517 1257 q 394 1311 447 1285 q 346 1335 364 1328 q 314 1343 328 1343 q 290 1335 299 1343 q 286 1314 282 1326 q 289 1294 289 1307 q 274 1259 289 1272 q 238 1246 260 1246 z "},"Ȅ":{"ha":794,"x_min":64,"x_max":739,"o":"m 654 160 q 715 135 690 160 q 739 79 739 111 q 715 22 739 44 q 654 0 690 0 l 189 0 q 128 24 153 0 q 104 85 104 49 l 104 888 q 128 948 104 924 q 189 972 153 972 l 654 972 q 715 949 690 972 q 739 890 739 926 q 715 834 739 856 q 654 813 692 813 l 278 813 l 278 576 l 592 576 q 652 553 628 576 q 676 494 676 531 q 653 438 676 460 q 592 417 629 417 l 278 417 l 278 160 l 654 160 m 572 1058 q 540 1067 557 1058 l 401 1140 q 363 1174 376 1154 q 350 1214 350 1193 q 374 1263 350 1243 q 424 1282 397 1282 q 492 1251 456 1282 l 611 1146 q 631 1108 631 1128 q 615 1072 631 1086 q 572 1058 599 1058 m 286 1044 q 254 1053 271 1044 l 115 1126 q 77 1160 90 1140 q 64 1200 64 1179 q 88 1249 64 1229 q 138 1268 111 1268 q 206 1238 169 1268 l 325 1132 q 344 1094 344 1114 q 328 1058 344 1072 q 286 1044 313 1044 z "},"Ë":{"ha":794,"x_min":104,"x_max":739,"o":"m 654 160 q 715 135 690 160 q 739 79 739 111 q 715 22 739 44 q 654 0 690 0 l 189 0 q 128 24 153 0 q 104 85 104 49 l 104 888 q 128 948 104 924 q 189 972 153 972 l 654 972 q 715 949 690 972 q 739 890 739 926 q 715 834 739 856 q 654 813 692 813 l 278 813 l 278 576 l 592 576 q 652 553 628 576 q 676 494 676 531 q 653 438 676 460 q 592 417 629 417 l 278 417 l 278 160 l 654 160 m 285 1056 q 221 1072 240 1056 q 201 1125 201 1088 l 201 1150 q 222 1204 201 1189 q 286 1219 243 1219 q 352 1203 332 1219 q 372 1150 372 1188 l 372 1125 q 352 1071 372 1086 q 285 1056 332 1056 m 561 1056 q 497 1072 517 1056 q 478 1125 478 1088 l 478 1150 q 498 1204 478 1189 q 561 1219 518 1219 q 628 1204 608 1219 q 649 1150 649 1189 l 649 1125 q 628 1071 649 1086 q 561 1056 608 1056 z "},"Ė":{"ha":794,"x_min":104,"x_max":739,"o":"m 654 160 q 715 135 690 160 q 739 79 739 111 q 715 22 739 44 q 654 0 690 0 l 189 0 q 128 24 153 0 q 104 85 104 49 l 104 888 q 128 948 104 924 q 189 972 153 972 l 654 972 q 715 949 690 972 q 739 890 739 926 q 715 834 739 856 q 654 813 692 813 l 278 813 l 278 576 l 592 576 q 652 553 628 576 q 676 494 676 531 q 653 438 676 460 q 592 417 629 417 l 278 417 l 278 160 l 654 160 m 422 1028 q 357 1043 376 1028 q 338 1097 338 1058 l 338 1124 q 358 1178 338 1163 q 424 1193 378 1193 q 493 1178 474 1193 q 513 1124 513 1163 l 513 1097 q 492 1042 513 1057 q 422 1028 471 1028 z "},"Ẹ":{"ha":794,"x_min":104,"x_max":739,"o":"m 654 160 q 715 135 690 160 q 739 79 739 111 q 715 22 739 44 q 654 0 690 0 l 189 0 q 128 24 153 0 q 104 85 104 49 l 104 888 q 128 948 104 924 q 189 972 153 972 l 654 972 q 715 949 690 972 q 739 890 739 926 q 715 834 739 856 q 654 813 692 813 l 278 813 l 278 576 l 592 576 q 652 553 628 576 q 676 494 676 531 q 653 438 676 460 q 592 417 629 417 l 278 417 l 278 160 l 654 160 m 394 -204 q 329 -189 349 -204 q 310 -135 310 -174 l 310 -108 q 331 -54 310 -69 q 394 -39 351 -39 q 465 -54 446 -39 q 485 -108 485 -69 l 485 -135 q 464 -190 485 -175 q 394 -204 443 -204 z "},"È":{"ha":794,"x_min":104,"x_max":739,"o":"m 654 160 q 715 135 690 160 q 739 79 739 111 q 715 22 739 44 q 654 0 690 0 l 189 0 q 128 24 153 0 q 104 85 104 49 l 104 888 q 128 948 104 924 q 189 972 153 972 l 654 972 q 715 949 690 972 q 739 890 739 926 q 715 834 739 856 q 654 813 692 813 l 278 813 l 278 576 l 592 576 q 652 553 628 576 q 676 494 676 531 q 653 438 676 460 q 592 417 629 417 l 278 417 l 278 160 l 654 160 m 422 1031 q 390 1039 407 1031 l 251 1113 q 213 1146 226 1126 q 200 1186 200 1165 q 224 1235 200 1215 q 274 1254 247 1254 q 342 1224 306 1254 l 461 1118 q 481 1081 481 1100 q 465 1044 481 1058 q 422 1031 449 1031 z "},"Ẻ":{"ha":794,"x_min":104,"x_max":739,"o":"m 654 160 q 715 135 690 160 q 739 79 739 111 q 715 22 739 44 q 654 0 690 0 l 189 0 q 128 24 153 0 q 104 85 104 49 l 104 888 q 128 948 104 924 q 189 972 153 972 l 654 972 q 715 949 690 972 q 739 890 739 926 q 715 834 739 856 q 654 813 692 813 l 278 813 l 278 576 l 592 576 q 652 553 628 576 q 676 494 676 531 q 653 438 676 460 q 592 417 629 417 l 278 417 l 278 160 l 654 160 m 290 1289 q 340 1319 315 1308 q 400 1329 365 1329 q 510 1292 478 1329 q 543 1208 543 1256 q 537 1169 543 1186 q 517 1133 531 1151 q 503 1117 514 1129 q 488 1096 493 1104 q 483 1081 483 1088 q 468 1056 483 1064 q 428 1049 453 1049 q 401 1056 413 1049 q 389 1081 389 1064 q 411 1135 389 1106 q 443 1194 443 1178 q 429 1222 443 1211 q 396 1232 415 1232 q 368 1226 381 1232 q 338 1208 356 1219 q 315 1200 324 1200 q 281 1218 299 1200 q 268 1247 268 1231 q 290 1289 268 1269 z "},"Ȇ":{"ha":794,"x_min":104,"x_max":739,"o":"m 654 160 q 715 135 690 160 q 739 79 739 111 q 715 22 739 44 q 654 0 690 0 l 189 0 q 128 24 153 0 q 104 85 104 49 l 104 888 q 128 948 104 924 q 189 972 153 972 l 654 972 q 715 949 690 972 q 739 890 739 926 q 715 834 739 856 q 654 813 692 813 l 278 813 l 278 576 l 592 576 q 652 553 628 576 q 676 494 676 531 q 653 438 676 460 q 592 417 629 417 l 278 417 l 278 160 l 654 160 m 425 1289 q 562 1256 504 1289 q 644 1160 619 1222 q 651 1129 651 1142 q 638 1096 651 1108 q 604 1083 625 1083 q 559 1095 576 1083 q 521 1133 542 1107 q 425 1171 488 1171 q 329 1133 363 1171 q 291 1095 308 1107 q 246 1083 274 1083 q 212 1095 225 1083 q 199 1128 199 1107 q 204 1157 199 1142 q 288 1255 231 1221 q 425 1289 346 1289 z "},"Ē":{"ha":794,"x_min":104,"x_max":739,"o":"m 654 160 q 715 135 690 160 q 739 79 739 111 q 715 22 739 44 q 654 0 690 0 l 189 0 q 128 24 153 0 q 104 85 104 49 l 104 888 q 128 948 104 924 q 189 972 153 972 l 654 972 q 715 949 690 972 q 739 890 739 926 q 715 834 739 856 q 654 813 692 813 l 278 813 l 278 576 l 592 576 q 652 553 628 576 q 676 494 676 531 q 653 438 676 460 q 592 417 629 417 l 278 417 l 278 160 l 654 160 m 257 1042 q 206 1058 224 1042 q 188 1104 188 1074 q 206 1149 188 1133 q 257 1165 224 1165 l 593 1165 q 644 1149 626 1165 q 663 1104 663 1133 q 593 1042 663 1042 l 257 1042 z "},"Ḗ":{"ha":794,"x_min":104,"x_max":739,"o":"m 654 160 q 715 135 690 160 q 739 79 739 111 q 715 22 739 44 q 654 0 690 0 l 189 0 q 128 24 153 0 q 104 85 104 49 l 104 888 q 128 948 104 924 q 189 972 153 972 l 654 972 q 715 949 690 972 q 739 890 739 926 q 715 834 739 856 q 654 813 692 813 l 278 813 l 278 576 l 592 576 q 652 553 628 576 q 676 494 676 531 q 653 438 676 460 q 592 417 629 417 l 278 417 l 278 160 l 654 160 m 257 1042 q 206 1058 224 1042 q 188 1104 188 1074 q 206 1149 188 1133 q 257 1165 224 1165 l 593 1165 q 644 1149 626 1165 q 663 1104 663 1133 q 593 1042 663 1042 l 257 1042 m 426 1260 q 384 1274 400 1260 q 368 1310 368 1288 q 388 1347 368 1329 l 507 1453 q 575 1483 543 1483 q 625 1464 601 1483 q 649 1415 649 1444 q 635 1374 649 1394 q 597 1342 622 1354 l 458 1268 q 426 1260 444 1260 z "},"Ḕ":{"ha":794,"x_min":104,"x_max":739,"o":"m 654 160 q 715 135 690 160 q 739 79 739 111 q 715 22 739 44 q 654 0 690 0 l 189 0 q 128 24 153 0 q 104 85 104 49 l 104 888 q 128 948 104 924 q 189 972 153 972 l 654 972 q 715 949 690 972 q 739 890 739 926 q 715 834 739 856 q 654 813 692 813 l 278 813 l 278 576 l 592 576 q 652 553 628 576 q 676 494 676 531 q 653 438 676 460 q 592 417 629 417 l 278 417 l 278 160 l 654 160 m 257 1042 q 206 1058 224 1042 q 188 1104 188 1074 q 206 1149 188 1133 q 257 1165 224 1165 l 593 1165 q 644 1149 626 1165 q 663 1104 663 1133 q 593 1042 663 1042 l 257 1042 m 422 1265 q 390 1274 407 1265 l 251 1347 q 213 1381 226 1361 q 200 1421 200 1400 q 224 1469 200 1450 q 274 1489 247 1489 q 342 1458 306 1489 l 461 1353 q 481 1315 481 1335 q 465 1279 481 1293 q 422 1265 449 1265 z "},"Ę":{"ha":794,"x_min":104,"x_max":739,"o":"m 654 160 q 715 138 692 160 q 739 79 739 117 q 718 28 739 46 q 657 0 697 10 q 555 -44 594 -15 q 515 -108 515 -74 q 528 -145 515 -132 q 558 -158 540 -158 q 588 -142 575 -158 q 644 -117 607 -117 q 688 -135 671 -117 q 706 -183 706 -153 q 683 -231 706 -206 q 622 -272 660 -256 q 544 -287 585 -287 q 424 -250 471 -287 q 378 -139 378 -212 q 463 0 378 -61 l 189 0 q 128 24 153 0 q 104 85 104 49 l 104 888 q 128 948 104 924 q 189 972 153 972 l 654 972 q 715 949 690 972 q 739 890 739 926 q 715 837 739 860 q 654 814 690 814 l 278 814 l 278 576 l 592 576 q 652 553 628 576 q 676 494 676 531 q 651 441 676 465 q 592 417 626 417 l 278 417 l 278 160 l 654 160 z "},"Ẽ":{"ha":794,"x_min":104,"x_max":739,"o":"m 654 160 q 715 135 690 160 q 739 79 739 111 q 715 22 739 44 q 654 0 690 0 l 189 0 q 128 24 153 0 q 104 85 104 49 l 104 888 q 128 948 104 924 q 189 972 153 972 l 654 972 q 715 949 690 972 q 739 890 739 926 q 715 834 739 856 q 654 813 692 813 l 278 813 l 278 576 l 592 576 q 652 553 628 576 q 676 494 676 531 q 653 438 676 460 q 592 417 629 417 l 278 417 l 278 160 l 654 160 m 238 1022 q 183 1049 206 1022 q 161 1121 161 1076 q 203 1206 161 1168 q 315 1243 244 1243 q 383 1229 351 1243 q 458 1190 415 1215 q 505 1165 488 1174 q 536 1157 522 1157 q 560 1165 551 1157 q 564 1186 568 1174 q 561 1206 561 1193 q 576 1241 561 1228 q 613 1254 590 1254 q 667 1227 644 1254 q 689 1158 689 1200 q 674 1103 689 1132 q 628 1053 658 1074 q 557 1033 599 1033 q 482 1047 517 1033 q 394 1088 447 1061 q 346 1112 364 1104 q 314 1119 328 1119 q 290 1111 299 1119 q 286 1090 282 1103 q 289 1071 289 1083 q 274 1035 289 1049 q 238 1022 260 1022 z "},"F":{"ha":781,"x_min":104,"x_max":725,"o":"m 278 813 l 278 568 l 578 568 q 638 545 614 568 q 663 486 663 522 q 638 432 663 456 q 578 408 614 408 l 278 408 l 278 85 q 252 24 278 49 q 192 0 226 0 q 128 24 153 0 q 104 85 104 47 l 104 888 q 128 948 104 924 q 189 972 153 972 l 640 972 q 701 949 676 972 q 725 890 725 926 q 701 836 725 860 q 640 813 676 813 l 278 813 z "},"G":{"ha":967,"x_min":56,"x_max":904,"o":"m 821 525 q 881 501 857 525 q 904 440 904 476 l 904 146 q 861 71 904 97 q 563 -14 725 -14 q 308 53 425 -14 q 124 235 192 121 q 56 486 56 350 q 124 737 56 622 q 308 919 192 851 q 563 986 425 986 q 801 931 700 986 q 833 901 822 919 q 843 863 843 883 q 820 802 843 828 q 764 776 797 776 q 718 788 743 776 q 563 819 643 819 q 399 774 474 819 q 280 653 324 729 q 236 486 236 576 q 280 319 236 396 q 399 198 324 243 q 563 153 474 153 q 646 160 601 153 q 724 178 690 167 l 724 358 l 593 358 q 533 382 557 358 q 508 442 508 406 q 533 501 508 478 q 593 525 557 525 l 821 525 z "},"Ğ":{"ha":967,"x_min":56,"x_max":904,"o":"m 821 525 q 881 501 857 525 q 904 440 904 476 l 904 146 q 861 71 904 97 q 563 -14 725 -14 q 308 53 425 -14 q 124 235 192 121 q 56 486 56 350 q 124 737 56 622 q 308 919 192 851 q 563 986 425 986 q 801 931 700 986 q 833 901 822 919 q 843 863 843 883 q 820 802 843 828 q 764 776 797 776 q 718 788 743 776 q 563 819 643 819 q 399 774 474 819 q 280 653 324 729 q 236 486 236 576 q 280 319 236 396 q 399 198 324 243 q 563 153 474 153 q 646 160 601 153 q 724 178 690 167 l 724 358 l 593 358 q 533 382 557 358 q 508 442 508 406 q 533 501 508 478 q 593 525 557 525 l 821 525 m 539 1053 q 403 1087 461 1053 q 319 1182 346 1121 q 313 1213 313 1200 q 326 1246 313 1233 q 360 1258 339 1258 q 403 1247 386 1258 q 443 1208 419 1236 q 539 1171 476 1171 q 635 1208 606 1171 q 673 1247 656 1235 q 718 1258 690 1258 q 752 1247 739 1258 q 765 1214 765 1235 q 760 1185 765 1200 q 676 1087 733 1121 q 539 1053 618 1053 z "},"Ǧ":{"ha":967,"x_min":56,"x_max":904,"o":"m 821 525 q 881 501 857 525 q 904 440 904 476 l 904 146 q 861 71 904 97 q 563 -14 725 -14 q 308 53 425 -14 q 124 235 192 121 q 56 486 56 350 q 124 737 56 622 q 308 919 192 851 q 563 986 425 986 q 801 931 700 986 q 833 901 822 919 q 843 863 843 883 q 820 802 843 828 q 764 776 797 776 q 718 788 743 776 q 563 819 643 819 q 399 774 474 819 q 280 653 324 729 q 236 486 236 576 q 280 319 236 396 q 399 198 324 243 q 563 153 474 153 q 646 160 601 153 q 724 178 690 167 l 724 358 l 593 358 q 533 382 557 358 q 508 442 508 406 q 533 501 508 478 q 593 525 557 525 l 821 525 m 701 1244 q 732 1233 719 1244 q 744 1210 744 1222 q 740 1192 744 1200 q 724 1168 736 1183 l 636 1068 q 598 1038 618 1047 q 551 1028 578 1028 l 529 1028 q 482 1038 501 1028 q 444 1068 463 1047 l 357 1168 q 340 1192 344 1183 q 336 1210 336 1200 q 349 1233 336 1222 q 379 1244 361 1244 q 450 1217 407 1244 l 540 1158 l 631 1217 q 701 1244 674 1244 z "},"Ĝ":{"ha":967,"x_min":56,"x_max":904,"o":"m 821 525 q 881 501 857 525 q 904 440 904 476 l 904 146 q 861 71 904 97 q 563 -14 725 -14 q 308 53 425 -14 q 124 235 192 121 q 56 486 56 350 q 124 737 56 622 q 308 919 192 851 q 563 986 425 986 q 801 931 700 986 q 833 901 822 919 q 843 863 843 883 q 820 802 843 828 q 764 776 797 776 q 718 788 743 776 q 563 819 643 819 q 399 774 474 819 q 280 653 324 729 q 236 486 236 576 q 280 319 236 396 q 399 198 324 243 q 563 153 474 153 q 646 160 601 153 q 724 178 690 167 l 724 358 l 593 358 q 533 382 557 358 q 508 442 508 406 q 533 501 508 478 q 593 525 557 525 l 821 525 m 721 1104 q 738 1082 733 1090 q 742 1063 742 1074 q 729 1039 742 1050 q 699 1028 717 1028 q 671 1035 686 1028 q 628 1058 656 1042 l 538 1111 l 447 1058 q 407 1037 425 1046 q 376 1028 389 1028 q 346 1039 358 1028 q 333 1063 333 1050 q 338 1082 333 1074 q 354 1104 342 1090 l 442 1204 q 479 1235 460 1225 q 526 1244 499 1244 l 549 1244 q 595 1235 575 1244 q 633 1204 615 1225 l 721 1104 z "},"Ģ":{"ha":967,"x_min":56,"x_max":904,"o":"m 821 525 q 881 501 857 525 q 904 440 904 476 l 904 146 q 861 71 904 97 q 563 -14 725 -14 q 308 53 425 -14 q 124 235 192 121 q 56 486 56 350 q 124 737 56 622 q 308 919 192 851 q 563 986 425 986 q 801 931 700 986 q 833 901 822 919 q 843 863 843 883 q 820 802 843 828 q 764 776 797 776 q 718 788 743 776 q 563 819 643 819 q 399 774 474 819 q 280 653 324 729 q 236 486 236 576 q 280 319 236 396 q 399 198 324 243 q 563 153 474 153 q 646 160 601 153 q 724 178 690 167 l 724 358 l 593 358 q 533 382 557 358 q 508 442 508 406 q 533 501 508 478 q 593 525 557 525 l 821 525 m 675 -144 q 656 -206 675 -175 q 603 -256 636 -236 q 533 -275 571 -275 q 484 -261 501 -275 q 467 -231 467 -247 q 476 -206 467 -214 q 496 -199 485 -199 q 516 -202 503 -199 q 538 -206 529 -206 q 563 -195 553 -206 q 572 -167 572 -185 q 558 -149 572 -149 q 544 -155 553 -149 q 521 -161 536 -161 q 485 -146 499 -161 q 471 -104 471 -131 q 497 -56 471 -72 q 565 -39 522 -39 q 644 -67 614 -39 q 675 -144 675 -96 z "},"Ġ":{"ha":967,"x_min":56,"x_max":904,"o":"m 821 525 q 881 501 857 525 q 904 440 904 476 l 904 146 q 861 71 904 97 q 563 -14 725 -14 q 308 53 425 -14 q 124 235 192 121 q 56 486 56 350 q 124 737 56 622 q 308 919 192 851 q 563 986 425 986 q 801 931 700 986 q 833 901 822 919 q 843 863 843 883 q 820 802 843 828 q 764 776 797 776 q 718 788 743 776 q 563 819 643 819 q 399 774 474 819 q 280 653 324 729 q 236 486 236 576 q 280 319 236 396 q 399 198 324 243 q 563 153 474 153 q 646 160 601 153 q 724 178 690 167 l 724 358 l 593 358 q 533 382 557 358 q 508 442 508 406 q 533 501 508 478 q 593 525 557 525 l 821 525 m 536 1028 q 471 1043 490 1028 q 451 1097 451 1058 l 451 1124 q 472 1178 451 1163 q 538 1193 492 1193 q 607 1178 588 1193 q 626 1124 626 1163 l 626 1097 q 606 1042 626 1057 q 536 1028 585 1028 z "},"Ḡ":{"ha":967,"x_min":56,"x_max":904,"o":"m 821 525 q 881 501 857 525 q 904 440 904 476 l 904 146 q 861 71 904 97 q 563 -14 725 -14 q 308 53 425 -14 q 124 235 192 121 q 56 486 56 350 q 124 737 56 622 q 308 919 192 851 q 563 986 425 986 q 801 931 700 986 q 833 901 822 919 q 843 863 843 883 q 820 802 843 828 q 764 776 797 776 q 718 788 743 776 q 563 819 643 819 q 399 774 474 819 q 280 653 324 729 q 236 486 236 576 q 280 319 236 396 q 399 198 324 243 q 563 153 474 153 q 646 160 601 153 q 724 178 690 167 l 724 358 l 593 358 q 533 382 557 358 q 508 442 508 406 q 533 501 508 478 q 593 525 557 525 l 821 525 m 371 1042 q 319 1058 338 1042 q 301 1104 301 1074 q 319 1149 301 1133 q 371 1165 338 1165 l 707 1165 q 758 1149 740 1165 q 776 1104 776 1133 q 707 1042 776 1042 l 371 1042 z "},"H":{"ha":999,"x_min":104,"x_max":894,"o":"m 808 972 q 871 949 847 972 q 894 888 894 925 l 894 85 q 869 24 894 49 q 806 0 844 0 q 746 24 771 0 q 721 85 721 49 l 721 408 l 278 408 l 278 85 q 251 24 278 49 q 190 0 225 0 q 128 24 153 0 q 104 85 104 49 l 104 888 q 129 948 104 924 q 193 972 154 972 q 253 948 228 972 q 278 888 278 924 l 278 568 l 721 568 l 721 888 q 747 948 721 924 q 808 972 774 972 z "},"Ħ":{"ha":1118,"x_min":56,"x_max":1063,"o":"m 992 819 q 1043 800 1024 819 q 1063 749 1063 781 q 1042 700 1063 719 q 992 681 1022 681 l 954 681 l 954 85 q 929 24 954 49 q 865 0 904 0 q 806 24 831 0 q 781 85 781 49 l 781 408 l 338 408 l 338 85 q 311 24 338 49 q 250 0 285 0 q 188 24 213 0 q 164 85 164 49 l 164 681 l 126 681 q 76 701 96 681 q 56 751 56 721 q 76 800 56 781 q 126 819 96 819 l 164 819 l 164 888 q 189 948 164 924 q 253 972 214 972 q 313 948 288 972 q 338 888 338 924 l 338 819 l 781 819 l 781 888 q 807 948 781 924 q 868 972 833 972 q 931 949 907 972 q 954 888 954 925 l 954 819 l 992 819 m 781 568 l 781 681 l 338 681 l 338 568 l 781 568 z "},"Ḫ":{"ha":999,"x_min":104,"x_max":894,"o":"m 808 972 q 871 949 847 972 q 894 888 894 925 l 894 85 q 869 24 894 49 q 806 0 844 0 q 746 24 771 0 q 721 85 721 49 l 721 408 l 278 408 l 278 85 q 251 24 278 49 q 190 0 225 0 q 128 24 153 0 q 104 85 104 49 l 104 888 q 129 948 104 924 q 193 972 154 972 q 253 948 228 972 q 278 888 278 924 l 278 568 l 721 568 l 721 888 q 747 948 721 924 q 808 972 774 972 m 500 -260 q 363 -226 421 -260 q 281 -131 306 -193 q 274 -100 274 -112 q 287 -67 274 -79 q 321 -54 300 -54 q 366 -66 349 -54 q 404 -104 383 -78 q 500 -142 438 -142 q 596 -104 563 -142 q 634 -66 617 -78 q 679 -54 651 -54 q 713 -66 700 -54 q 726 -99 726 -78 q 721 -128 726 -112 q 637 -226 694 -192 q 500 -260 579 -260 z "},"Ĥ":{"ha":999,"x_min":104,"x_max":894,"o":"m 808 972 q 871 949 847 972 q 894 888 894 925 l 894 85 q 869 24 894 49 q 806 0 844 0 q 746 24 771 0 q 721 85 721 49 l 721 408 l 278 408 l 278 85 q 251 24 278 49 q 190 0 225 0 q 128 24 153 0 q 104 85 104 49 l 104 888 q 129 948 104 924 q 193 972 154 972 q 253 948 228 972 q 278 888 278 924 l 278 568 l 721 568 l 721 888 q 747 948 721 924 q 808 972 774 972 m 682 1104 q 699 1082 694 1090 q 703 1063 703 1074 q 690 1039 703 1050 q 660 1028 678 1028 q 632 1035 647 1028 q 589 1058 617 1042 l 499 1111 l 408 1058 q 368 1037 386 1046 q 338 1028 350 1028 q 307 1039 319 1028 q 294 1063 294 1050 q 299 1082 294 1074 q 315 1104 303 1090 l 403 1204 q 440 1235 421 1225 q 488 1244 460 1244 l 510 1244 q 556 1235 536 1244 q 594 1204 576 1225 l 682 1104 z "},"Ḥ":{"ha":999,"x_min":104,"x_max":894,"o":"m 808 972 q 871 949 847 972 q 894 888 894 925 l 894 85 q 869 24 894 49 q 806 0 844 0 q 746 24 771 0 q 721 85 721 49 l 721 408 l 278 408 l 278 85 q 251 24 278 49 q 190 0 225 0 q 128 24 153 0 q 104 85 104 49 l 104 888 q 129 948 104 924 q 193 972 154 972 q 253 948 228 972 q 278 888 278 924 l 278 568 l 721 568 l 721 888 q 747 948 721 924 q 808 972 774 972 m 497 -204 q 432 -189 451 -204 q 413 -135 413 -174 l 413 -108 q 433 -54 413 -69 q 497 -39 454 -39 q 568 -54 549 -39 q 588 -108 588 -69 l 588 -135 q 567 -190 588 -175 q 497 -204 546 -204 z "},"I":{"ha":382,"x_min":104,"x_max":278,"o":"m 278 85 q 251 24 278 49 q 190 0 225 0 q 128 24 153 0 q 104 85 104 49 l 104 888 q 129 948 104 924 q 193 972 154 972 q 253 948 228 972 q 278 888 278 924 l 278 85 z "},"Ĳ":{"ha":815,"x_min":104,"x_max":711,"o":"m 379 -14 q 232 19 300 -14 q 121 110 164 51 q 104 158 104 135 q 131 216 104 192 q 185 240 157 240 q 263 199 221 240 q 317 163 289 174 q 379 153 344 153 q 456 174 419 153 q 515 230 493 194 q 538 304 538 265 l 538 888 q 564 948 538 924 q 625 972 590 972 q 688 949 664 972 q 711 888 711 925 l 711 304 q 667 147 711 221 q 546 30 622 74 q 379 -14 469 -14 m 286 438 q 260 377 286 401 q 199 353 233 353 q 137 377 161 353 q 113 438 113 401 l 113 888 q 138 948 113 924 q 201 972 163 972 q 261 948 236 972 q 286 888 286 924 l 286 438 z "},"Í":{"ha":382,"x_min":104,"x_max":418,"o":"m 278 85 q 251 24 278 49 q 190 0 225 0 q 128 24 153 0 q 104 85 104 49 l 104 888 q 129 948 104 924 q 193 972 154 972 q 253 948 228 972 q 278 888 278 924 l 278 85 m 196 1025 q 153 1039 169 1025 q 138 1075 138 1053 q 157 1113 138 1094 l 276 1218 q 344 1249 313 1249 q 394 1229 371 1249 q 418 1181 418 1210 q 405 1140 418 1160 q 367 1107 392 1119 l 228 1033 q 196 1025 214 1025 z "},"Ĭ":{"ha":382,"x_min":-32,"x_max":421,"o":"m 278 85 q 251 24 278 49 q 190 0 225 0 q 128 24 153 0 q 104 85 104 49 l 104 888 q 129 948 104 924 q 193 972 154 972 q 253 948 228 972 q 278 888 278 924 l 278 85 m 194 1053 q 59 1087 117 1053 q -25 1182 1 1121 q -32 1213 -32 1200 q -19 1246 -32 1233 q 15 1258 -6 1258 q 58 1247 42 1258 q 99 1208 75 1236 q 194 1171 132 1171 q 290 1208 261 1171 q 328 1247 311 1235 q 374 1258 346 1258 q 408 1247 394 1258 q 421 1214 421 1235 q 415 1185 421 1200 q 331 1087 389 1121 q 194 1053 274 1053 z "},"Ǐ":{"ha":382,"x_min":-8,"x_max":400,"o":"m 278 85 q 251 24 278 49 q 190 0 225 0 q 128 24 153 0 q 104 85 104 49 l 104 888 q 129 948 104 924 q 193 972 154 972 q 253 948 228 972 q 278 888 278 924 l 278 85 m 357 1244 q 388 1233 375 1244 q 400 1210 400 1222 q 396 1192 400 1200 q 379 1168 392 1183 l 292 1068 q 253 1038 274 1047 q 207 1028 233 1028 l 185 1028 q 138 1038 157 1028 q 100 1068 118 1047 l 13 1168 q -4 1192 0 1183 q -8 1210 -8 1200 q 4 1233 -8 1222 q 35 1244 17 1244 q 106 1217 63 1244 l 196 1158 l 286 1217 q 357 1244 329 1244 z "},"Î":{"ha":382,"x_min":-11,"x_max":397,"o":"m 278 85 q 251 24 278 49 q 190 0 225 0 q 128 24 153 0 q 104 85 104 49 l 104 888 q 129 948 104 924 q 193 972 154 972 q 253 948 228 972 q 278 888 278 924 l 278 85 m 376 1104 q 393 1082 389 1090 q 397 1063 397 1074 q 385 1039 397 1050 q 354 1028 372 1028 q 326 1035 342 1028 q 283 1058 311 1042 l 193 1111 l 103 1058 q 63 1037 81 1046 q 32 1028 44 1028 q 1 1039 14 1028 q -11 1063 -11 1050 q -7 1082 -11 1074 q 10 1104 -3 1090 l 97 1204 q 135 1235 115 1225 q 182 1244 154 1244 l 204 1244 q 251 1235 231 1244 q 289 1204 271 1225 l 376 1104 z "},"Ȉ":{"ha":382,"x_min":-167,"x_max":400,"o":"m 278 85 q 251 24 278 49 q 190 0 225 0 q 128 24 153 0 q 104 85 104 49 l 104 888 q 129 948 104 924 q 193 972 154 972 q 253 948 228 972 q 278 888 278 924 l 278 85 m 342 1058 q 310 1067 326 1058 l 171 1140 q 133 1174 146 1154 q 119 1214 119 1193 q 143 1263 119 1243 q 193 1282 167 1282 q 261 1251 225 1282 l 381 1146 q 400 1108 400 1128 q 384 1072 400 1086 q 342 1058 368 1058 m 56 1044 q 24 1053 40 1044 l -115 1126 q -153 1160 -140 1140 q -167 1200 -167 1179 q -143 1249 -167 1229 q -93 1268 -119 1268 q -25 1238 -61 1268 l 94 1132 q 114 1094 114 1114 q 98 1058 114 1072 q 56 1044 82 1044 z "},"Ï":{"ha":382,"x_min":-29,"x_max":418,"o":"m 278 85 q 251 24 278 49 q 190 0 225 0 q 128 24 153 0 q 104 85 104 49 l 104 888 q 129 948 104 924 q 193 972 154 972 q 253 948 228 972 q 278 888 278 924 l 278 85 m 54 1056 q -10 1072 10 1056 q -29 1125 -29 1088 l -29 1150 q -8 1204 -29 1189 q 56 1219 13 1219 q 122 1203 101 1219 q 142 1150 142 1188 l 142 1125 q 122 1071 142 1086 q 54 1056 101 1056 m 331 1056 q 267 1072 286 1056 q 247 1125 247 1088 l 247 1150 q 267 1204 247 1189 q 331 1219 288 1219 q 398 1204 378 1219 q 418 1150 418 1189 l 418 1125 q 398 1071 418 1086 q 331 1056 378 1056 z "},"Ḯ":{"ha":382,"x_min":-29,"x_max":418,"o":"m 278 85 q 251 24 278 49 q 190 0 225 0 q 128 24 153 0 q 104 85 104 49 l 104 888 q 129 948 104 924 q 193 972 154 972 q 253 948 228 972 q 278 888 278 924 l 278 85 m 54 1056 q -10 1072 10 1056 q -29 1125 -29 1088 l -29 1150 q -8 1204 -29 1189 q 56 1219 13 1219 q 122 1203 101 1219 q 142 1150 142 1188 l 142 1125 q 122 1071 142 1086 q 54 1056 101 1056 m 331 1056 q 267 1072 286 1056 q 247 1125 247 1088 l 247 1150 q 267 1204 247 1189 q 331 1219 288 1219 q 398 1204 378 1219 q 418 1150 418 1189 l 418 1125 q 398 1071 418 1086 q 331 1056 378 1056 m 196 1300 q 153 1314 169 1300 q 138 1350 138 1328 q 157 1388 138 1369 l 276 1493 q 344 1524 313 1524 q 394 1504 371 1524 q 418 1456 418 1485 q 405 1415 418 1435 q 367 1382 392 1394 l 228 1308 q 196 1300 214 1300 z "},"İ":{"ha":382,"x_min":104,"x_max":282,"o":"m 278 85 q 251 24 278 49 q 190 0 225 0 q 128 24 153 0 q 104 85 104 49 l 104 888 q 129 948 104 924 q 193 972 154 972 q 253 948 228 972 q 278 888 278 924 l 278 85 m 192 1028 q 126 1043 146 1028 q 107 1097 107 1058 l 107 1124 q 127 1178 107 1163 q 193 1193 147 1193 q 263 1178 243 1193 q 282 1124 282 1163 l 282 1097 q 261 1042 282 1057 q 192 1028 240 1028 z "},"Ị":{"ha":382,"x_min":104,"x_max":282,"o":"m 278 85 q 251 24 278 49 q 190 0 225 0 q 128 24 153 0 q 104 85 104 49 l 104 888 q 129 948 104 924 q 193 972 154 972 q 253 948 228 972 q 278 888 278 924 l 278 85 m 192 -204 q 126 -189 146 -204 q 107 -135 107 -174 l 107 -108 q 128 -54 107 -69 q 192 -39 149 -39 q 263 -54 243 -39 q 282 -108 282 -69 l 282 -135 q 261 -190 282 -175 q 192 -204 240 -204 z "},"Ì":{"ha":382,"x_min":-31,"x_max":278,"o":"m 278 85 q 251 24 278 49 q 190 0 225 0 q 128 24 153 0 q 104 85 104 49 l 104 888 q 129 948 104 924 q 193 972 154 972 q 253 948 228 972 q 278 888 278 924 l 278 85 m 192 1031 q 160 1039 176 1031 l 21 1113 q -17 1146 -4 1126 q -31 1186 -31 1165 q -7 1235 -31 1215 q 43 1254 17 1254 q 111 1224 75 1254 l 231 1118 q 250 1081 250 1100 q 234 1044 250 1058 q 192 1031 218 1031 z "},"Ỉ":{"ha":382,"x_min":38,"x_max":313,"o":"m 278 85 q 251 24 278 49 q 190 0 225 0 q 128 24 153 0 q 104 85 104 49 l 104 888 q 129 948 104 924 q 193 972 154 972 q 253 948 228 972 q 278 888 278 924 l 278 85 m 60 1289 q 110 1319 85 1308 q 169 1329 135 1329 q 280 1292 247 1329 q 313 1208 313 1256 q 306 1169 313 1186 q 286 1133 300 1151 q 273 1117 283 1129 q 258 1096 263 1104 q 253 1081 253 1088 q 238 1056 253 1064 q 197 1049 222 1049 q 170 1056 182 1049 q 158 1081 158 1064 q 181 1135 158 1106 q 213 1194 213 1178 q 199 1222 213 1211 q 165 1232 185 1232 q 138 1226 150 1232 q 107 1208 125 1219 q 85 1200 93 1200 q 50 1218 68 1200 q 38 1247 38 1231 q 60 1289 38 1269 z "},"Ȋ":{"ha":382,"x_min":-32,"x_max":421,"o":"m 278 85 q 251 24 278 49 q 190 0 225 0 q 128 24 153 0 q 104 85 104 49 l 104 888 q 129 948 104 924 q 193 972 154 972 q 253 948 228 972 q 278 888 278 924 l 278 85 m 194 1289 q 331 1256 274 1289 q 414 1160 389 1222 q 421 1129 421 1142 q 408 1096 421 1108 q 374 1083 394 1083 q 328 1095 346 1083 q 290 1133 311 1107 q 194 1171 257 1171 q 99 1133 132 1171 q 60 1095 78 1107 q 15 1083 43 1083 q -19 1095 -6 1083 q -32 1128 -32 1107 q -26 1157 -32 1142 q 58 1255 0 1221 q 194 1289 115 1289 z "},"Ī":{"ha":382,"x_min":-43,"x_max":432,"o":"m 278 85 q 251 24 278 49 q 190 0 225 0 q 128 24 153 0 q 104 85 104 49 l 104 888 q 129 948 104 924 q 193 972 154 972 q 253 948 228 972 q 278 888 278 924 l 278 85 m 26 1042 q -25 1058 -7 1042 q -43 1104 -43 1074 q -25 1149 -43 1133 q 26 1165 -7 1165 l 363 1165 q 414 1149 396 1165 q 432 1104 432 1133 q 363 1042 432 1042 l 26 1042 z "},"Į":{"ha":389,"x_min":-36,"x_max":292,"o":"m 231 -117 q 274 -135 257 -117 q 292 -183 292 -153 q 269 -231 292 -206 q 208 -272 246 -256 q 131 -287 171 -287 q 10 -250 57 -287 q -36 -139 -36 -212 q 2 -24 -36 -69 q 104 50 40 21 l 104 888 q 131 948 104 924 q 196 972 157 972 q 260 948 235 972 q 285 888 285 924 l 285 49 q 249 -3 285 7 q 142 -49 182 -22 q 101 -108 101 -75 q 114 -145 101 -132 q 144 -158 126 -158 q 174 -142 161 -158 q 231 -117 192 -117 z "},"Ĩ":{"ha":382,"x_min":-69,"x_max":458,"o":"m 278 85 q 251 24 278 49 q 190 0 225 0 q 128 24 153 0 q 104 85 104 49 l 104 888 q 129 948 104 924 q 193 972 154 972 q 253 948 228 972 q 278 888 278 924 l 278 85 m 7 1022 q -47 1049 -25 1022 q -69 1121 -69 1076 q -28 1206 -69 1168 q 85 1243 14 1243 q 153 1229 121 1243 q 228 1190 185 1215 q 274 1165 257 1174 q 306 1157 292 1157 q 329 1165 321 1157 q 333 1186 338 1174 q 331 1206 331 1193 q 345 1241 331 1228 q 382 1254 360 1254 q 436 1227 414 1254 q 458 1158 458 1200 q 443 1103 458 1132 q 398 1053 428 1074 q 326 1033 368 1033 q 251 1047 286 1033 q 164 1088 217 1061 q 115 1112 133 1104 q 83 1119 97 1119 q 60 1111 68 1119 q 56 1090 51 1103 q 58 1071 58 1083 q 44 1035 58 1049 q 7 1022 29 1022 z "},"J":{"ha":767,"x_min":56,"x_max":663,"o":"m 331 -14 q 183 19 251 -14 q 72 110 115 51 q 56 158 56 135 q 82 216 56 192 q 136 240 108 240 q 214 199 172 240 q 268 163 240 174 q 331 153 296 153 q 408 174 371 153 q 467 230 444 194 q 489 304 489 265 l 489 888 q 515 948 489 924 q 576 972 542 972 q 639 949 615 972 q 663 888 663 925 l 663 304 q 618 147 663 221 q 497 30 574 74 q 331 -14 421 -14 z "},"Ĵ":{"ha":767,"x_min":56,"x_max":779,"o":"m 331 -14 q 183 19 251 -14 q 72 110 115 51 q 56 158 56 135 q 82 216 56 192 q 136 240 108 240 q 214 199 172 240 q 268 163 240 174 q 331 153 296 153 q 408 174 371 153 q 467 230 444 194 q 489 304 489 265 l 489 888 q 515 948 489 924 q 576 972 542 972 q 639 949 615 972 q 663 888 663 925 l 663 304 q 618 147 663 221 q 497 30 574 74 q 331 -14 421 -14 m 758 1104 q 775 1082 771 1090 q 779 1063 779 1074 q 767 1039 779 1050 q 736 1028 754 1028 q 708 1035 724 1028 q 665 1058 693 1042 l 575 1111 l 485 1058 q 444 1037 463 1046 q 414 1028 426 1028 q 383 1039 396 1028 q 371 1063 371 1050 q 375 1082 371 1074 q 392 1104 379 1090 l 479 1204 q 517 1235 497 1225 q 564 1244 536 1244 l 586 1244 q 633 1235 613 1244 q 671 1204 653 1225 l 758 1104 z "},"K":{"ha":910,"x_min":104,"x_max":868,"o":"m 849 144 q 863 117 857 133 q 868 88 868 101 q 840 25 868 50 q 774 0 811 0 q 739 8 756 0 q 711 32 722 17 l 410 429 l 278 303 l 278 85 q 253 24 278 47 q 190 0 229 0 q 128 24 153 0 q 104 85 104 49 l 104 888 q 129 948 104 924 q 193 972 154 972 q 254 949 231 972 q 278 888 278 925 l 278 510 l 722 947 q 790 979 754 979 q 844 953 822 979 q 867 897 867 926 q 842 843 867 868 l 539 554 l 849 144 z "},"Ķ":{"ha":910,"x_min":104,"x_max":868,"o":"m 849 144 q 863 117 857 133 q 868 88 868 101 q 840 25 868 50 q 774 0 811 0 q 739 8 756 0 q 711 32 722 17 l 410 429 l 278 303 l 278 85 q 253 24 278 47 q 190 0 229 0 q 128 24 153 0 q 104 85 104 49 l 104 888 q 129 948 104 924 q 193 972 154 972 q 254 949 231 972 q 278 888 278 925 l 278 510 l 722 947 q 790 979 754 979 q 844 953 822 979 q 867 897 867 926 q 842 843 867 868 l 539 554 l 849 144 m 572 -144 q 553 -206 572 -175 q 501 -256 533 -236 q 431 -275 468 -275 q 381 -261 399 -275 q 364 -231 364 -247 q 373 -206 364 -214 q 393 -199 382 -199 q 413 -202 400 -199 q 435 -206 426 -206 q 460 -195 450 -206 q 469 -167 469 -185 q 456 -149 469 -149 q 442 -155 450 -149 q 418 -161 433 -161 q 382 -146 396 -161 q 368 -104 368 -131 q 394 -56 368 -72 q 463 -39 419 -39 q 542 -67 511 -39 q 572 -144 572 -96 z "},"L":{"ha":781,"x_min":104,"x_max":725,"o":"m 640 163 q 701 140 676 163 q 725 81 725 117 q 701 23 725 46 q 640 0 676 0 l 189 0 q 128 24 153 0 q 104 85 104 49 l 104 888 q 129 948 104 924 q 193 972 154 972 q 253 948 228 972 q 278 888 278 924 l 278 163 l 640 163 z "},"Ǉ":{"ha":1547,"x_min":104,"x_max":1443,"o":"m 640 163 q 701 140 676 163 q 725 81 725 117 q 701 23 725 46 q 640 0 676 0 l 189 0 q 128 24 153 0 q 104 85 104 49 l 104 888 q 129 948 104 924 q 193 972 154 972 q 253 948 228 972 q 278 888 278 924 l 278 163 l 640 163 m 1111 -14 q 964 19 1032 -14 q 853 110 896 51 q 836 158 836 135 q 863 216 836 192 q 917 240 889 240 q 994 199 953 240 q 1049 163 1021 174 q 1111 153 1076 153 q 1188 174 1151 153 q 1247 230 1225 194 q 1269 304 1269 265 l 1269 888 q 1296 948 1269 924 q 1357 972 1322 972 q 1419 949 1396 972 q 1443 888 1443 925 l 1443 304 q 1399 147 1443 221 q 1278 30 1354 74 q 1111 -14 1201 -14 z "},"Ĺ":{"ha":781,"x_min":104,"x_max":725,"o":"m 640 163 q 701 140 676 163 q 725 81 725 117 q 701 23 725 46 q 640 0 676 0 l 189 0 q 128 24 153 0 q 104 85 104 49 l 104 888 q 129 948 104 924 q 193 972 154 972 q 253 948 228 972 q 278 888 278 924 l 278 163 l 640 163 m 183 1025 q 141 1039 157 1025 q 125 1075 125 1053 q 144 1113 125 1094 l 264 1218 q 332 1249 300 1249 q 382 1229 358 1249 q 406 1181 406 1210 q 392 1140 406 1160 q 354 1107 379 1119 l 215 1033 q 183 1025 201 1025 z "},"Ľ":{"ha":781,"x_min":104,"x_max":725,"o":"m 640 167 q 701 142 676 167 q 725 82 725 118 q 701 24 725 47 q 640 0 676 0 l 189 0 q 128 24 153 0 q 104 85 104 49 l 104 888 q 128 948 104 924 q 189 972 153 972 q 247 948 224 972 q 271 888 271 924 l 271 181 q 285 167 271 167 l 640 167 m 722 801 q 699 721 722 769 q 638 636 675 672 q 560 600 600 600 q 511 613 529 600 q 493 656 493 626 q 504 687 493 678 q 528 700 515 696 q 547 707 542 704 q 586 763 586 728 q 572 790 586 778 q 533 801 557 801 q 494 792 510 801 q 469 810 478 799 q 460 843 460 821 q 481 895 460 871 q 532 934 501 919 q 592 949 563 949 q 688 910 653 949 q 722 801 722 872 z "},"Ļ":{"ha":781,"x_min":104,"x_max":725,"o":"m 640 163 q 701 140 676 163 q 725 81 725 117 q 701 23 725 46 q 640 0 676 0 l 189 0 q 128 24 153 0 q 104 85 104 49 l 104 888 q 129 948 104 924 q 193 972 154 972 q 253 948 228 972 q 278 888 278 924 l 278 163 l 640 163 m 507 -144 q 488 -206 507 -175 q 435 -256 468 -236 q 365 -275 403 -275 q 316 -261 333 -275 q 299 -231 299 -247 q 308 -206 299 -214 q 328 -199 317 -199 q 348 -202 335 -199 q 369 -206 361 -206 q 394 -195 385 -206 q 404 -167 404 -185 q 390 -149 404 -149 q 376 -155 385 -149 q 353 -161 368 -161 q 317 -146 331 -161 q 303 -104 303 -131 q 328 -56 303 -72 q 397 -39 354 -39 q 476 -67 446 -39 q 507 -144 507 -96 z "},"Ŀ":{"ha":753,"x_min":104,"x_max":725,"o":"m 640 163 q 701 140 676 163 q 725 81 725 117 q 701 23 725 46 q 640 0 676 0 l 189 0 q 128 24 153 0 q 104 85 104 49 l 104 888 q 129 948 104 924 q 193 972 154 972 q 253 948 228 972 q 278 888 278 924 l 278 163 l 640 163 m 544 456 q 483 477 504 456 q 461 539 461 499 l 461 563 q 483 624 461 603 q 544 646 504 646 l 563 646 q 624 624 603 646 q 646 563 646 603 l 646 539 q 624 477 646 499 q 563 456 603 456 l 544 456 z "},"Ḷ":{"ha":781,"x_min":104,"x_max":725,"o":"m 640 163 q 701 140 676 163 q 725 81 725 117 q 701 23 725 46 q 640 0 676 0 l 189 0 q 128 24 153 0 q 104 85 104 49 l 104 888 q 129 948 104 924 q 193 972 154 972 q 253 948 228 972 q 278 888 278 924 l 278 163 l 640 163 m 388 -204 q 322 -189 342 -204 q 303 -135 303 -174 l 303 -108 q 324 -54 303 -69 q 388 -39 344 -39 q 458 -54 439 -39 q 478 -108 478 -69 l 478 -135 q 457 -190 478 -175 q 388 -204 436 -204 z "},"ǈ":{"ha":1163,"x_min":104,"x_max":1061,"o":"m 640 163 q 701 140 676 163 q 725 81 725 117 q 701 23 725 46 q 640 0 676 0 l 189 0 q 128 24 153 0 q 104 85 104 49 l 104 888 q 129 948 104 924 q 193 972 154 972 q 253 948 228 972 q 278 888 278 924 l 278 163 l 640 163 m 831 -272 q 775 -250 797 -272 q 753 -194 753 -228 l 753 -179 q 824 -103 753 -124 q 880 -56 868 -89 q 892 35 892 -24 l 892 658 q 915 719 892 694 q 975 743 939 743 q 1035 719 1011 743 q 1058 658 1058 694 l 1058 -14 q 1028 -150 1058 -92 q 947 -240 999 -208 q 831 -272 894 -272 m 972 833 q 906 849 925 833 q 886 903 886 864 l 886 929 q 907 983 886 968 q 974 999 928 999 q 1042 983 1022 999 q 1061 929 1061 968 l 1061 903 q 1041 848 1061 863 q 972 833 1021 833 z "},"Ḻ":{"ha":781,"x_min":104,"x_max":725,"o":"m 640 163 q 701 140 676 163 q 725 81 725 117 q 701 23 725 46 q 640 0 676 0 l 189 0 q 128 24 153 0 q 104 85 104 49 l 104 888 q 129 948 104 924 q 193 972 154 972 q 253 948 228 972 q 278 888 278 924 l 278 163 l 640 163 m 236 -211 q 185 -195 203 -211 q 167 -149 167 -179 q 185 -103 167 -119 q 236 -87 203 -87 l 572 -87 q 624 -103 606 -87 q 642 -149 642 -119 q 572 -211 642 -211 l 236 -211 z "},"Ł":{"ha":879,"x_min":49,"x_max":824,"o":"m 739 167 q 799 142 775 167 q 824 82 824 118 q 799 24 824 47 q 739 0 775 0 l 288 0 q 227 24 251 0 q 203 85 203 49 l 203 406 l 149 382 q 119 375 132 375 q 67 399 86 375 q 49 449 49 422 q 60 484 49 468 q 93 510 72 500 l 203 558 l 203 888 q 227 948 203 924 q 288 972 251 972 q 346 948 322 972 q 369 888 369 924 l 369 632 l 501 690 q 532 697 518 697 q 583 674 564 697 q 601 625 601 650 q 590 589 601 606 q 557 563 578 572 l 369 479 l 369 167 l 739 167 z "},"M":{"ha":1138,"x_min":104,"x_max":1033,"o":"m 947 974 q 1008 949 982 974 q 1033 889 1033 925 l 1033 85 q 1010 24 1033 49 q 947 0 986 0 q 884 24 908 0 q 860 85 860 47 l 860 644 l 631 294 q 599 267 617 278 q 561 258 581 257 q 525 267 543 257 q 493 294 507 278 l 264 657 l 264 85 q 242 24 264 47 q 183 0 219 0 q 126 24 149 0 q 104 85 104 49 l 104 889 q 130 949 104 924 q 192 974 156 974 q 233 963 213 974 q 265 936 254 953 l 568 471 l 879 936 q 909 963 890 953 q 947 974 928 974 z "},"Ṃ":{"ha":1138,"x_min":104,"x_max":1033,"o":"m 947 974 q 1008 949 982 974 q 1033 889 1033 925 l 1033 85 q 1010 24 1033 49 q 947 0 986 0 q 884 24 908 0 q 860 85 860 47 l 860 644 l 631 294 q 599 267 617 278 q 561 258 581 257 q 525 267 543 257 q 493 294 507 278 l 264 657 l 264 85 q 242 24 264 47 q 183 0 219 0 q 126 24 149 0 q 104 85 104 49 l 104 889 q 130 949 104 924 q 192 974 156 974 q 233 963 213 974 q 265 936 254 953 l 568 471 l 879 936 q 909 963 890 953 q 947 974 928 974 m 567 -204 q 501 -189 521 -204 q 482 -135 482 -174 l 482 -108 q 503 -54 482 -69 q 567 -39 524 -39 q 638 -54 618 -39 q 657 -108 657 -69 l 657 -135 q 636 -190 657 -175 q 567 -204 615 -204 z "},"N":{"ha":1021,"x_min":104,"x_max":917,"o":"m 842 972 q 896 950 875 972 q 917 894 917 928 l 917 85 q 892 24 917 49 q 832 0 868 0 q 794 6 813 0 q 767 24 775 13 l 257 671 l 257 78 q 235 22 257 44 q 179 0 214 0 q 125 22 146 0 q 104 78 104 44 l 104 888 q 128 948 104 924 q 189 972 153 972 q 230 964 210 972 q 260 942 250 956 l 765 297 l 765 894 q 787 950 765 928 q 842 972 808 972 z "},"Ǌ":{"ha":1788,"x_min":104,"x_max":1683,"o":"m 842 972 q 896 950 875 972 q 917 894 917 928 l 917 85 q 892 24 917 49 q 832 0 868 0 q 794 6 813 0 q 767 24 775 13 l 257 671 l 257 78 q 235 22 257 44 q 179 0 214 0 q 125 22 146 0 q 104 78 104 44 l 104 888 q 128 948 104 924 q 189 972 153 972 q 230 964 210 972 q 260 942 250 956 l 765 297 l 765 894 q 787 950 765 928 q 842 972 808 972 m 1351 -14 q 1204 19 1272 -14 q 1093 110 1136 51 q 1076 158 1076 135 q 1103 216 1076 192 q 1157 240 1129 240 q 1235 199 1193 240 q 1289 163 1261 174 q 1351 153 1317 153 q 1428 174 1392 153 q 1488 230 1465 194 q 1510 304 1510 265 l 1510 888 q 1536 948 1510 924 q 1597 972 1563 972 q 1660 949 1636 972 q 1683 888 1683 925 l 1683 304 q 1639 147 1683 221 q 1518 30 1594 74 q 1351 -14 1442 -14 z "},"Ń":{"ha":1021,"x_min":104,"x_max":917,"o":"m 842 972 q 896 950 875 972 q 917 894 917 928 l 917 85 q 892 24 917 49 q 832 0 868 0 q 794 6 813 0 q 767 24 775 13 l 257 671 l 257 78 q 235 22 257 44 q 179 0 214 0 q 125 22 146 0 q 104 78 104 44 l 104 888 q 128 948 104 924 q 189 972 153 972 q 230 964 210 972 q 260 942 250 956 l 765 297 l 765 894 q 787 950 765 928 q 842 972 808 972 m 513 1025 q 470 1039 486 1025 q 454 1075 454 1053 q 474 1113 454 1094 l 593 1218 q 661 1249 629 1249 q 711 1229 688 1249 q 735 1181 735 1210 q 722 1140 735 1160 q 683 1107 708 1119 l 544 1033 q 513 1025 531 1025 z "},"Ň":{"ha":1021,"x_min":104,"x_max":917,"o":"m 842 972 q 896 950 875 972 q 917 894 917 928 l 917 85 q 892 24 917 49 q 832 0 868 0 q 794 6 813 0 q 767 24 775 13 l 257 671 l 257 78 q 235 22 257 44 q 179 0 214 0 q 125 22 146 0 q 104 78 104 44 l 104 888 q 128 948 104 924 q 189 972 153 972 q 230 964 210 972 q 260 942 250 956 l 765 297 l 765 894 q 787 950 765 928 q 842 972 808 972 m 674 1244 q 704 1233 692 1244 q 717 1210 717 1222 q 713 1192 717 1200 q 696 1168 708 1183 l 608 1068 q 570 1038 590 1047 q 524 1028 550 1028 l 501 1028 q 454 1038 474 1028 q 417 1068 435 1047 l 329 1168 q 313 1192 317 1183 q 308 1210 308 1200 q 321 1233 308 1222 q 351 1244 333 1244 q 422 1217 379 1244 l 513 1158 l 603 1217 q 674 1244 646 1244 z "},"Ņ":{"ha":1021,"x_min":104,"x_max":917,"o":"m 842 972 q 896 950 875 972 q 917 894 917 928 l 917 85 q 892 24 917 49 q 832 0 868 0 q 794 6 813 0 q 767 24 775 13 l 257 671 l 257 78 q 235 22 257 44 q 179 0 214 0 q 125 22 146 0 q 104 78 104 44 l 104 888 q 128 948 104 924 q 189 972 153 972 q 230 964 210 972 q 260 942 250 956 l 765 297 l 765 894 q 787 950 765 928 q 842 972 808 972 m 628 -144 q 608 -206 628 -175 q 556 -256 589 -236 q 486 -275 524 -275 q 437 -261 454 -275 q 419 -231 419 -247 q 428 -206 419 -214 q 449 -199 438 -199 q 469 -202 456 -199 q 490 -206 482 -206 q 515 -195 506 -206 q 525 -167 525 -185 q 511 -149 525 -149 q 497 -155 506 -149 q 474 -161 489 -161 q 438 -146 451 -161 q 424 -104 424 -131 q 449 -56 424 -72 q 518 -39 475 -39 q 597 -67 567 -39 q 628 -144 628 -96 z "},"Ṅ":{"ha":1021,"x_min":104,"x_max":917,"o":"m 842 972 q 896 950 875 972 q 917 894 917 928 l 917 85 q 892 24 917 49 q 832 0 868 0 q 794 6 813 0 q 767 24 775 13 l 257 671 l 257 78 q 235 22 257 44 q 179 0 214 0 q 125 22 146 0 q 104 78 104 44 l 104 888 q 128 948 104 924 q 189 972 153 972 q 230 964 210 972 q 260 942 250 956 l 765 297 l 765 894 q 787 950 765 928 q 842 972 808 972 m 508 1028 q 443 1043 463 1028 q 424 1097 424 1058 l 424 1124 q 444 1178 424 1163 q 510 1193 464 1193 q 579 1178 560 1193 q 599 1124 599 1163 l 599 1097 q 578 1042 599 1057 q 508 1028 557 1028 z "},"Ṇ":{"ha":1021,"x_min":104,"x_max":917,"o":"m 842 972 q 896 950 875 972 q 917 894 917 928 l 917 85 q 892 24 917 49 q 832 0 868 0 q 794 6 813 0 q 767 24 775 13 l 257 671 l 257 78 q 235 22 257 44 q 179 0 214 0 q 125 22 146 0 q 104 78 104 44 l 104 888 q 128 948 104 924 q 189 972 153 972 q 230 964 210 972 q 260 942 250 956 l 765 297 l 765 894 q 787 950 765 928 q 842 972 808 972 m 508 -204 q 443 -189 463 -204 q 424 -135 424 -174 l 424 -108 q 444 -54 424 -69 q 508 -39 465 -39 q 579 -54 560 -39 q 599 -108 599 -69 l 599 -135 q 578 -190 599 -175 q 508 -204 557 -204 z "},"Ŋ":{"ha":1049,"x_min":104,"x_max":944,"o":"m 863 972 q 921 948 897 972 q 944 888 944 924 l 944 -19 q 875 -216 944 -154 q 703 -278 806 -278 q 636 -258 663 -278 q 610 -206 610 -239 q 633 -149 610 -172 q 690 -125 656 -126 q 756 -101 735 -124 q 778 -26 778 -78 l 778 49 l 271 667 l 271 85 q 247 24 271 49 q 186 0 222 0 q 128 24 151 0 q 104 85 104 49 l 104 888 q 128 948 104 924 q 189 972 153 972 q 258 936 231 972 l 778 301 l 778 888 q 802 948 778 924 q 863 972 826 972 z "},"Ɲ":{"ha":1021,"x_min":-35,"x_max":917,"o":"m 839 972 q 894 950 872 972 q 917 894 917 928 l 917 85 q 892 24 917 49 q 832 0 868 0 q 794 6 813 0 q 767 24 775 13 l 263 664 l 263 -14 q 217 -187 263 -129 q 122 -259 171 -244 q 42 -274 74 -274 q -13 -249 8 -272 q -35 -194 -35 -226 q -18 -133 -35 -153 q 36 -103 -1 -114 q 92 -57 81 -90 q 104 35 104 -24 l 104 888 q 128 948 104 924 q 189 972 153 972 q 230 964 210 972 q 260 942 250 956 l 758 306 l 758 894 q 781 950 758 928 q 839 972 804 972 z "},"ǋ":{"ha":1403,"x_min":104,"x_max":1301,"o":"m 842 972 q 896 950 875 972 q 917 894 917 928 l 917 85 q 892 24 917 49 q 832 0 868 0 q 794 6 813 0 q 767 24 775 13 l 257 671 l 257 78 q 235 22 257 44 q 179 0 214 0 q 125 22 146 0 q 104 78 104 44 l 104 888 q 128 948 104 924 q 189 972 153 972 q 230 964 210 972 q 260 942 250 956 l 765 297 l 765 894 q 787 950 765 928 q 842 972 808 972 m 1071 -272 q 1015 -250 1038 -272 q 993 -194 993 -228 l 993 -179 q 1064 -103 993 -124 q 1120 -56 1108 -89 q 1132 35 1132 -24 l 1132 658 q 1156 719 1132 694 q 1215 743 1179 743 q 1275 719 1251 743 q 1299 658 1299 694 l 1299 -14 q 1269 -150 1299 -92 q 1187 -240 1239 -208 q 1071 -272 1135 -272 m 1213 833 q 1146 849 1165 833 q 1126 903 1126 864 l 1126 929 q 1147 983 1126 968 q 1214 999 1168 999 q 1282 983 1263 999 q 1301 929 1301 968 l 1301 903 q 1281 848 1301 863 q 1213 833 1261 833 z "},"Ṉ":{"ha":1021,"x_min":104,"x_max":917,"o":"m 842 972 q 896 950 875 972 q 917 894 917 928 l 917 85 q 892 24 917 49 q 832 0 868 0 q 794 6 813 0 q 767 24 775 13 l 257 671 l 257 78 q 235 22 257 44 q 179 0 214 0 q 125 22 146 0 q 104 78 104 44 l 104 888 q 128 948 104 924 q 189 972 153 972 q 230 964 210 972 q 260 942 250 956 l 765 297 l 765 894 q 787 950 765 928 q 842 972 808 972 m 357 -211 q 306 -195 324 -211 q 288 -149 288 -179 q 306 -103 288 -119 q 357 -87 324 -87 l 693 -87 q 744 -103 726 -87 q 763 -149 763 -119 q 693 -211 763 -211 l 357 -211 z "},"Ñ":{"ha":1021,"x_min":104,"x_max":917,"o":"m 842 972 q 896 950 875 972 q 917 894 917 928 l 917 85 q 892 24 917 49 q 832 0 868 0 q 794 6 813 0 q 767 24 775 13 l 257 671 l 257 78 q 235 22 257 44 q 179 0 214 0 q 125 22 146 0 q 104 78 104 44 l 104 888 q 128 948 104 924 q 189 972 153 972 q 230 964 210 972 q 260 942 250 956 l 765 297 l 765 894 q 787 950 765 928 q 842 972 808 972 m 324 1022 q 269 1049 292 1022 q 247 1121 247 1076 q 289 1206 247 1168 q 401 1243 331 1243 q 469 1229 438 1243 q 544 1190 501 1215 q 591 1165 574 1174 q 622 1157 608 1157 q 646 1165 638 1157 q 650 1186 654 1174 q 647 1206 647 1193 q 662 1241 647 1228 q 699 1254 676 1254 q 753 1227 731 1254 q 775 1158 775 1200 q 760 1103 775 1132 q 715 1053 744 1074 q 643 1033 685 1033 q 568 1047 603 1033 q 481 1088 533 1061 q 432 1112 450 1104 q 400 1119 414 1119 q 376 1111 385 1119 q 372 1090 368 1103 q 375 1071 375 1083 q 360 1035 375 1049 q 324 1022 346 1022 z "},"O":{"ha":1054,"x_min":56,"x_max":999,"o":"m 999 486 q 938 234 999 349 q 769 53 876 119 q 526 -14 661 -14 q 284 53 392 -14 q 116 234 176 119 q 56 486 56 349 q 116 738 56 624 q 284 919 176 853 q 526 986 392 986 q 769 919 661 986 q 938 738 876 853 q 999 486 999 624 m 818 486 q 781 655 818 579 q 676 775 743 731 q 526 819 610 819 q 376 776 442 819 q 273 656 310 732 q 236 486 236 579 q 273 317 236 393 q 376 197 310 240 q 526 153 442 153 q 676 197 610 153 q 781 317 743 242 q 818 486 818 393 z "},"Ó":{"ha":1054,"x_min":56,"x_max":999,"o":"m 999 486 q 938 234 999 349 q 769 53 876 119 q 526 -14 661 -14 q 284 53 392 -14 q 116 234 176 119 q 56 486 56 349 q 116 738 56 624 q 284 919 176 853 q 526 986 392 986 q 769 919 661 986 q 938 738 876 853 q 999 486 999 624 m 818 486 q 781 655 818 579 q 676 775 743 731 q 526 819 610 819 q 376 776 442 819 q 273 656 310 732 q 236 486 236 579 q 273 317 236 393 q 376 197 310 240 q 526 153 442 153 q 676 197 610 153 q 781 317 743 242 q 818 486 818 393 m 529 1025 q 487 1039 503 1025 q 471 1075 471 1053 q 490 1113 471 1094 l 610 1218 q 678 1249 646 1249 q 728 1229 704 1249 q 751 1181 751 1210 q 738 1140 751 1160 q 700 1107 725 1119 l 561 1033 q 529 1025 547 1025 z "},"Ŏ":{"ha":1054,"x_min":56,"x_max":999,"o":"m 999 486 q 938 234 999 349 q 769 53 876 119 q 526 -14 661 -14 q 284 53 392 -14 q 116 234 176 119 q 56 486 56 349 q 116 738 56 624 q 284 919 176 853 q 526 986 392 986 q 769 919 661 986 q 938 738 876 853 q 999 486 999 624 m 818 486 q 781 655 818 579 q 676 775 743 731 q 526 819 610 819 q 376 776 442 819 q 273 656 310 732 q 236 486 236 579 q 273 317 236 393 q 376 197 310 240 q 526 153 442 153 q 676 197 610 153 q 781 317 743 242 q 818 486 818 393 m 528 1053 q 392 1087 450 1053 q 308 1182 335 1121 q 301 1213 301 1200 q 315 1246 301 1233 q 349 1258 328 1258 q 392 1247 375 1258 q 432 1208 408 1236 q 528 1171 465 1171 q 624 1208 594 1171 q 662 1247 644 1235 q 707 1258 679 1258 q 741 1247 728 1258 q 754 1214 754 1235 q 749 1185 754 1200 q 665 1087 722 1121 q 528 1053 607 1053 z "},"Ǒ":{"ha":1054,"x_min":56,"x_max":999,"o":"m 999 486 q 938 234 999 349 q 769 53 876 119 q 526 -14 661 -14 q 284 53 392 -14 q 116 234 176 119 q 56 486 56 349 q 116 738 56 624 q 284 919 176 853 q 526 986 392 986 q 769 919 661 986 q 938 738 876 853 q 999 486 999 624 m 818 486 q 781 655 818 579 q 676 775 743 731 q 526 819 610 819 q 376 776 442 819 q 273 656 310 732 q 236 486 236 579 q 273 317 236 393 q 376 197 310 240 q 526 153 442 153 q 676 197 610 153 q 781 317 743 242 q 818 486 818 393 m 690 1244 q 721 1233 708 1244 q 733 1210 733 1222 q 729 1192 733 1200 q 713 1168 725 1183 l 625 1068 q 587 1038 607 1047 q 540 1028 567 1028 l 518 1028 q 471 1038 490 1028 q 433 1068 451 1047 l 346 1168 q 329 1192 333 1183 q 325 1210 325 1200 q 338 1233 325 1222 q 368 1244 350 1244 q 439 1217 396 1244 l 529 1158 l 619 1217 q 690 1244 663 1244 z "},"Ô":{"ha":1054,"x_min":56,"x_max":999,"o":"m 999 486 q 938 234 999 349 q 769 53 876 119 q 526 -14 661 -14 q 284 53 392 -14 q 116 234 176 119 q 56 486 56 349 q 116 738 56 624 q 284 919 176 853 q 526 986 392 986 q 769 919 661 986 q 938 738 876 853 q 999 486 999 624 m 818 486 q 781 655 818 579 q 676 775 743 731 q 526 819 610 819 q 376 776 442 819 q 273 656 310 732 q 236 486 236 579 q 273 317 236 393 q 376 197 310 240 q 526 153 442 153 q 676 197 610 153 q 781 317 743 242 q 818 486 818 393 m 710 1104 q 726 1082 722 1090 q 731 1063 731 1074 q 718 1039 731 1050 q 688 1028 706 1028 q 660 1035 675 1028 q 617 1058 644 1042 l 526 1111 l 436 1058 q 396 1037 414 1046 q 365 1028 378 1028 q 335 1039 347 1028 q 322 1063 322 1050 q 326 1082 322 1074 q 343 1104 331 1090 l 431 1204 q 468 1235 449 1225 q 515 1244 488 1244 l 538 1244 q 584 1235 564 1244 q 622 1204 604 1225 l 710 1104 z "},"Ố":{"ha":1054,"x_min":56,"x_max":999,"o":"m 999 486 q 938 234 999 349 q 769 53 876 119 q 526 -14 661 -14 q 284 53 392 -14 q 116 234 176 119 q 56 486 56 349 q 116 738 56 624 q 284 919 176 853 q 526 986 392 986 q 769 919 661 986 q 938 738 876 853 q 999 486 999 624 m 818 486 q 781 655 818 579 q 676 775 743 731 q 526 819 610 819 q 376 776 442 819 q 273 656 310 732 q 236 486 236 579 q 273 317 236 393 q 376 197 310 240 q 526 153 442 153 q 676 197 610 153 q 781 317 743 242 q 818 486 818 393 m 710 1104 q 726 1082 722 1090 q 731 1063 731 1074 q 718 1039 731 1050 q 688 1028 706 1028 q 660 1035 675 1028 q 617 1058 644 1042 l 526 1111 l 436 1058 q 396 1037 414 1046 q 365 1028 378 1028 q 335 1039 347 1028 q 322 1063 322 1050 q 326 1082 322 1074 q 343 1104 331 1090 l 431 1204 q 468 1235 449 1225 q 515 1244 488 1244 l 538 1244 q 584 1235 564 1244 q 622 1204 604 1225 l 710 1104 m 760 1142 q 717 1156 733 1142 q 701 1192 701 1169 q 721 1229 701 1211 l 840 1335 q 908 1365 876 1365 q 958 1346 935 1365 q 982 1297 982 1326 q 969 1256 982 1276 q 931 1224 956 1236 l 792 1150 q 760 1142 778 1142 z "},"Ộ":{"ha":1054,"x_min":56,"x_max":999,"o":"m 999 486 q 938 234 999 349 q 769 53 876 119 q 526 -14 661 -14 q 284 53 392 -14 q 116 234 176 119 q 56 486 56 349 q 116 738 56 624 q 284 919 176 853 q 526 986 392 986 q 769 919 661 986 q 938 738 876 853 q 999 486 999 624 m 818 486 q 781 655 818 579 q 676 775 743 731 q 526 819 610 819 q 376 776 442 819 q 273 656 310 732 q 236 486 236 579 q 273 317 236 393 q 376 197 310 240 q 526 153 442 153 q 676 197 610 153 q 781 317 743 242 q 818 486 818 393 m 525 -204 q 460 -189 479 -204 q 440 -135 440 -174 l 440 -108 q 461 -54 440 -69 q 525 -39 482 -39 q 596 -54 576 -39 q 615 -108 615 -69 l 615 -135 q 594 -190 615 -175 q 525 -204 574 -204 m 710 1104 q 726 1082 722 1090 q 731 1063 731 1074 q 718 1039 731 1050 q 688 1028 706 1028 q 660 1035 675 1028 q 617 1058 644 1042 l 526 1111 l 436 1058 q 396 1037 414 1046 q 365 1028 378 1028 q 335 1039 347 1028 q 322 1063 322 1050 q 326 1082 322 1074 q 343 1104 331 1090 l 431 1204 q 468 1235 449 1225 q 515 1244 488 1244 l 538 1244 q 584 1235 564 1244 q 622 1204 604 1225 l 710 1104 z "},"Ồ":{"ha":1054,"x_min":56,"x_max":999,"o":"m 999 486 q 938 234 999 349 q 769 53 876 119 q 526 -14 661 -14 q 284 53 392 -14 q 116 234 176 119 q 56 486 56 349 q 116 738 56 624 q 284 919 176 853 q 526 986 392 986 q 769 919 661 986 q 938 738 876 853 q 999 486 999 624 m 818 486 q 781 655 818 579 q 676 775 743 731 q 526 819 610 819 q 376 776 442 819 q 273 656 310 732 q 236 486 236 579 q 273 317 236 393 q 376 197 310 240 q 526 153 442 153 q 676 197 610 153 q 781 317 743 242 q 818 486 818 393 m 710 1104 q 726 1082 722 1090 q 731 1063 731 1074 q 718 1039 731 1050 q 688 1028 706 1028 q 660 1035 675 1028 q 617 1058 644 1042 l 526 1111 l 436 1058 q 396 1037 414 1046 q 365 1028 378 1028 q 335 1039 347 1028 q 322 1063 322 1050 q 326 1082 322 1074 q 343 1104 331 1090 l 431 1204 q 468 1235 449 1225 q 515 1244 488 1244 l 538 1244 q 584 1235 564 1244 q 622 1204 604 1225 l 710 1104 m 761 1208 q 729 1217 746 1208 l 590 1290 q 552 1324 565 1304 q 539 1364 539 1343 q 563 1413 539 1393 q 613 1432 586 1432 q 681 1401 644 1432 l 800 1296 q 819 1258 819 1278 q 803 1222 819 1236 q 761 1208 788 1208 z "},"Ổ":{"ha":1054,"x_min":56,"x_max":999,"o":"m 999 486 q 938 234 999 349 q 769 53 876 119 q 526 -14 661 -14 q 284 53 392 -14 q 116 234 176 119 q 56 486 56 349 q 116 738 56 624 q 284 919 176 853 q 526 986 392 986 q 769 919 661 986 q 938 738 876 853 q 999 486 999 624 m 818 486 q 781 655 818 579 q 676 775 743 731 q 526 819 610 819 q 376 776 442 819 q 273 656 310 732 q 236 486 236 579 q 273 317 236 393 q 376 197 310 240 q 526 153 442 153 q 676 197 610 153 q 781 317 743 242 q 818 486 818 393 m 694 1126 q 708 1104 706 1113 q 711 1083 711 1096 q 699 1059 711 1069 q 669 1049 688 1049 q 638 1054 649 1049 q 617 1069 628 1060 q 601 1082 607 1078 l 528 1147 l 449 1082 q 431 1067 443 1078 q 408 1053 419 1057 q 381 1049 397 1049 q 351 1059 363 1049 q 339 1083 339 1069 q 342 1104 339 1096 q 356 1126 344 1113 l 424 1213 q 508 1253 456 1253 l 558 1253 q 602 1244 586 1253 q 633 1213 618 1236 l 694 1126 m 614 1393 q 664 1423 639 1413 q 724 1433 689 1433 q 834 1397 801 1433 q 867 1313 867 1360 q 860 1273 867 1290 q 840 1238 854 1256 q 827 1221 838 1233 q 812 1200 817 1208 q 807 1185 807 1192 q 793 1157 807 1168 q 760 1146 779 1146 q 726 1157 740 1146 q 713 1185 713 1168 q 735 1239 713 1210 q 767 1299 767 1282 q 753 1326 767 1315 q 719 1336 739 1336 q 692 1330 704 1336 q 661 1313 679 1324 q 639 1304 647 1304 q 604 1322 622 1304 q 592 1351 592 1335 q 614 1393 592 1374 z "},"Ỗ":{"ha":1054,"x_min":56,"x_max":999,"o":"m 999 486 q 938 234 999 349 q 769 53 876 119 q 526 -14 661 -14 q 284 53 392 -14 q 116 234 176 119 q 56 486 56 349 q 116 738 56 624 q 284 919 176 853 q 526 986 392 986 q 769 919 661 986 q 938 738 876 853 q 999 486 999 624 m 818 486 q 781 655 818 579 q 676 775 743 731 q 526 819 610 819 q 376 776 442 819 q 273 656 310 732 q 236 486 236 579 q 273 317 236 393 q 376 197 310 240 q 526 153 442 153 q 676 197 610 153 q 781 317 743 242 q 818 486 818 393 m 710 1104 q 726 1082 722 1090 q 731 1063 731 1074 q 718 1039 731 1050 q 688 1028 706 1028 q 660 1035 675 1028 q 617 1058 644 1042 l 526 1111 l 436 1058 q 396 1037 414 1046 q 365 1028 378 1028 q 335 1039 347 1028 q 322 1063 322 1050 q 326 1082 322 1074 q 343 1104 331 1090 l 431 1204 q 468 1235 449 1225 q 515 1244 488 1244 l 538 1244 q 584 1235 564 1244 q 622 1204 604 1225 l 710 1104 m 353 1240 q 299 1267 321 1240 q 276 1339 276 1294 q 318 1424 276 1386 q 431 1461 360 1461 q 499 1447 467 1461 q 574 1408 531 1433 q 620 1383 603 1392 q 651 1375 638 1375 q 675 1383 667 1375 q 679 1404 683 1392 q 676 1424 676 1411 q 691 1459 676 1446 q 728 1472 706 1472 q 782 1445 760 1472 q 804 1376 804 1418 q 789 1321 804 1350 q 744 1272 774 1292 q 672 1251 714 1251 q 597 1265 632 1251 q 510 1306 563 1279 q 461 1330 479 1322 q 429 1338 443 1338 q 406 1329 414 1338 q 401 1308 397 1321 q 404 1289 404 1301 q 390 1253 404 1267 q 353 1240 375 1240 z "},"Ȍ":{"ha":1054,"x_min":56,"x_max":999,"o":"m 999 486 q 938 234 999 349 q 769 53 876 119 q 526 -14 661 -14 q 284 53 392 -14 q 116 234 176 119 q 56 486 56 349 q 116 738 56 624 q 284 919 176 853 q 526 986 392 986 q 769 919 661 986 q 938 738 876 853 q 999 486 999 624 m 818 486 q 781 655 818 579 q 676 775 743 731 q 526 819 610 819 q 376 776 442 819 q 273 656 310 732 q 236 486 236 579 q 273 317 236 393 q 376 197 310 240 q 526 153 442 153 q 676 197 610 153 q 781 317 743 242 q 818 486 818 393 m 675 1058 q 643 1067 660 1058 l 504 1140 q 466 1174 479 1154 q 453 1214 453 1193 q 476 1263 453 1243 q 526 1282 500 1282 q 594 1251 558 1282 l 714 1146 q 733 1108 733 1128 q 717 1072 733 1086 q 675 1058 701 1058 m 389 1044 q 357 1053 374 1044 l 218 1126 q 180 1160 193 1140 q 167 1200 167 1179 q 190 1249 167 1229 q 240 1268 214 1268 q 308 1238 272 1268 l 428 1132 q 447 1094 447 1114 q 431 1058 447 1072 q 389 1044 415 1044 z "},"Ö":{"ha":1054,"x_min":56,"x_max":999,"o":"m 999 486 q 938 234 999 349 q 769 53 876 119 q 526 -14 661 -14 q 284 53 392 -14 q 116 234 176 119 q 56 486 56 349 q 116 738 56 624 q 284 919 176 853 q 526 986 392 986 q 769 919 661 986 q 938 738 876 853 q 999 486 999 624 m 818 486 q 781 655 818 579 q 676 775 743 731 q 526 819 610 819 q 376 776 442 819 q 273 656 310 732 q 236 486 236 579 q 273 317 236 393 q 376 197 310 240 q 526 153 442 153 q 676 197 610 153 q 781 317 743 242 q 818 486 818 393 m 388 1056 q 324 1072 343 1056 q 304 1125 304 1088 l 304 1150 q 325 1204 304 1189 q 389 1219 346 1219 q 455 1203 435 1219 q 475 1150 475 1188 l 475 1125 q 455 1071 475 1086 q 388 1056 435 1056 m 664 1056 q 600 1072 619 1056 q 581 1125 581 1088 l 581 1150 q 601 1204 581 1189 q 664 1219 621 1219 q 731 1204 711 1219 q 751 1150 751 1189 l 751 1125 q 731 1071 751 1086 q 664 1056 711 1056 z "},"Ȫ":{"ha":1054,"x_min":56,"x_max":999,"o":"m 999 486 q 938 234 999 349 q 769 53 876 119 q 526 -14 661 -14 q 284 53 392 -14 q 116 234 176 119 q 56 486 56 349 q 116 738 56 624 q 284 919 176 853 q 526 986 392 986 q 769 919 661 986 q 938 738 876 853 q 999 486 999 624 m 818 486 q 781 655 818 579 q 676 775 743 731 q 526 819 610 819 q 376 776 442 819 q 273 656 310 732 q 236 486 236 579 q 273 317 236 393 q 376 197 310 240 q 526 153 442 153 q 676 197 610 153 q 781 317 743 242 q 818 486 818 393 m 388 1056 q 324 1072 343 1056 q 304 1125 304 1088 l 304 1150 q 325 1204 304 1189 q 389 1219 346 1219 q 455 1203 435 1219 q 475 1150 475 1188 l 475 1125 q 455 1071 475 1086 q 388 1056 435 1056 m 664 1056 q 600 1072 619 1056 q 581 1125 581 1088 l 581 1150 q 601 1204 581 1189 q 664 1219 621 1219 q 731 1204 711 1219 q 751 1150 751 1189 l 751 1125 q 731 1071 751 1086 q 664 1056 711 1056 m 360 1317 q 308 1333 326 1317 q 290 1379 290 1349 q 308 1424 290 1408 q 360 1440 326 1440 l 696 1440 q 747 1424 729 1440 q 765 1379 765 1408 q 696 1317 765 1317 l 360 1317 z "},"Ȱ":{"ha":1054,"x_min":56,"x_max":999,"o":"m 999 486 q 938 234 999 349 q 769 53 876 119 q 526 -14 661 -14 q 284 53 392 -14 q 116 234 176 119 q 56 486 56 349 q 116 738 56 624 q 284 919 176 853 q 526 986 392 986 q 769 919 661 986 q 938 738 876 853 q 999 486 999 624 m 818 486 q 781 655 818 579 q 676 775 743 731 q 526 819 610 819 q 376 776 442 819 q 273 656 310 732 q 236 486 236 579 q 273 317 236 393 q 376 197 310 240 q 526 153 442 153 q 676 197 610 153 q 781 317 743 242 q 818 486 818 393 m 525 1028 q 460 1043 479 1028 q 440 1097 440 1058 l 440 1124 q 460 1178 440 1163 q 526 1193 481 1193 q 596 1178 576 1193 q 615 1124 615 1163 l 615 1097 q 594 1042 615 1057 q 525 1028 574 1028 m 360 1318 q 308 1334 326 1318 q 290 1381 290 1350 q 308 1426 290 1410 q 360 1442 326 1442 l 696 1442 q 747 1426 729 1442 q 765 1381 765 1410 q 696 1318 765 1318 l 360 1318 z "},"Ọ":{"ha":1054,"x_min":56,"x_max":999,"o":"m 999 486 q 938 234 999 349 q 769 53 876 119 q 526 -14 661 -14 q 284 53 392 -14 q 116 234 176 119 q 56 486 56 349 q 116 738 56 624 q 284 919 176 853 q 526 986 392 986 q 769 919 661 986 q 938 738 876 853 q 999 486 999 624 m 818 486 q 781 655 818 579 q 676 775 743 731 q 526 819 610 819 q 376 776 442 819 q 273 656 310 732 q 236 486 236 579 q 273 317 236 393 q 376 197 310 240 q 526 153 442 153 q 676 197 610 153 q 781 317 743 242 q 818 486 818 393 m 525 -204 q 460 -189 479 -204 q 440 -135 440 -174 l 440 -108 q 461 -54 440 -69 q 525 -39 482 -39 q 596 -54 576 -39 q 615 -108 615 -69 l 615 -135 q 594 -190 615 -175 q 525 -204 574 -204 z "},"Ò":{"ha":1054,"x_min":56,"x_max":999,"o":"m 999 486 q 938 234 999 349 q 769 53 876 119 q 526 -14 661 -14 q 284 53 392 -14 q 116 234 176 119 q 56 486 56 349 q 116 738 56 624 q 284 919 176 853 q 526 986 392 986 q 769 919 661 986 q 938 738 876 853 q 999 486 999 624 m 818 486 q 781 655 818 579 q 676 775 743 731 q 526 819 610 819 q 376 776 442 819 q 273 656 310 732 q 236 486 236 579 q 273 317 236 393 q 376 197 310 240 q 526 153 442 153 q 676 197 610 153 q 781 317 743 242 q 818 486 818 393 m 525 1031 q 493 1039 510 1031 l 354 1113 q 316 1146 329 1126 q 303 1186 303 1165 q 326 1235 303 1215 q 376 1254 350 1254 q 444 1224 408 1254 l 564 1118 q 583 1081 583 1100 q 567 1044 583 1058 q 525 1031 551 1031 z "},"Ỏ":{"ha":1054,"x_min":56,"x_max":999,"o":"m 999 486 q 938 234 999 349 q 769 53 876 119 q 526 -14 661 -14 q 284 53 392 -14 q 116 234 176 119 q 56 486 56 349 q 116 738 56 624 q 284 919 176 853 q 526 986 392 986 q 769 919 661 986 q 938 738 876 853 q 999 486 999 624 m 818 486 q 781 655 818 579 q 676 775 743 731 q 526 819 610 819 q 376 776 442 819 q 273 656 310 732 q 236 486 236 579 q 273 317 236 393 q 376 197 310 240 q 526 153 442 153 q 676 197 610 153 q 781 317 743 242 q 818 486 818 393 m 393 1289 q 443 1319 418 1308 q 503 1329 468 1329 q 613 1292 581 1329 q 646 1208 646 1256 q 640 1169 646 1186 q 619 1133 633 1151 q 606 1117 617 1129 q 591 1096 596 1104 q 586 1081 586 1088 q 571 1056 586 1064 q 531 1049 556 1049 q 503 1056 515 1049 q 492 1081 492 1064 q 514 1135 492 1106 q 546 1194 546 1178 q 532 1222 546 1211 q 499 1232 518 1232 q 471 1226 483 1232 q 440 1208 458 1219 q 418 1200 426 1200 q 383 1218 401 1200 q 371 1247 371 1231 q 393 1289 371 1269 z "},"Ơ":{"ha":1054,"x_min":56,"x_max":999,"o":"m 815 886 q 950 713 901 818 q 999 486 999 608 q 938 234 999 349 q 769 53 876 119 q 526 -14 661 -14 q 284 53 392 -14 q 116 234 176 119 q 56 486 56 349 q 116 738 56 624 q 284 919 176 853 q 526 986 392 986 q 654 969 593 986 q 747 1054 747 979 q 766 1105 747 1082 q 818 1128 785 1128 q 869 1105 853 1128 q 886 1054 886 1082 q 869 960 886 1004 q 815 886 851 917 m 526 153 q 676 197 610 153 q 781 317 743 242 q 818 486 818 393 q 781 655 818 579 q 676 775 743 731 q 526 819 610 819 q 376 776 442 819 q 273 656 310 732 q 236 486 236 579 q 273 317 236 393 q 376 197 310 240 q 526 153 442 153 z "},"Ớ":{"ha":1054,"x_min":56,"x_max":999,"o":"m 815 886 q 950 713 901 818 q 999 486 999 608 q 938 234 999 349 q 769 53 876 119 q 526 -14 661 -14 q 284 53 392 -14 q 116 234 176 119 q 56 486 56 349 q 116 738 56 624 q 284 919 176 853 q 526 986 392 986 q 654 969 593 986 q 747 1054 747 979 q 766 1105 747 1082 q 818 1128 785 1128 q 869 1105 853 1128 q 886 1054 886 1082 q 869 960 886 1004 q 815 886 851 917 m 526 153 q 676 197 610 153 q 781 317 743 242 q 818 486 818 393 q 781 655 818 579 q 676 775 743 731 q 526 819 610 819 q 376 776 442 819 q 273 656 310 732 q 236 486 236 579 q 273 317 236 393 q 376 197 310 240 q 526 153 442 153 m 529 1025 q 487 1039 503 1025 q 471 1075 471 1053 q 490 1113 471 1094 l 610 1218 q 678 1249 646 1249 q 728 1229 704 1249 q 751 1181 751 1210 q 738 1140 751 1160 q 700 1107 725 1119 l 561 1033 q 529 1025 547 1025 z "},"Ợ":{"ha":1054,"x_min":56,"x_max":999,"o":"m 815 886 q 950 713 901 818 q 999 486 999 608 q 938 234 999 349 q 769 53 876 119 q 526 -14 661 -14 q 284 53 392 -14 q 116 234 176 119 q 56 486 56 349 q 116 738 56 624 q 284 919 176 853 q 526 986 392 986 q 654 969 593 986 q 747 1054 747 979 q 766 1105 747 1082 q 818 1128 785 1128 q 869 1105 853 1128 q 886 1054 886 1082 q 869 960 886 1004 q 815 886 851 917 m 526 153 q 676 197 610 153 q 781 317 743 242 q 818 486 818 393 q 781 655 818 579 q 676 775 743 731 q 526 819 610 819 q 376 776 442 819 q 273 656 310 732 q 236 486 236 579 q 273 317 236 393 q 376 197 310 240 q 526 153 442 153 m 525 -204 q 460 -189 479 -204 q 440 -135 440 -174 l 440 -108 q 461 -54 440 -69 q 525 -39 482 -39 q 596 -54 576 -39 q 615 -108 615 -69 l 615 -135 q 594 -190 615 -175 q 525 -204 574 -204 z "},"Ờ":{"ha":1054,"x_min":56,"x_max":999,"o":"m 815 886 q 950 713 901 818 q 999 486 999 608 q 938 234 999 349 q 769 53 876 119 q 526 -14 661 -14 q 284 53 392 -14 q 116 234 176 119 q 56 486 56 349 q 116 738 56 624 q 284 919 176 853 q 526 986 392 986 q 654 969 593 986 q 747 1054 747 979 q 766 1105 747 1082 q 818 1128 785 1128 q 869 1105 853 1128 q 886 1054 886 1082 q 869 960 886 1004 q 815 886 851 917 m 526 153 q 676 197 610 153 q 781 317 743 242 q 818 486 818 393 q 781 655 818 579 q 676 775 743 731 q 526 819 610 819 q 376 776 442 819 q 273 656 310 732 q 236 486 236 579 q 273 317 236 393 q 376 197 310 240 q 526 153 442 153 m 525 1031 q 493 1039 510 1031 l 354 1113 q 316 1146 329 1126 q 303 1186 303 1165 q 326 1235 303 1215 q 376 1254 350 1254 q 444 1224 408 1254 l 564 1118 q 583 1081 583 1100 q 567 1044 583 1058 q 525 1031 551 1031 z "},"Ở":{"ha":1054,"x_min":56,"x_max":999,"o":"m 815 886 q 950 713 901 818 q 999 486 999 608 q 938 234 999 349 q 769 53 876 119 q 526 -14 661 -14 q 284 53 392 -14 q 116 234 176 119 q 56 486 56 349 q 116 738 56 624 q 284 919 176 853 q 526 986 392 986 q 654 969 593 986 q 747 1054 747 979 q 766 1105 747 1082 q 818 1128 785 1128 q 869 1105 853 1128 q 886 1054 886 1082 q 869 960 886 1004 q 815 886 851 917 m 526 153 q 676 197 610 153 q 781 317 743 242 q 818 486 818 393 q 781 655 818 579 q 676 775 743 731 q 526 819 610 819 q 376 776 442 819 q 273 656 310 732 q 236 486 236 579 q 273 317 236 393 q 376 197 310 240 q 526 153 442 153 m 393 1289 q 443 1319 418 1308 q 503 1329 468 1329 q 613 1292 581 1329 q 646 1208 646 1256 q 640 1169 646 1186 q 619 1133 633 1151 q 606 1117 617 1129 q 591 1096 596 1104 q 586 1081 586 1088 q 571 1056 586 1064 q 531 1049 556 1049 q 503 1056 515 1049 q 492 1081 492 1064 q 514 1135 492 1106 q 546 1194 546 1178 q 532 1222 546 1211 q 499 1232 518 1232 q 471 1226 483 1232 q 440 1208 458 1219 q 418 1200 426 1200 q 383 1218 401 1200 q 371 1247 371 1231 q 393 1289 371 1269 z "},"Ỡ":{"ha":1054,"x_min":56,"x_max":999,"o":"m 815 886 q 950 713 901 818 q 999 486 999 608 q 938 234 999 349 q 769 53 876 119 q 526 -14 661 -14 q 284 53 392 -14 q 116 234 176 119 q 56 486 56 349 q 116 738 56 624 q 284 919 176 853 q 526 986 392 986 q 654 969 593 986 q 747 1054 747 979 q 766 1105 747 1082 q 818 1128 785 1128 q 869 1105 853 1128 q 886 1054 886 1082 q 869 960 886 1004 q 815 886 851 917 m 526 153 q 676 197 610 153 q 781 317 743 242 q 818 486 818 393 q 781 655 818 579 q 676 775 743 731 q 526 819 610 819 q 376 776 442 819 q 273 656 310 732 q 236 486 236 579 q 273 317 236 393 q 376 197 310 240 q 526 153 442 153 m 315 1044 q 261 1072 283 1044 q 239 1143 239 1099 q 281 1228 239 1190 q 393 1265 322 1265 q 461 1251 429 1265 q 536 1213 493 1238 q 583 1188 565 1196 q 614 1179 600 1179 q 638 1188 629 1179 q 642 1208 646 1196 q 639 1228 639 1215 q 653 1263 639 1250 q 690 1276 668 1276 q 744 1249 722 1276 q 767 1181 767 1222 q 751 1125 767 1154 q 706 1076 736 1096 q 635 1056 676 1056 q 560 1069 594 1056 q 472 1110 525 1083 q 424 1134 442 1126 q 392 1142 406 1142 q 368 1133 376 1142 q 364 1113 360 1125 q 367 1093 367 1106 q 352 1058 367 1071 q 315 1044 338 1044 z "},"Ő":{"ha":1054,"x_min":56,"x_max":999,"o":"m 999 486 q 938 234 999 349 q 769 53 876 119 q 526 -14 661 -14 q 284 53 392 -14 q 116 234 176 119 q 56 486 56 349 q 116 738 56 624 q 284 919 176 853 q 526 986 392 986 q 769 919 661 986 q 938 738 876 853 q 999 486 999 624 m 818 486 q 781 655 818 579 q 676 775 743 731 q 526 819 610 819 q 376 776 442 819 q 273 656 310 732 q 236 486 236 579 q 273 317 236 393 q 376 197 310 240 q 526 153 442 153 q 676 197 610 153 q 781 317 743 242 q 818 486 818 393 m 400 1083 q 371 1092 381 1083 q 361 1118 361 1101 q 378 1167 361 1140 l 435 1256 q 501 1299 461 1299 q 556 1278 532 1299 q 579 1231 579 1258 q 554 1183 579 1207 l 486 1118 q 447 1091 467 1099 q 400 1083 426 1083 m 653 1083 q 614 1117 614 1083 q 632 1167 614 1139 l 690 1257 q 717 1284 703 1275 q 756 1293 732 1293 q 809 1278 785 1293 q 833 1235 833 1264 q 808 1183 833 1207 l 739 1118 q 699 1091 719 1099 q 653 1083 679 1083 z "},"Ȏ":{"ha":1054,"x_min":56,"x_max":999,"o":"m 999 486 q 938 234 999 349 q 769 53 876 119 q 526 -14 661 -14 q 284 53 392 -14 q 116 234 176 119 q 56 486 56 349 q 116 738 56 624 q 284 919 176 853 q 526 986 392 986 q 769 919 661 986 q 938 738 876 853 q 999 486 999 624 m 818 486 q 781 655 818 579 q 676 775 743 731 q 526 819 610 819 q 376 776 442 819 q 273 656 310 732 q 236 486 236 579 q 273 317 236 393 q 376 197 310 240 q 526 153 442 153 q 676 197 610 153 q 781 317 743 242 q 818 486 818 393 m 528 1289 q 665 1256 607 1289 q 747 1160 722 1222 q 754 1129 754 1142 q 741 1096 754 1108 q 707 1083 728 1083 q 662 1095 679 1083 q 624 1133 644 1107 q 528 1171 590 1171 q 432 1133 465 1171 q 394 1095 411 1107 q 349 1083 376 1083 q 315 1095 328 1083 q 301 1128 301 1107 q 307 1157 301 1142 q 391 1255 333 1221 q 528 1289 449 1289 z "},"Ō":{"ha":1054,"x_min":56,"x_max":999,"o":"m 999 486 q 938 234 999 349 q 769 53 876 119 q 526 -14 661 -14 q 284 53 392 -14 q 116 234 176 119 q 56 486 56 349 q 116 738 56 624 q 284 919 176 853 q 526 986 392 986 q 769 919 661 986 q 938 738 876 853 q 999 486 999 624 m 818 486 q 781 655 818 579 q 676 775 743 731 q 526 819 610 819 q 376 776 442 819 q 273 656 310 732 q 236 486 236 579 q 273 317 236 393 q 376 197 310 240 q 526 153 442 153 q 676 197 610 153 q 781 317 743 242 q 818 486 818 393 m 360 1042 q 308 1058 326 1042 q 290 1104 290 1074 q 308 1149 290 1133 q 360 1165 326 1165 l 696 1165 q 747 1149 729 1165 q 765 1104 765 1133 q 696 1042 765 1042 l 360 1042 z "},"Ṓ":{"ha":1054,"x_min":56,"x_max":999,"o":"m 999 486 q 938 234 999 349 q 769 53 876 119 q 526 -14 661 -14 q 284 53 392 -14 q 116 234 176 119 q 56 486 56 349 q 116 738 56 624 q 284 919 176 853 q 526 986 392 986 q 769 919 661 986 q 938 738 876 853 q 999 486 999 624 m 818 486 q 781 655 818 579 q 676 775 743 731 q 526 819 610 819 q 376 776 442 819 q 273 656 310 732 q 236 486 236 579 q 273 317 236 393 q 376 197 310 240 q 526 153 442 153 q 676 197 610 153 q 781 317 743 242 q 818 486 818 393 m 360 1042 q 308 1058 326 1042 q 290 1104 290 1074 q 308 1149 290 1133 q 360 1165 326 1165 l 696 1165 q 747 1149 729 1165 q 765 1104 765 1133 q 696 1042 765 1042 l 360 1042 m 529 1260 q 487 1274 503 1260 q 471 1310 471 1288 q 490 1347 471 1329 l 610 1453 q 678 1483 646 1483 q 728 1464 704 1483 q 751 1415 751 1444 q 738 1374 751 1394 q 700 1342 725 1354 l 561 1268 q 529 1260 547 1260 z "},"Ṑ":{"ha":1054,"x_min":56,"x_max":999,"o":"m 999 486 q 938 234 999 349 q 769 53 876 119 q 526 -14 661 -14 q 284 53 392 -14 q 116 234 176 119 q 56 486 56 349 q 116 738 56 624 q 284 919 176 853 q 526 986 392 986 q 769 919 661 986 q 938 738 876 853 q 999 486 999 624 m 818 486 q 781 655 818 579 q 676 775 743 731 q 526 819 610 819 q 376 776 442 819 q 273 656 310 732 q 236 486 236 579 q 273 317 236 393 q 376 197 310 240 q 526 153 442 153 q 676 197 610 153 q 781 317 743 242 q 818 486 818 393 m 360 1042 q 308 1058 326 1042 q 290 1104 290 1074 q 308 1149 290 1133 q 360 1165 326 1165 l 696 1165 q 747 1149 729 1165 q 765 1104 765 1133 q 696 1042 765 1042 l 360 1042 m 525 1265 q 493 1274 510 1265 l 354 1347 q 316 1381 329 1361 q 303 1421 303 1400 q 326 1469 303 1450 q 376 1489 350 1489 q 444 1458 408 1489 l 564 1353 q 583 1315 583 1335 q 567 1279 583 1293 q 525 1265 551 1265 z "},"Ǫ":{"ha":1054,"x_min":56,"x_max":999,"o":"m 642 0 q 538 -108 538 -40 q 550 -145 538 -132 q 581 -158 563 -158 q 610 -142 597 -158 q 667 -117 628 -117 q 710 -135 693 -117 q 728 -183 728 -153 q 705 -231 728 -206 q 644 -272 682 -256 q 567 -287 607 -287 q 447 -250 493 -287 q 400 -139 400 -212 q 449 -7 400 -65 q 244 81 333 11 q 105 256 154 150 q 56 486 56 363 q 116 738 56 624 q 284 919 176 853 q 526 986 392 986 q 769 919 661 986 q 938 738 876 853 q 999 486 999 624 q 954 268 999 369 q 828 97 910 167 q 642 0 747 26 m 236 486 q 273 317 236 393 q 376 197 310 240 q 526 153 442 153 q 676 197 610 153 q 781 317 743 242 q 818 486 818 393 q 781 655 818 579 q 676 775 743 731 q 526 819 610 819 q 376 776 442 819 q 273 656 310 732 q 236 486 236 579 z "},"Ø":{"ha":1026,"x_min":56,"x_max":999,"o":"m 874 832 q 966 675 933 764 q 999 486 999 586 q 938 234 999 349 q 769 53 876 119 q 526 -14 661 -14 q 383 8 451 -14 q 257 71 314 31 l 186 -15 q 132 -43 165 -43 q 83 -22 106 -43 q 61 26 61 -1 q 78 72 61 51 l 157 169 q 82 316 108 235 q 56 486 56 397 q 116 738 56 624 q 284 919 176 853 q 526 986 392 986 q 767 921 658 986 l 842 1014 q 896 1040 864 1040 q 945 1020 924 1040 q 967 972 967 1000 q 950 926 967 947 l 874 832 m 236 486 q 274 314 236 393 l 657 786 q 526 819 601 819 q 376 776 442 819 q 273 656 310 732 q 236 486 236 579 m 526 153 q 676 197 610 153 q 781 317 743 242 q 818 486 818 393 q 760 692 818 603 l 364 204 q 526 153 438 153 z "},"Ǿ":{"ha":1026,"x_min":56,"x_max":999,"o":"m 874 832 q 966 675 933 764 q 999 486 999 586 q 938 234 999 349 q 769 53 876 119 q 526 -14 661 -14 q 383 8 451 -14 q 257 71 314 31 l 186 -15 q 132 -43 165 -43 q 83 -22 106 -43 q 61 26 61 -1 q 78 72 61 51 l 157 169 q 82 316 108 235 q 56 486 56 397 q 116 738 56 624 q 284 919 176 853 q 526 986 392 986 q 767 921 658 986 l 842 1014 q 896 1040 864 1040 q 945 1020 924 1040 q 967 972 967 1000 q 950 926 967 947 l 874 832 m 236 486 q 274 314 236 393 l 657 786 q 526 819 601 819 q 376 776 442 819 q 273 656 310 732 q 236 486 236 579 m 526 153 q 676 197 610 153 q 781 317 743 242 q 818 486 818 393 q 760 692 818 603 l 364 204 q 526 153 438 153 m 515 1025 q 473 1039 489 1025 q 457 1075 457 1053 q 476 1113 457 1094 l 596 1218 q 664 1249 632 1249 q 714 1229 690 1249 q 738 1181 738 1210 q 724 1140 738 1160 q 686 1107 711 1119 l 547 1033 q 515 1025 533 1025 z "},"Õ":{"ha":1054,"x_min":56,"x_max":999,"o":"m 999 486 q 938 234 999 349 q 769 53 876 119 q 526 -14 661 -14 q 284 53 392 -14 q 116 234 176 119 q 56 486 56 349 q 116 738 56 624 q 284 919 176 853 q 526 986 392 986 q 769 919 661 986 q 938 738 876 853 q 999 486 999 624 m 818 486 q 781 655 818 579 q 676 775 743 731 q 526 819 610 819 q 376 776 442 819 q 273 656 310 732 q 236 486 236 579 q 273 317 236 393 q 376 197 310 240 q 526 153 442 153 q 676 197 610 153 q 781 317 743 242 q 818 486 818 393 m 340 1022 q 286 1049 308 1022 q 264 1121 264 1076 q 306 1206 264 1168 q 418 1243 347 1243 q 486 1229 454 1243 q 561 1190 518 1215 q 608 1165 590 1174 q 639 1157 625 1157 q 663 1165 654 1157 q 667 1186 671 1174 q 664 1206 664 1193 q 678 1241 664 1228 q 715 1254 693 1254 q 769 1227 747 1254 q 792 1158 792 1200 q 776 1103 792 1132 q 731 1053 761 1074 q 660 1033 701 1033 q 585 1047 619 1033 q 497 1088 550 1061 q 449 1112 467 1104 q 417 1119 431 1119 q 393 1111 401 1119 q 389 1090 385 1103 q 392 1071 392 1083 q 377 1035 392 1049 q 340 1022 363 1022 z "},"Ṍ":{"ha":1054,"x_min":56,"x_max":999,"o":"m 999 486 q 938 234 999 349 q 769 53 876 119 q 526 -14 661 -14 q 284 53 392 -14 q 116 234 176 119 q 56 486 56 349 q 116 738 56 624 q 284 919 176 853 q 526 986 392 986 q 769 919 661 986 q 938 738 876 853 q 999 486 999 624 m 818 486 q 781 655 818 579 q 676 775 743 731 q 526 819 610 819 q 376 776 442 819 q 273 656 310 732 q 236 486 236 579 q 273 317 236 393 q 376 197 310 240 q 526 153 442 153 q 676 197 610 153 q 781 317 743 242 q 818 486 818 393 m 340 1022 q 286 1049 308 1022 q 264 1121 264 1076 q 306 1206 264 1168 q 418 1243 347 1243 q 486 1229 454 1243 q 561 1190 518 1215 q 608 1165 590 1174 q 639 1157 625 1157 q 663 1165 654 1157 q 667 1186 671 1174 q 664 1206 664 1193 q 678 1241 664 1228 q 715 1254 693 1254 q 769 1227 747 1254 q 792 1158 792 1200 q 776 1103 792 1132 q 731 1053 761 1074 q 660 1033 701 1033 q 585 1047 619 1033 q 497 1088 550 1061 q 449 1112 467 1104 q 417 1119 431 1119 q 393 1111 401 1119 q 389 1090 385 1103 q 392 1071 392 1083 q 377 1035 392 1049 q 340 1022 363 1022 m 529 1326 q 487 1340 503 1326 q 471 1376 471 1354 q 490 1414 471 1396 l 610 1519 q 678 1550 646 1550 q 728 1531 704 1550 q 751 1482 751 1511 q 738 1441 751 1461 q 700 1408 725 1421 l 561 1335 q 529 1326 547 1326 z "},"Ṏ":{"ha":1054,"x_min":56,"x_max":999,"o":"m 999 486 q 938 234 999 349 q 769 53 876 119 q 526 -14 661 -14 q 284 53 392 -14 q 116 234 176 119 q 56 486 56 349 q 116 738 56 624 q 284 919 176 853 q 526 986 392 986 q 769 919 661 986 q 938 738 876 853 q 999 486 999 624 m 818 486 q 781 655 818 579 q 676 775 743 731 q 526 819 610 819 q 376 776 442 819 q 273 656 310 732 q 236 486 236 579 q 273 317 236 393 q 376 197 310 240 q 526 153 442 153 q 676 197 610 153 q 781 317 743 242 q 818 486 818 393 m 340 1022 q 286 1049 308 1022 q 264 1121 264 1076 q 306 1206 264 1168 q 418 1243 347 1243 q 486 1229 454 1243 q 561 1190 518 1215 q 608 1165 590 1174 q 639 1157 625 1157 q 663 1165 654 1157 q 667 1186 671 1174 q 664 1206 664 1193 q 678 1241 664 1228 q 715 1254 693 1254 q 769 1227 747 1254 q 792 1158 792 1200 q 776 1103 792 1132 q 731 1053 761 1074 q 660 1033 701 1033 q 585 1047 619 1033 q 497 1088 550 1061 q 449 1112 467 1104 q 417 1119 431 1119 q 393 1111 401 1119 q 389 1090 385 1103 q 392 1071 392 1083 q 377 1035 392 1049 q 340 1022 363 1022 m 388 1357 q 324 1373 343 1357 q 304 1426 304 1389 l 304 1451 q 325 1506 304 1490 q 389 1521 346 1521 q 455 1505 435 1521 q 475 1451 475 1489 l 475 1426 q 455 1372 475 1388 q 388 1357 435 1357 m 664 1357 q 600 1373 619 1357 q 581 1426 581 1389 l 581 1451 q 601 1506 581 1490 q 664 1521 621 1521 q 731 1506 711 1521 q 751 1451 751 1490 l 751 1426 q 731 1372 751 1388 q 664 1357 711 1357 z "},"Ȭ":{"ha":1054,"x_min":56,"x_max":999,"o":"m 999 486 q 938 234 999 349 q 769 53 876 119 q 526 -14 661 -14 q 284 53 392 -14 q 116 234 176 119 q 56 486 56 349 q 116 738 56 624 q 284 919 176 853 q 526 986 392 986 q 769 919 661 986 q 938 738 876 853 q 999 486 999 624 m 818 486 q 781 655 818 579 q 676 775 743 731 q 526 819 610 819 q 376 776 442 819 q 273 656 310 732 q 236 486 236 579 q 273 317 236 393 q 376 197 310 240 q 526 153 442 153 q 676 197 610 153 q 781 317 743 242 q 818 486 818 393 m 340 1022 q 286 1049 308 1022 q 264 1121 264 1076 q 306 1206 264 1168 q 418 1243 347 1243 q 486 1229 454 1243 q 561 1190 518 1215 q 608 1165 590 1174 q 639 1157 625 1157 q 663 1165 654 1157 q 667 1186 671 1174 q 664 1206 664 1193 q 678 1241 664 1228 q 715 1254 693 1254 q 769 1227 747 1254 q 792 1158 792 1200 q 776 1103 792 1132 q 731 1053 761 1074 q 660 1033 701 1033 q 585 1047 619 1033 q 497 1088 550 1061 q 449 1112 467 1104 q 417 1119 431 1119 q 393 1111 401 1119 q 389 1090 385 1103 q 392 1071 392 1083 q 377 1035 392 1049 q 340 1022 363 1022 m 360 1343 q 308 1359 326 1343 q 290 1406 290 1375 q 308 1451 290 1435 q 360 1467 326 1467 l 696 1467 q 747 1451 729 1467 q 765 1406 765 1435 q 696 1343 765 1343 l 360 1343 z "},"Œ":{"ha":1343,"x_min":56,"x_max":1288,"o":"m 1203 167 q 1263 142 1239 167 q 1288 82 1288 118 q 1263 24 1288 47 q 1203 0 1239 0 l 472 0 q 248 65 342 0 q 105 240 154 129 q 56 486 56 350 q 105 733 56 622 q 248 908 154 843 q 472 972 342 972 l 1203 972 q 1263 948 1239 972 q 1288 888 1288 924 q 1263 829 1288 853 q 1203 806 1239 806 l 833 806 l 833 561 l 1140 561 q 1201 537 1176 561 q 1225 476 1225 513 q 1201 418 1225 442 q 1140 394 1176 394 l 833 394 l 833 167 l 1203 167 m 222 486 q 285 256 222 344 q 472 167 347 167 l 667 167 l 667 806 l 472 806 q 285 716 347 806 q 222 486 222 626 z "},"P":{"ha":838,"x_min":104,"x_max":782,"o":"m 506 972 q 640 930 576 972 q 743 816 704 888 q 782 660 782 744 q 743 504 782 576 q 640 390 704 432 q 506 347 576 347 l 264 347 l 264 85 q 242 24 264 47 q 183 0 219 0 q 126 24 149 0 q 104 85 104 49 l 104 888 q 128 948 104 924 q 189 972 153 972 l 506 972 m 506 506 q 558 528 532 506 q 599 585 583 550 q 615 660 615 621 q 599 734 615 699 q 558 791 583 769 q 506 813 532 813 l 264 813 l 264 506 l 506 506 z "},"Þ":{"ha":838,"x_min":104,"x_max":782,"o":"m 506 847 q 640 805 576 847 q 743 691 704 763 q 782 535 782 619 q 743 379 782 451 q 640 265 704 307 q 506 222 576 222 l 271 222 l 271 85 q 247 24 271 49 q 186 0 222 0 q 127 24 150 0 q 104 85 104 49 l 104 943 q 128 1003 104 979 q 189 1028 153 1028 q 248 1003 225 1028 q 271 943 271 979 l 271 847 l 506 847 m 506 389 q 558 409 532 389 q 599 463 583 429 q 615 535 615 496 q 599 607 615 574 q 558 660 583 640 q 506 681 532 681 l 271 681 l 271 389 l 506 389 z "},"Q":{"ha":1049,"x_min":56,"x_max":1083,"o":"m 1004 -39 q 1058 -64 1033 -39 q 1083 -119 1083 -89 q 1037 -197 1083 -160 q 923 -256 990 -233 q 803 -278 856 -278 q 662 -260 714 -278 q 557 -212 610 -243 q 500 -183 522 -192 q 447 -174 478 -174 q 419 -178 431 -174 q 390 -190 408 -182 q 357 -205 372 -200 q 318 -210 342 -210 q 260 -184 285 -210 q 236 -126 236 -158 q 285 -54 236 -72 l 422 -3 q 231 91 314 21 q 101 264 147 161 q 56 486 56 367 q 116 738 56 624 q 284 919 176 853 q 526 986 392 986 q 769 919 661 986 q 938 738 876 853 q 999 486 999 624 q 952 264 999 367 q 822 91 906 161 q 629 -3 738 21 l 544 -35 q 603 -50 576 -39 q 665 -81 631 -61 q 740 -115 708 -104 q 813 -126 772 -126 q 872 -116 847 -126 q 921 -86 897 -106 q 946 -66 929 -79 q 976 -46 963 -53 q 1004 -39 990 -39 m 236 486 q 273 317 236 393 q 376 197 310 240 q 526 153 442 153 q 676 197 610 153 q 781 317 743 242 q 818 486 818 393 q 781 655 818 579 q 676 775 743 731 q 526 819 610 819 q 376 776 442 819 q 273 656 310 732 q 236 486 236 579 z "},"R":{"ha":954,"x_min":104,"x_max":906,"o":"m 867 136 q 895 107 885 125 q 906 69 906 89 q 889 24 906 44 q 825 -1 868 -1 q 764 14 792 -1 q 664 246 664 71 q 631 325 664 296 q 538 354 599 354 l 278 354 l 278 85 q 258 24 278 47 q 204 0 238 0 q 134 24 164 0 q 104 85 104 49 l 104 888 q 128 948 104 924 q 189 972 153 972 l 589 972 q 725 933 661 972 q 827 826 789 894 q 865 674 865 758 q 828 538 865 604 q 731 433 790 472 q 826 269 818 372 q 831 226 831 247 q 842 165 836 183 q 867 136 847 146 m 582 497 q 631 521 607 497 q 669 584 654 544 q 685 669 685 624 q 669 741 685 708 q 631 793 654 774 q 582 813 607 813 l 278 813 l 278 497 l 582 497 z "},"Ŕ":{"ha":954,"x_min":104,"x_max":906,"o":"m 867 136 q 895 107 885 125 q 906 69 906 89 q 889 24 906 44 q 825 -1 868 -1 q 764 14 792 -1 q 664 246 664 71 q 631 325 664 296 q 538 354 599 354 l 278 354 l 278 85 q 258 24 278 47 q 204 0 238 0 q 134 24 164 0 q 104 85 104 49 l 104 888 q 128 948 104 924 q 189 972 153 972 l 589 972 q 725 933 661 972 q 827 826 789 894 q 865 674 865 758 q 828 538 865 604 q 731 433 790 472 q 826 269 818 372 q 831 226 831 247 q 842 165 836 183 q 867 136 847 146 m 582 497 q 631 521 607 497 q 669 584 654 544 q 685 669 685 624 q 669 741 685 708 q 631 793 654 774 q 582 813 607 813 l 278 813 l 278 497 l 582 497 m 479 1025 q 437 1039 453 1025 q 421 1075 421 1053 q 440 1113 421 1094 l 560 1218 q 628 1249 596 1249 q 678 1229 654 1249 q 701 1181 701 1210 q 688 1140 701 1160 q 650 1107 675 1119 l 511 1033 q 479 1025 497 1025 z "},"Ř":{"ha":954,"x_min":104,"x_max":906,"o":"m 867 136 q 895 107 885 125 q 906 69 906 89 q 889 24 906 44 q 825 -1 868 -1 q 764 14 792 -1 q 664 246 664 71 q 631 325 664 296 q 538 354 599 354 l 278 354 l 278 85 q 258 24 278 47 q 204 0 238 0 q 134 24 164 0 q 104 85 104 49 l 104 888 q 128 948 104 924 q 189 972 153 972 l 589 972 q 725 933 661 972 q 827 826 789 894 q 865 674 865 758 q 828 538 865 604 q 731 433 790 472 q 826 269 818 372 q 831 226 831 247 q 842 165 836 183 q 867 136 847 146 m 582 497 q 631 521 607 497 q 669 584 654 544 q 685 669 685 624 q 669 741 685 708 q 631 793 654 774 q 582 813 607 813 l 278 813 l 278 497 l 582 497 m 640 1244 q 671 1233 658 1244 q 683 1210 683 1222 q 679 1192 683 1200 q 663 1168 675 1183 l 575 1068 q 537 1038 557 1047 q 490 1028 517 1028 l 468 1028 q 421 1038 440 1028 q 383 1068 401 1047 l 296 1168 q 279 1192 283 1183 q 275 1210 275 1200 q 288 1233 275 1222 q 318 1244 300 1244 q 389 1217 346 1244 l 479 1158 l 569 1217 q 640 1244 613 1244 z "},"Ŗ":{"ha":954,"x_min":104,"x_max":906,"o":"m 867 136 q 895 107 885 125 q 906 69 906 89 q 889 24 906 44 q 825 -1 868 -1 q 764 14 792 -1 q 664 246 664 71 q 631 325 664 296 q 538 354 599 354 l 278 354 l 278 85 q 258 24 278 47 q 204 0 238 0 q 134 24 164 0 q 104 85 104 49 l 104 888 q 128 948 104 924 q 189 972 153 972 l 589 972 q 725 933 661 972 q 827 826 789 894 q 865 674 865 758 q 828 538 865 604 q 731 433 790 472 q 826 269 818 372 q 831 226 831 247 q 842 165 836 183 q 867 136 847 146 m 582 497 q 631 521 607 497 q 669 584 654 544 q 685 669 685 624 q 669 741 685 708 q 631 793 654 774 q 582 813 607 813 l 278 813 l 278 497 l 582 497 m 594 -144 q 575 -206 594 -175 q 523 -256 556 -236 q 453 -275 490 -275 q 403 -261 421 -275 q 386 -231 386 -247 q 395 -206 386 -214 q 415 -199 404 -199 q 435 -202 422 -199 q 457 -206 449 -206 q 482 -195 472 -206 q 492 -167 492 -185 q 478 -149 492 -149 q 464 -155 472 -149 q 440 -161 456 -161 q 404 -146 418 -161 q 390 -104 390 -131 q 416 -56 390 -72 q 485 -39 442 -39 q 564 -67 533 -39 q 594 -144 594 -96 z "},"Ȑ":{"ha":954,"x_min":104,"x_max":906,"o":"m 867 136 q 895 107 885 125 q 906 69 906 89 q 889 24 906 44 q 825 -1 868 -1 q 764 14 792 -1 q 664 246 664 71 q 631 325 664 296 q 538 354 599 354 l 278 354 l 278 85 q 258 24 278 47 q 204 0 238 0 q 134 24 164 0 q 104 85 104 49 l 104 888 q 128 948 104 924 q 189 972 153 972 l 589 972 q 725 933 661 972 q 827 826 789 894 q 865 674 865 758 q 828 538 865 604 q 731 433 790 472 q 826 269 818 372 q 831 226 831 247 q 842 165 836 183 q 867 136 847 146 m 582 497 q 631 521 607 497 q 669 584 654 544 q 685 669 685 624 q 669 741 685 708 q 631 793 654 774 q 582 813 607 813 l 278 813 l 278 497 l 582 497 m 625 1058 q 593 1067 610 1058 l 454 1140 q 416 1174 429 1154 q 403 1214 403 1193 q 426 1263 403 1243 q 476 1282 450 1282 q 544 1251 508 1282 l 664 1146 q 683 1108 683 1128 q 667 1072 683 1086 q 625 1058 651 1058 m 339 1044 q 307 1053 324 1044 l 168 1126 q 130 1160 143 1140 q 117 1200 117 1179 q 140 1249 117 1229 q 190 1268 164 1268 q 258 1238 222 1268 l 378 1132 q 397 1094 397 1114 q 381 1058 397 1072 q 339 1044 365 1044 z "},"Ṛ":{"ha":954,"x_min":104,"x_max":906,"o":"m 867 136 q 895 107 885 125 q 906 69 906 89 q 889 24 906 44 q 825 -1 868 -1 q 764 14 792 -1 q 664 246 664 71 q 631 325 664 296 q 538 354 599 354 l 278 354 l 278 85 q 258 24 278 47 q 204 0 238 0 q 134 24 164 0 q 104 85 104 49 l 104 888 q 128 948 104 924 q 189 972 153 972 l 589 972 q 725 933 661 972 q 827 826 789 894 q 865 674 865 758 q 828 538 865 604 q 731 433 790 472 q 826 269 818 372 q 831 226 831 247 q 842 165 836 183 q 867 136 847 146 m 582 497 q 631 521 607 497 q 669 584 654 544 q 685 669 685 624 q 669 741 685 708 q 631 793 654 774 q 582 813 607 813 l 278 813 l 278 497 l 582 497 m 475 -204 q 410 -189 429 -204 q 390 -135 390 -174 l 390 -108 q 411 -54 390 -69 q 475 -39 432 -39 q 546 -54 526 -39 q 565 -108 565 -69 l 565 -135 q 544 -190 565 -175 q 475 -204 524 -204 z "},"Ȓ":{"ha":954,"x_min":104,"x_max":906,"o":"m 867 136 q 895 107 885 125 q 906 69 906 89 q 889 24 906 44 q 825 -1 868 -1 q 764 14 792 -1 q 664 246 664 71 q 631 325 664 296 q 538 354 599 354 l 278 354 l 278 85 q 258 24 278 47 q 204 0 238 0 q 134 24 164 0 q 104 85 104 49 l 104 888 q 128 948 104 924 q 189 972 153 972 l 589 972 q 725 933 661 972 q 827 826 789 894 q 865 674 865 758 q 828 538 865 604 q 731 433 790 472 q 826 269 818 372 q 831 226 831 247 q 842 165 836 183 q 867 136 847 146 m 582 497 q 631 521 607 497 q 669 584 654 544 q 685 669 685 624 q 669 741 685 708 q 631 793 654 774 q 582 813 607 813 l 278 813 l 278 497 l 582 497 m 478 1289 q 615 1256 557 1289 q 697 1160 672 1222 q 704 1129 704 1142 q 691 1096 704 1108 q 657 1083 678 1083 q 612 1095 629 1083 q 574 1133 594 1107 q 478 1171 540 1171 q 382 1133 415 1171 q 344 1095 361 1107 q 299 1083 326 1083 q 265 1095 278 1083 q 251 1128 251 1107 q 257 1157 251 1142 q 341 1255 283 1221 q 478 1289 399 1289 z "},"Ṟ":{"ha":954,"x_min":104,"x_max":906,"o":"m 867 136 q 895 107 885 125 q 906 69 906 89 q 889 24 906 44 q 825 -1 868 -1 q 764 14 792 -1 q 664 246 664 71 q 631 325 664 296 q 538 354 599 354 l 278 354 l 278 85 q 258 24 278 47 q 204 0 238 0 q 134 24 164 0 q 104 85 104 49 l 104 888 q 128 948 104 924 q 189 972 153 972 l 589 972 q 725 933 661 972 q 827 826 789 894 q 865 674 865 758 q 828 538 865 604 q 731 433 790 472 q 826 269 818 372 q 831 226 831 247 q 842 165 836 183 q 867 136 847 146 m 582 497 q 631 521 607 497 q 669 584 654 544 q 685 669 685 624 q 669 741 685 708 q 631 793 654 774 q 582 813 607 813 l 278 813 l 278 497 l 582 497 m 324 -211 q 272 -195 290 -211 q 254 -149 254 -179 q 272 -103 254 -119 q 324 -87 290 -87 l 660 -87 q 711 -103 693 -87 q 729 -149 729 -119 q 660 -211 729 -211 l 324 -211 z "},"S":{"ha":829,"x_min":56,"x_max":774,"o":"m 417 -14 q 239 11 317 -14 q 93 96 161 36 q 56 169 56 129 q 79 226 56 201 q 136 250 103 250 q 183 233 163 250 q 292 167 239 188 q 417 146 344 146 q 551 181 494 146 q 607 267 607 215 q 551 365 607 329 q 375 418 496 400 q 71 701 71 463 q 117 853 71 789 q 242 952 163 918 q 418 986 321 986 q 583 960 506 986 q 711 890 660 933 q 751 817 751 858 q 728 760 751 785 q 672 736 704 736 q 635 749 651 736 q 534 802 599 778 q 418 826 469 826 q 283 794 331 826 q 235 708 235 761 q 284 618 235 649 q 439 568 333 588 q 630 515 558 547 q 738 426 701 482 q 774 276 774 369 q 724 123 774 189 q 593 22 675 57 q 417 -14 511 -14 z "},"Ś":{"ha":829,"x_min":56,"x_max":774,"o":"m 417 -14 q 239 11 317 -14 q 93 96 161 36 q 56 169 56 129 q 79 226 56 201 q 136 250 103 250 q 183 233 163 250 q 292 167 239 188 q 417 146 344 146 q 551 181 494 146 q 607 267 607 215 q 551 365 607 329 q 375 418 496 400 q 71 701 71 463 q 117 853 71 789 q 242 952 163 918 q 418 986 321 986 q 583 960 506 986 q 711 890 660 933 q 751 817 751 858 q 728 760 751 785 q 672 736 704 736 q 635 749 651 736 q 534 802 599 778 q 418 826 469 826 q 283 794 331 826 q 235 708 235 761 q 284 618 235 649 q 439 568 333 588 q 630 515 558 547 q 738 426 701 482 q 774 276 774 369 q 724 123 774 189 q 593 22 675 57 q 417 -14 511 -14 m 417 1025 q 374 1039 390 1025 q 358 1075 358 1053 q 378 1113 358 1094 l 497 1218 q 565 1249 533 1249 q 615 1229 592 1249 q 639 1181 639 1210 q 626 1140 639 1160 q 588 1107 613 1119 l 449 1033 q 417 1025 435 1025 z "},"Ṥ":{"ha":829,"x_min":56,"x_max":774,"o":"m 417 -14 q 239 11 317 -14 q 93 96 161 36 q 56 169 56 129 q 79 226 56 201 q 136 250 103 250 q 183 233 163 250 q 292 167 239 188 q 417 146 344 146 q 551 181 494 146 q 607 267 607 215 q 551 365 607 329 q 375 418 496 400 q 71 701 71 463 q 117 853 71 789 q 242 952 163 918 q 418 986 321 986 q 583 960 506 986 q 711 890 660 933 q 751 817 751 858 q 728 760 751 785 q 672 736 704 736 q 635 749 651 736 q 534 802 599 778 q 418 826 469 826 q 283 794 331 826 q 235 708 235 761 q 284 618 235 649 q 439 568 333 588 q 630 515 558 547 q 738 426 701 482 q 774 276 774 369 q 724 123 774 189 q 593 22 675 57 q 417 -14 511 -14 m 417 1025 q 374 1039 390 1025 q 358 1075 358 1053 q 378 1113 358 1094 l 497 1218 q 565 1249 533 1249 q 615 1229 592 1249 q 639 1181 639 1210 q 626 1140 639 1160 q 588 1107 613 1119 l 449 1033 q 417 1025 435 1025 m 483 1293 q 418 1308 438 1293 q 399 1363 399 1324 l 399 1389 q 419 1443 399 1428 q 485 1458 439 1458 q 554 1443 535 1458 q 574 1389 574 1428 l 574 1363 q 553 1308 574 1322 q 483 1293 532 1293 z "},"Š":{"ha":829,"x_min":56,"x_max":774,"o":"m 417 -14 q 239 11 317 -14 q 93 96 161 36 q 56 169 56 129 q 79 226 56 201 q 136 250 103 250 q 183 233 163 250 q 292 167 239 188 q 417 146 344 146 q 551 181 494 146 q 607 267 607 215 q 551 365 607 329 q 375 418 496 400 q 71 701 71 463 q 117 853 71 789 q 242 952 163 918 q 418 986 321 986 q 583 960 506 986 q 711 890 660 933 q 751 817 751 858 q 728 760 751 785 q 672 736 704 736 q 635 749 651 736 q 534 802 599 778 q 418 826 469 826 q 283 794 331 826 q 235 708 235 761 q 284 618 235 649 q 439 568 333 588 q 630 515 558 547 q 738 426 701 482 q 774 276 774 369 q 724 123 774 189 q 593 22 675 57 q 417 -14 511 -14 m 578 1244 q 608 1233 596 1244 q 621 1210 621 1222 q 617 1192 621 1200 q 600 1168 613 1183 l 513 1068 q 474 1038 494 1047 q 428 1028 454 1028 l 406 1028 q 358 1038 378 1028 q 321 1068 339 1047 l 233 1168 q 217 1192 221 1183 q 213 1210 213 1200 q 225 1233 213 1222 q 256 1244 238 1244 q 326 1217 283 1244 l 417 1158 l 507 1217 q 578 1244 550 1244 z "},"Ṧ":{"ha":829,"x_min":56,"x_max":774,"o":"m 417 -14 q 239 11 317 -14 q 93 96 161 36 q 56 169 56 129 q 79 226 56 201 q 136 250 103 250 q 183 233 163 250 q 292 167 239 188 q 417 146 344 146 q 551 181 494 146 q 607 267 607 215 q 551 365 607 329 q 375 418 496 400 q 71 701 71 463 q 117 853 71 789 q 242 952 163 918 q 418 986 321 986 q 583 960 506 986 q 711 890 660 933 q 751 817 751 858 q 728 760 751 785 q 672 736 704 736 q 635 749 651 736 q 534 802 599 778 q 418 826 469 826 q 283 794 331 826 q 235 708 235 761 q 284 618 235 649 q 439 568 333 588 q 630 515 558 547 q 738 426 701 482 q 774 276 774 369 q 724 123 774 189 q 593 22 675 57 q 417 -14 511 -14 m 578 1244 q 608 1233 596 1244 q 621 1210 621 1222 q 617 1192 621 1200 q 600 1168 613 1183 l 513 1068 q 474 1038 494 1047 q 428 1028 454 1028 l 406 1028 q 358 1038 378 1028 q 321 1068 339 1047 l 233 1168 q 217 1192 221 1183 q 213 1210 213 1200 q 225 1233 213 1222 q 256 1244 238 1244 q 326 1217 283 1244 l 417 1158 l 507 1217 q 578 1244 550 1244 m 413 1342 q 347 1357 367 1342 q 328 1411 328 1372 l 328 1438 q 348 1492 328 1476 q 414 1507 368 1507 q 483 1492 464 1507 q 503 1438 503 1476 l 503 1411 q 482 1356 503 1371 q 413 1342 461 1342 z "},"Ş":{"ha":829,"x_min":56,"x_max":774,"o":"m 774 276 q 730 131 774 194 q 613 31 686 68 q 453 -12 540 -6 l 396 -165 q 339 -210 379 -210 q 281 -192 313 -210 q 249 -146 249 -174 q 265 -104 249 -125 l 336 -10 q 206 24 265 -1 q 93 96 147 49 q 56 169 56 129 q 79 226 56 201 q 136 250 103 250 q 183 233 163 250 q 292 167 239 188 q 417 146 344 146 q 551 181 494 146 q 607 267 607 215 q 551 365 607 329 q 375 418 496 400 q 71 701 71 463 q 117 853 71 789 q 242 952 163 918 q 418 986 321 986 q 583 960 506 986 q 711 890 660 933 q 751 817 751 858 q 728 760 751 785 q 672 736 704 736 q 635 749 651 736 q 534 802 599 778 q 418 826 469 826 q 283 794 331 826 q 235 708 235 761 q 284 618 235 649 q 439 568 333 588 q 630 515 558 547 q 738 426 701 482 q 774 276 774 369 z "},"Ŝ":{"ha":829,"x_min":56,"x_max":774,"o":"m 417 -14 q 239 11 317 -14 q 93 96 161 36 q 56 169 56 129 q 79 226 56 201 q 136 250 103 250 q 183 233 163 250 q 292 167 239 188 q 417 146 344 146 q 551 181 494 146 q 607 267 607 215 q 551 365 607 329 q 375 418 496 400 q 71 701 71 463 q 117 853 71 789 q 242 952 163 918 q 418 986 321 986 q 583 960 506 986 q 711 890 660 933 q 751 817 751 858 q 728 760 751 785 q 672 736 704 736 q 635 749 651 736 q 534 802 599 778 q 418 826 469 826 q 283 794 331 826 q 235 708 235 761 q 284 618 235 649 q 439 568 333 588 q 630 515 558 547 q 738 426 701 482 q 774 276 774 369 q 724 123 774 189 q 593 22 675 57 q 417 -14 511 -14 m 597 1104 q 614 1082 610 1090 q 618 1063 618 1074 q 606 1039 618 1050 q 575 1028 593 1028 q 547 1035 563 1028 q 504 1058 532 1042 l 414 1111 l 324 1058 q 283 1037 301 1046 q 253 1028 265 1028 q 222 1039 235 1028 q 210 1063 210 1050 q 214 1082 210 1074 q 231 1104 218 1090 l 318 1204 q 356 1235 336 1225 q 403 1244 375 1244 l 425 1244 q 472 1235 451 1244 q 510 1204 492 1225 l 597 1104 z "},"Ș":{"ha":829,"x_min":56,"x_max":774,"o":"m 417 -14 q 239 11 317 -14 q 93 96 161 36 q 56 169 56 129 q 79 226 56 201 q 136 250 103 250 q 183 233 163 250 q 292 167 239 188 q 417 146 344 146 q 551 181 494 146 q 607 267 607 215 q 551 365 607 329 q 375 418 496 400 q 71 701 71 463 q 117 853 71 789 q 242 952 163 918 q 418 986 321 986 q 583 960 506 986 q 711 890 660 933 q 751 817 751 858 q 728 760 751 785 q 672 736 704 736 q 635 749 651 736 q 534 802 599 778 q 418 826 469 826 q 283 794 331 826 q 235 708 235 761 q 284 618 235 649 q 439 568 333 588 q 630 515 558 547 q 738 426 701 482 q 774 276 774 369 q 724 123 774 189 q 593 22 675 57 q 417 -14 511 -14 m 532 -144 q 513 -206 532 -175 q 460 -256 493 -236 q 390 -275 428 -275 q 341 -261 358 -275 q 324 -231 324 -247 q 333 -206 324 -214 q 353 -199 342 -199 q 373 -202 360 -199 q 394 -206 386 -206 q 419 -195 410 -206 q 429 -167 429 -185 q 415 -149 429 -149 q 401 -155 410 -149 q 378 -161 393 -161 q 342 -146 356 -161 q 328 -104 328 -131 q 353 -56 328 -72 q 422 -39 379 -39 q 501 -67 471 -39 q 532 -144 532 -96 z "},"Ṡ":{"ha":829,"x_min":56,"x_max":774,"o":"m 417 -14 q 239 11 317 -14 q 93 96 161 36 q 56 169 56 129 q 79 226 56 201 q 136 250 103 250 q 183 233 163 250 q 292 167 239 188 q 417 146 344 146 q 551 181 494 146 q 607 267 607 215 q 551 365 607 329 q 375 418 496 400 q 71 701 71 463 q 117 853 71 789 q 242 952 163 918 q 418 986 321 986 q 583 960 506 986 q 711 890 660 933 q 751 817 751 858 q 728 760 751 785 q 672 736 704 736 q 635 749 651 736 q 534 802 599 778 q 418 826 469 826 q 283 794 331 826 q 235 708 235 761 q 284 618 235 649 q 439 568 333 588 q 630 515 558 547 q 738 426 701 482 q 774 276 774 369 q 724 123 774 189 q 593 22 675 57 q 417 -14 511 -14 m 413 1028 q 347 1043 367 1028 q 328 1097 328 1058 l 328 1124 q 348 1178 328 1163 q 414 1193 368 1193 q 483 1178 464 1193 q 503 1124 503 1163 l 503 1097 q 482 1042 503 1057 q 413 1028 461 1028 z "},"Ṣ":{"ha":829,"x_min":56,"x_max":774,"o":"m 417 -14 q 239 11 317 -14 q 93 96 161 36 q 56 169 56 129 q 79 226 56 201 q 136 250 103 250 q 183 233 163 250 q 292 167 239 188 q 417 146 344 146 q 551 181 494 146 q 607 267 607 215 q 551 365 607 329 q 375 418 496 400 q 71 701 71 463 q 117 853 71 789 q 242 952 163 918 q 418 986 321 986 q 583 960 506 986 q 711 890 660 933 q 751 817 751 858 q 728 760 751 785 q 672 736 704 736 q 635 749 651 736 q 534 802 599 778 q 418 826 469 826 q 283 794 331 826 q 235 708 235 761 q 284 618 235 649 q 439 568 333 588 q 630 515 558 547 q 738 426 701 482 q 774 276 774 369 q 724 123 774 189 q 593 22 675 57 q 417 -14 511 -14 m 413 -204 q 347 -189 367 -204 q 328 -135 328 -174 l 328 -108 q 349 -54 328 -69 q 413 -39 369 -39 q 483 -54 464 -39 q 503 -108 503 -69 l 503 -135 q 482 -190 503 -175 q 413 -204 461 -204 z "},"Ṩ":{"ha":829,"x_min":56,"x_max":774,"o":"m 417 -14 q 239 11 317 -14 q 93 96 161 36 q 56 169 56 129 q 79 226 56 201 q 136 250 103 250 q 183 233 163 250 q 292 167 239 188 q 417 146 344 146 q 551 181 494 146 q 607 267 607 215 q 551 365 607 329 q 375 418 496 400 q 71 701 71 463 q 117 853 71 789 q 242 952 163 918 q 418 986 321 986 q 583 960 506 986 q 711 890 660 933 q 751 817 751 858 q 728 760 751 785 q 672 736 704 736 q 635 749 651 736 q 534 802 599 778 q 418 826 469 826 q 283 794 331 826 q 235 708 235 761 q 284 618 235 649 q 439 568 333 588 q 630 515 558 547 q 738 426 701 482 q 774 276 774 369 q 724 123 774 189 q 593 22 675 57 q 417 -14 511 -14 m 413 -204 q 347 -189 367 -204 q 328 -135 328 -174 l 328 -108 q 349 -54 328 -69 q 413 -39 369 -39 q 483 -54 464 -39 q 503 -108 503 -69 l 503 -135 q 482 -190 503 -175 q 413 -204 461 -204 m 413 1028 q 347 1043 367 1028 q 328 1097 328 1058 l 328 1124 q 348 1178 328 1163 q 414 1193 368 1193 q 483 1178 464 1193 q 503 1124 503 1163 l 503 1097 q 482 1042 503 1057 q 413 1028 461 1028 z "},"ẞ":{"ha":1036,"x_min":104,"x_max":981,"o":"m 743 546 q 864 493 817 519 q 946 412 911 467 q 981 267 981 357 q 935 127 981 192 q 815 24 889 63 q 661 -14 742 -14 q 499 18 582 -14 q 372 104 415 50 q 358 134 365 114 q 350 178 350 154 q 371 240 350 213 q 426 268 392 268 q 456 262 440 268 q 483 244 472 256 q 568 180 519 207 q 661 153 617 153 q 765 176 729 153 q 800 240 800 199 q 765 313 800 288 q 654 368 729 339 q 607 386 617 382 q 473 474 522 421 q 424 619 424 526 q 473 778 424 717 q 600 867 522 839 l 551 867 q 422 840 482 868 q 324 753 361 811 q 288 610 288 694 l 285 85 q 258 24 285 49 q 193 0 232 0 q 129 24 154 0 q 104 85 104 49 l 107 564 q 159 789 107 688 q 308 949 211 890 q 533 1008 404 1008 q 810 961 694 1008 q 897 857 897 926 q 876 814 897 825 q 808 793 856 803 q 764 783 775 786 q 704 768 754 781 q 631 731 654 756 q 608 669 608 707 q 644 597 608 626 q 743 546 679 568 z "},"Ə":{"ha":1078,"x_min":56,"x_max":1022,"o":"m 535 986 q 778 919 667 986 q 956 737 890 851 q 1022 486 1022 622 q 957 235 1022 350 q 781 53 892 121 q 539 -14 669 -14 q 312 40 419 -14 q 134 192 204 93 q 56 424 64 292 l 56 458 q 86 534 56 507 q 160 561 117 561 l 842 561 q 741 757 824 694 q 535 819 658 819 q 399 801 463 819 q 281 739 336 783 q 224 718 253 718 q 167 740 190 718 q 136 803 136 767 q 165 863 136 838 q 331 958 243 931 q 535 986 418 986 m 539 153 q 731 216 650 153 q 836 394 811 279 l 235 394 q 347 221 263 289 q 539 153 432 153 z "},"T":{"ha":869,"x_min":42,"x_max":828,"o":"m 743 972 q 804 950 781 972 q 828 892 828 928 q 804 834 828 856 q 743 813 781 813 l 525 813 l 525 85 q 499 24 525 49 q 433 0 472 0 q 369 24 394 0 q 344 85 344 49 l 344 813 l 126 813 q 65 835 89 813 q 42 893 42 857 q 66 950 42 928 q 126 972 90 972 l 743 972 z "},"Ŧ":{"ha":869,"x_min":42,"x_max":828,"o":"m 743 972 q 804 950 781 972 q 828 892 828 928 q 804 834 828 856 q 743 813 781 813 l 525 813 l 525 565 l 569 565 q 630 544 606 565 q 654 490 654 522 q 630 434 654 456 q 569 413 606 413 l 525 413 l 525 85 q 499 24 525 49 q 433 0 472 0 q 369 24 394 0 q 344 85 344 49 l 344 413 l 328 413 q 267 434 292 413 q 243 490 243 456 q 267 544 243 522 q 328 565 292 565 l 344 565 l 344 813 l 126 813 q 65 835 89 813 q 42 893 42 857 q 66 950 42 928 q 126 972 90 972 l 743 972 z "},"Ť":{"ha":869,"x_min":42,"x_max":828,"o":"m 743 972 q 804 950 781 972 q 828 892 828 928 q 804 834 828 856 q 743 813 781 813 l 525 813 l 525 85 q 499 24 525 49 q 433 0 472 0 q 369 24 394 0 q 344 85 344 49 l 344 813 l 126 813 q 65 835 89 813 q 42 893 42 857 q 66 950 42 928 q 126 972 90 972 l 743 972 m 597 1244 q 628 1233 615 1244 q 640 1210 640 1222 q 636 1192 640 1200 q 619 1168 632 1183 l 532 1068 q 494 1038 514 1047 q 447 1028 474 1028 l 425 1028 q 378 1038 397 1028 q 340 1068 358 1047 l 253 1168 q 236 1192 240 1183 q 232 1210 232 1200 q 244 1233 232 1222 q 275 1244 257 1244 q 346 1217 303 1244 l 436 1158 l 526 1217 q 597 1244 569 1244 z "},"Ţ":{"ha":869,"x_min":42,"x_max":828,"o":"m 743 972 q 804 950 781 972 q 828 892 828 928 q 804 834 828 856 q 743 813 781 813 l 525 813 l 525 85 q 513 42 525 61 q 481 11 500 22 l 415 -165 q 358 -210 399 -210 q 300 -192 332 -210 q 268 -146 268 -174 q 285 -104 268 -125 l 376 18 q 344 85 344 43 l 344 813 l 126 813 q 65 835 89 813 q 42 893 42 857 q 66 950 42 928 q 126 972 90 972 l 743 972 z "},"Ț":{"ha":869,"x_min":42,"x_max":828,"o":"m 743 972 q 804 950 781 972 q 828 892 828 928 q 804 834 828 856 q 743 813 781 813 l 525 813 l 525 85 q 499 24 525 49 q 433 0 472 0 q 369 24 394 0 q 344 85 344 49 l 344 813 l 126 813 q 65 835 89 813 q 42 893 42 857 q 66 950 42 928 q 126 972 90 972 l 743 972 m 551 -144 q 532 -206 551 -175 q 480 -256 513 -236 q 410 -275 447 -275 q 360 -261 378 -275 q 343 -231 343 -247 q 352 -206 343 -214 q 372 -199 361 -199 q 392 -202 379 -199 q 414 -206 406 -206 q 439 -195 429 -206 q 449 -167 449 -185 q 435 -149 449 -149 q 421 -155 429 -149 q 397 -161 413 -161 q 361 -146 375 -161 q 347 -104 347 -131 q 373 -56 347 -72 q 442 -39 399 -39 q 521 -67 490 -39 q 551 -144 551 -96 z "},"Ṭ":{"ha":869,"x_min":42,"x_max":828,"o":"m 743 972 q 804 950 781 972 q 828 892 828 928 q 804 834 828 856 q 743 813 781 813 l 525 813 l 525 85 q 499 24 525 49 q 433 0 472 0 q 369 24 394 0 q 344 85 344 49 l 344 813 l 126 813 q 65 835 89 813 q 42 893 42 857 q 66 950 42 928 q 126 972 90 972 l 743 972 m 432 -204 q 367 -189 386 -204 q 347 -135 347 -174 l 347 -108 q 368 -54 347 -69 q 432 -39 389 -39 q 503 -54 483 -39 q 522 -108 522 -69 l 522 -135 q 501 -190 522 -175 q 432 -204 481 -204 z "},"Ṯ":{"ha":869,"x_min":42,"x_max":828,"o":"m 743 972 q 804 950 781 972 q 828 892 828 928 q 804 834 828 856 q 743 813 781 813 l 525 813 l 525 85 q 499 24 525 49 q 433 0 472 0 q 369 24 394 0 q 344 85 344 49 l 344 813 l 126 813 q 65 835 89 813 q 42 893 42 857 q 66 950 42 928 q 126 972 90 972 l 743 972 m 281 -211 q 229 -195 247 -211 q 211 -149 211 -179 q 229 -103 211 -119 q 281 -87 247 -87 l 617 -87 q 668 -103 650 -87 q 686 -149 686 -119 q 617 -211 686 -211 l 281 -211 z "},"U":{"ha":979,"x_min":104,"x_max":875,"o":"m 794 974 q 853 950 831 974 q 875 889 875 926 l 875 386 q 826 182 875 271 q 690 43 778 93 q 490 -7 603 -7 q 290 43 378 -7 q 153 182 201 93 q 104 386 104 271 l 104 889 q 129 949 104 925 q 193 974 154 974 q 251 949 226 974 q 276 889 276 925 l 276 386 q 306 267 276 319 q 384 188 335 215 q 490 160 433 160 q 602 188 550 160 q 685 267 654 215 q 717 386 717 319 l 717 889 q 738 950 717 926 q 794 974 758 974 z "},"Ú":{"ha":979,"x_min":104,"x_max":875,"o":"m 794 974 q 853 950 831 974 q 875 889 875 926 l 875 386 q 826 182 875 271 q 690 43 778 93 q 490 -7 603 -7 q 290 43 378 -7 q 153 182 201 93 q 104 386 104 271 l 104 889 q 129 949 104 925 q 193 974 154 974 q 251 949 226 974 q 276 889 276 925 l 276 386 q 306 267 276 319 q 384 188 335 215 q 490 160 433 160 q 602 188 550 160 q 685 267 654 215 q 717 386 717 319 l 717 889 q 738 950 717 926 q 794 974 758 974 m 492 1025 q 449 1039 465 1025 q 433 1075 433 1053 q 453 1113 433 1094 l 572 1218 q 640 1249 608 1249 q 690 1229 667 1249 q 714 1181 714 1210 q 701 1140 714 1160 q 663 1107 688 1119 l 524 1033 q 492 1025 510 1025 z "},"Ŭ":{"ha":979,"x_min":104,"x_max":875,"o":"m 794 974 q 853 950 831 974 q 875 889 875 926 l 875 386 q 826 182 875 271 q 690 43 778 93 q 490 -7 603 -7 q 290 43 378 -7 q 153 182 201 93 q 104 386 104 271 l 104 889 q 129 949 104 925 q 193 974 154 974 q 251 949 226 974 q 276 889 276 925 l 276 386 q 306 267 276 319 q 384 188 335 215 q 490 160 433 160 q 602 188 550 160 q 685 267 654 215 q 717 386 717 319 l 717 889 q 738 950 717 926 q 794 974 758 974 m 490 1053 q 355 1087 413 1053 q 271 1182 297 1121 q 264 1213 264 1200 q 277 1246 264 1233 q 311 1258 290 1258 q 354 1247 338 1258 q 394 1208 371 1236 q 490 1171 428 1171 q 586 1208 557 1171 q 624 1247 607 1235 q 669 1258 642 1258 q 703 1247 690 1258 q 717 1214 717 1235 q 711 1185 717 1200 q 627 1087 685 1121 q 490 1053 569 1053 z "},"Ǔ":{"ha":979,"x_min":104,"x_max":875,"o":"m 794 974 q 853 950 831 974 q 875 889 875 926 l 875 386 q 826 182 875 271 q 690 43 778 93 q 490 -7 603 -7 q 290 43 378 -7 q 153 182 201 93 q 104 386 104 271 l 104 889 q 129 949 104 925 q 193 974 154 974 q 251 949 226 974 q 276 889 276 925 l 276 386 q 306 267 276 319 q 384 188 335 215 q 490 160 433 160 q 602 188 550 160 q 685 267 654 215 q 717 386 717 319 l 717 889 q 738 950 717 926 q 794 974 758 974 m 653 1244 q 683 1233 671 1244 q 696 1210 696 1222 q 692 1192 696 1200 q 675 1168 688 1183 l 588 1068 q 549 1038 569 1047 q 503 1028 529 1028 l 481 1028 q 433 1038 453 1028 q 396 1068 414 1047 l 308 1168 q 292 1192 296 1183 q 288 1210 288 1200 q 300 1233 288 1222 q 331 1244 313 1244 q 401 1217 358 1244 l 492 1158 l 582 1217 q 653 1244 625 1244 z "},"Û":{"ha":979,"x_min":104,"x_max":875,"o":"m 794 974 q 853 950 831 974 q 875 889 875 926 l 875 386 q 826 182 875 271 q 690 43 778 93 q 490 -7 603 -7 q 290 43 378 -7 q 153 182 201 93 q 104 386 104 271 l 104 889 q 129 949 104 925 q 193 974 154 974 q 251 949 226 974 q 276 889 276 925 l 276 386 q 306 267 276 319 q 384 188 335 215 q 490 160 433 160 q 602 188 550 160 q 685 267 654 215 q 717 386 717 319 l 717 889 q 738 950 717 926 q 794 974 758 974 m 672 1104 q 689 1082 685 1090 q 693 1063 693 1074 q 681 1039 693 1050 q 650 1028 668 1028 q 622 1035 638 1028 q 579 1058 607 1042 l 489 1111 l 399 1058 q 358 1037 376 1046 q 328 1028 340 1028 q 297 1039 310 1028 q 285 1063 285 1050 q 289 1082 285 1074 q 306 1104 293 1090 l 393 1204 q 431 1235 411 1225 q 478 1244 450 1244 l 500 1244 q 547 1235 526 1244 q 585 1204 567 1225 l 672 1104 z "},"Ȕ":{"ha":979,"x_min":104,"x_max":875,"o":"m 794 974 q 853 950 831 974 q 875 889 875 926 l 875 386 q 826 182 875 271 q 690 43 778 93 q 490 -7 603 -7 q 290 43 378 -7 q 153 182 201 93 q 104 386 104 271 l 104 889 q 129 949 104 925 q 193 974 154 974 q 251 949 226 974 q 276 889 276 925 l 276 386 q 306 267 276 319 q 384 188 335 215 q 490 160 433 160 q 602 188 550 160 q 685 267 654 215 q 717 386 717 319 l 717 889 q 738 950 717 926 q 794 974 758 974 m 638 1058 q 606 1067 622 1058 l 467 1140 q 428 1174 442 1154 q 415 1214 415 1193 q 439 1263 415 1243 q 489 1282 463 1282 q 557 1251 521 1282 l 676 1146 q 696 1108 696 1128 q 680 1072 696 1086 q 638 1058 664 1058 m 351 1044 q 319 1053 336 1044 l 181 1126 q 142 1160 156 1140 q 129 1200 129 1179 q 153 1249 129 1229 q 203 1268 176 1268 q 271 1238 235 1268 l 390 1132 q 410 1094 410 1114 q 394 1058 410 1072 q 351 1044 378 1044 z "},"Ü":{"ha":979,"x_min":104,"x_max":875,"o":"m 794 974 q 853 950 831 974 q 875 889 875 926 l 875 386 q 826 182 875 271 q 690 43 778 93 q 490 -7 603 -7 q 290 43 378 -7 q 153 182 201 93 q 104 386 104 271 l 104 889 q 129 949 104 925 q 193 974 154 974 q 251 949 226 974 q 276 889 276 925 l 276 386 q 306 267 276 319 q 384 188 335 215 q 490 160 433 160 q 602 188 550 160 q 685 267 654 215 q 717 386 717 319 l 717 889 q 738 950 717 926 q 794 974 758 974 m 350 1056 q 286 1072 306 1056 q 267 1125 267 1088 l 267 1150 q 288 1204 267 1189 q 351 1219 308 1219 q 417 1203 397 1219 q 438 1150 438 1188 l 438 1125 q 417 1071 438 1086 q 350 1056 397 1056 m 626 1056 q 563 1072 582 1056 q 543 1125 543 1088 l 543 1150 q 563 1204 543 1189 q 626 1219 583 1219 q 694 1204 674 1219 q 714 1150 714 1189 l 714 1125 q 694 1071 714 1086 q 626 1056 674 1056 z "},"Ụ":{"ha":979,"x_min":104,"x_max":875,"o":"m 794 974 q 853 950 831 974 q 875 889 875 926 l 875 386 q 826 182 875 271 q 690 43 778 93 q 490 -7 603 -7 q 290 43 378 -7 q 153 182 201 93 q 104 386 104 271 l 104 889 q 129 949 104 925 q 193 974 154 974 q 251 949 226 974 q 276 889 276 925 l 276 386 q 306 267 276 319 q 384 188 335 215 q 490 160 433 160 q 602 188 550 160 q 685 267 654 215 q 717 386 717 319 l 717 889 q 738 950 717 926 q 794 974 758 974 m 488 -204 q 422 -189 442 -204 q 403 -135 403 -174 l 403 -108 q 424 -54 403 -69 q 488 -39 444 -39 q 558 -54 539 -39 q 578 -108 578 -69 l 578 -135 q 557 -190 578 -175 q 488 -204 536 -204 z "},"Ù":{"ha":979,"x_min":104,"x_max":875,"o":"m 794 974 q 853 950 831 974 q 875 889 875 926 l 875 386 q 826 182 875 271 q 690 43 778 93 q 490 -7 603 -7 q 290 43 378 -7 q 153 182 201 93 q 104 386 104 271 l 104 889 q 129 949 104 925 q 193 974 154 974 q 251 949 226 974 q 276 889 276 925 l 276 386 q 306 267 276 319 q 384 188 335 215 q 490 160 433 160 q 602 188 550 160 q 685 267 654 215 q 717 386 717 319 l 717 889 q 738 950 717 926 q 794 974 758 974 m 488 1031 q 456 1039 472 1031 l 317 1113 q 278 1146 292 1126 q 265 1186 265 1165 q 289 1235 265 1215 q 339 1254 313 1254 q 407 1224 371 1254 l 526 1118 q 546 1081 546 1100 q 530 1044 546 1058 q 488 1031 514 1031 z "},"Ủ":{"ha":979,"x_min":104,"x_max":875,"o":"m 794 974 q 853 950 831 974 q 875 889 875 926 l 875 386 q 826 182 875 271 q 690 43 778 93 q 490 -7 603 -7 q 290 43 378 -7 q 153 182 201 93 q 104 386 104 271 l 104 889 q 129 949 104 925 q 193 974 154 974 q 251 949 226 974 q 276 889 276 925 l 276 386 q 306 267 276 319 q 384 188 335 215 q 490 160 433 160 q 602 188 550 160 q 685 267 654 215 q 717 386 717 319 l 717 889 q 738 950 717 926 q 794 974 758 974 m 356 1289 q 406 1319 381 1308 q 465 1329 431 1329 q 576 1292 543 1329 q 608 1208 608 1256 q 602 1169 608 1186 q 582 1133 596 1151 q 569 1117 579 1129 q 553 1096 558 1104 q 549 1081 549 1088 q 533 1056 549 1064 q 493 1049 518 1049 q 466 1056 478 1049 q 454 1081 454 1064 q 476 1135 454 1106 q 508 1194 508 1178 q 494 1222 508 1211 q 461 1232 481 1232 q 433 1226 446 1232 q 403 1208 421 1219 q 381 1200 389 1200 q 346 1218 364 1200 q 333 1247 333 1231 q 356 1289 333 1269 z "},"Ư":{"ha":979,"x_min":104,"x_max":1035,"o":"m 1035 1058 q 995 925 1035 982 q 875 846 956 868 l 875 386 q 826 182 875 271 q 690 43 778 93 q 490 -7 603 -7 q 290 43 378 -7 q 153 182 201 93 q 104 386 104 271 l 104 889 q 129 949 104 925 q 193 974 154 974 q 251 949 226 974 q 276 889 276 925 l 276 386 q 306 267 276 319 q 384 188 335 215 q 490 160 433 160 q 602 188 550 160 q 685 267 654 215 q 717 386 717 319 l 717 889 q 733 944 717 922 q 778 972 749 967 l 779 972 q 794 974 783 974 l 801 974 q 896 1058 896 982 q 915 1109 896 1086 q 967 1132 933 1132 q 1018 1109 1001 1132 q 1035 1058 1035 1086 z "},"Ứ":{"ha":979,"x_min":104,"x_max":1035,"o":"m 1035 1058 q 995 925 1035 982 q 875 846 956 868 l 875 386 q 826 182 875 271 q 690 43 778 93 q 490 -7 603 -7 q 290 43 378 -7 q 153 182 201 93 q 104 386 104 271 l 104 889 q 129 949 104 925 q 193 974 154 974 q 251 949 226 974 q 276 889 276 925 l 276 386 q 306 267 276 319 q 384 188 335 215 q 490 160 433 160 q 602 188 550 160 q 685 267 654 215 q 717 386 717 319 l 717 889 q 733 944 717 922 q 778 972 749 967 l 779 972 q 794 974 783 974 l 801 974 q 896 1058 896 982 q 915 1109 896 1086 q 967 1132 933 1132 q 1018 1109 1001 1132 q 1035 1058 1035 1086 m 503 1025 q 460 1039 476 1025 q 444 1075 444 1053 q 464 1113 444 1094 l 583 1218 q 651 1249 619 1249 q 701 1229 678 1249 q 725 1181 725 1210 q 712 1140 725 1160 q 674 1107 699 1119 l 535 1033 q 503 1025 521 1025 z "},"Ự":{"ha":979,"x_min":104,"x_max":1035,"o":"m 1035 1058 q 995 925 1035 982 q 875 846 956 868 l 875 386 q 826 182 875 271 q 690 43 778 93 q 490 -7 603 -7 q 290 43 378 -7 q 153 182 201 93 q 104 386 104 271 l 104 889 q 129 949 104 925 q 193 974 154 974 q 251 949 226 974 q 276 889 276 925 l 276 386 q 306 267 276 319 q 384 188 335 215 q 490 160 433 160 q 602 188 550 160 q 685 267 654 215 q 717 386 717 319 l 717 889 q 733 944 717 922 q 778 972 749 967 l 779 972 q 794 974 783 974 l 801 974 q 896 1058 896 982 q 915 1109 896 1086 q 967 1132 933 1132 q 1018 1109 1001 1132 q 1035 1058 1035 1086 m 497 -204 q 432 -189 451 -204 q 413 -135 413 -174 l 413 -108 q 433 -54 413 -69 q 497 -39 454 -39 q 568 -54 549 -39 q 588 -108 588 -69 l 588 -135 q 567 -190 588 -175 q 497 -204 546 -204 z "},"Ừ":{"ha":979,"x_min":104,"x_max":1035,"o":"m 1035 1058 q 995 925 1035 982 q 875 846 956 868 l 875 386 q 826 182 875 271 q 690 43 778 93 q 490 -7 603 -7 q 290 43 378 -7 q 153 182 201 93 q 104 386 104 271 l 104 889 q 129 949 104 925 q 193 974 154 974 q 251 949 226 974 q 276 889 276 925 l 276 386 q 306 267 276 319 q 384 188 335 215 q 490 160 433 160 q 602 188 550 160 q 685 267 654 215 q 717 386 717 319 l 717 889 q 733 944 717 922 q 778 972 749 967 l 779 972 q 794 974 783 974 l 801 974 q 896 1058 896 982 q 915 1109 896 1086 q 967 1132 933 1132 q 1018 1109 1001 1132 q 1035 1058 1035 1086 m 499 1031 q 467 1039 483 1031 l 328 1113 q 290 1146 303 1126 q 276 1186 276 1165 q 300 1235 276 1215 q 350 1254 324 1254 q 418 1224 382 1254 l 538 1118 q 557 1081 557 1100 q 541 1044 557 1058 q 499 1031 525 1031 z "},"Ử":{"ha":979,"x_min":104,"x_max":1035,"o":"m 1035 1058 q 995 925 1035 982 q 875 846 956 868 l 875 386 q 826 182 875 271 q 690 43 778 93 q 490 -7 603 -7 q 290 43 378 -7 q 153 182 201 93 q 104 386 104 271 l 104 889 q 129 949 104 925 q 193 974 154 974 q 251 949 226 974 q 276 889 276 925 l 276 386 q 306 267 276 319 q 384 188 335 215 q 490 160 433 160 q 602 188 550 160 q 685 267 654 215 q 717 386 717 319 l 717 889 q 733 944 717 922 q 778 972 749 967 l 779 972 q 794 974 783 974 l 801 974 q 896 1058 896 982 q 915 1109 896 1086 q 967 1132 933 1132 q 1018 1109 1001 1132 q 1035 1058 1035 1086 m 367 1289 q 417 1319 392 1308 q 476 1329 442 1329 q 587 1292 554 1329 q 619 1208 619 1256 q 613 1169 619 1186 q 593 1133 607 1151 q 580 1117 590 1129 q 565 1096 569 1104 q 560 1081 560 1088 q 544 1056 560 1064 q 504 1049 529 1049 q 477 1056 489 1049 q 465 1081 465 1064 q 488 1135 465 1106 q 519 1194 519 1178 q 506 1222 519 1211 q 472 1232 492 1232 q 444 1226 457 1232 q 414 1208 432 1219 q 392 1200 400 1200 q 357 1218 375 1200 q 344 1247 344 1231 q 367 1289 344 1269 z "},"Ữ":{"ha":979,"x_min":104,"x_max":1035,"o":"m 1035 1058 q 995 925 1035 982 q 875 846 956 868 l 875 386 q 826 182 875 271 q 690 43 778 93 q 490 -7 603 -7 q 290 43 378 -7 q 153 182 201 93 q 104 386 104 271 l 104 889 q 129 949 104 925 q 193 974 154 974 q 251 949 226 974 q 276 889 276 925 l 276 386 q 306 267 276 319 q 384 188 335 215 q 490 160 433 160 q 602 188 550 160 q 685 267 654 215 q 717 386 717 319 l 717 889 q 733 944 717 922 q 778 972 749 967 l 779 972 q 794 974 783 974 l 801 974 q 896 1058 896 982 q 915 1109 896 1086 q 967 1132 933 1132 q 1018 1109 1001 1132 q 1035 1058 1035 1086 m 314 1022 q 260 1049 282 1022 q 238 1121 238 1076 q 279 1206 238 1168 q 392 1243 321 1243 q 460 1229 428 1243 q 535 1190 492 1215 q 581 1165 564 1174 q 613 1157 599 1157 q 636 1165 628 1157 q 640 1186 644 1174 q 638 1206 638 1193 q 652 1241 638 1228 q 689 1254 667 1254 q 743 1227 721 1254 q 765 1158 765 1200 q 750 1103 765 1132 q 705 1053 735 1074 q 633 1033 675 1033 q 558 1047 593 1033 q 471 1088 524 1061 q 422 1112 440 1104 q 390 1119 404 1119 q 367 1111 375 1119 q 363 1090 358 1103 q 365 1071 365 1083 q 351 1035 365 1049 q 314 1022 336 1022 z "},"Ű":{"ha":979,"x_min":104,"x_max":875,"o":"m 794 974 q 853 950 831 974 q 875 889 875 926 l 875 386 q 826 182 875 271 q 690 43 778 93 q 490 -7 603 -7 q 290 43 378 -7 q 153 182 201 93 q 104 386 104 271 l 104 889 q 129 949 104 925 q 193 974 154 974 q 251 949 226 974 q 276 889 276 925 l 276 386 q 306 267 276 319 q 384 188 335 215 q 490 160 433 160 q 602 188 550 160 q 685 267 654 215 q 717 386 717 319 l 717 889 q 738 950 717 926 q 794 974 758 974 m 363 1083 q 333 1092 343 1083 q 324 1118 324 1101 q 340 1167 324 1140 l 397 1256 q 464 1299 424 1299 q 518 1278 494 1299 q 542 1231 542 1258 q 517 1183 542 1207 l 449 1118 q 409 1091 429 1099 q 363 1083 389 1083 m 615 1083 q 576 1117 576 1083 q 594 1167 576 1139 l 653 1257 q 680 1284 665 1275 q 718 1293 694 1293 q 772 1278 747 1293 q 796 1235 796 1264 q 771 1183 796 1207 l 701 1118 q 662 1091 682 1099 q 615 1083 642 1083 z "},"Ȗ":{"ha":979,"x_min":104,"x_max":875,"o":"m 794 974 q 853 950 831 974 q 875 889 875 926 l 875 386 q 826 182 875 271 q 690 43 778 93 q 490 -7 603 -7 q 290 43 378 -7 q 153 182 201 93 q 104 386 104 271 l 104 889 q 129 949 104 925 q 193 974 154 974 q 251 949 226 974 q 276 889 276 925 l 276 386 q 306 267 276 319 q 384 188 335 215 q 490 160 433 160 q 602 188 550 160 q 685 267 654 215 q 717 386 717 319 l 717 889 q 738 950 717 926 q 794 974 758 974 m 490 1289 q 627 1256 569 1289 q 710 1160 685 1222 q 717 1129 717 1142 q 703 1096 717 1108 q 669 1083 690 1083 q 624 1095 642 1083 q 586 1133 607 1107 q 490 1171 553 1171 q 394 1133 428 1171 q 356 1095 374 1107 q 311 1083 339 1083 q 277 1095 290 1083 q 264 1128 264 1107 q 269 1157 264 1142 q 353 1255 296 1221 q 490 1289 411 1289 z "},"Ū":{"ha":979,"x_min":104,"x_max":875,"o":"m 794 974 q 853 950 831 974 q 875 889 875 926 l 875 386 q 826 182 875 271 q 690 43 778 93 q 490 -7 603 -7 q 290 43 378 -7 q 153 182 201 93 q 104 386 104 271 l 104 889 q 129 949 104 925 q 193 974 154 974 q 251 949 226 974 q 276 889 276 925 l 276 386 q 306 267 276 319 q 384 188 335 215 q 490 160 433 160 q 602 188 550 160 q 685 267 654 215 q 717 386 717 319 l 717 889 q 738 950 717 926 q 794 974 758 974 m 322 1042 q 271 1058 289 1042 q 253 1104 253 1074 q 271 1149 253 1133 q 322 1165 289 1165 l 658 1165 q 710 1149 692 1165 q 728 1104 728 1133 q 658 1042 728 1042 l 322 1042 z "},"Ṻ":{"ha":979,"x_min":104,"x_max":875,"o":"m 794 974 q 853 950 831 974 q 875 889 875 926 l 875 386 q 826 182 875 271 q 690 43 778 93 q 490 -7 603 -7 q 290 43 378 -7 q 153 182 201 93 q 104 386 104 271 l 104 889 q 129 949 104 925 q 193 974 154 974 q 251 949 226 974 q 276 889 276 925 l 276 386 q 306 267 276 319 q 384 188 335 215 q 490 160 433 160 q 602 188 550 160 q 685 267 654 215 q 717 386 717 319 l 717 889 q 738 950 717 926 q 794 974 758 974 m 322 1042 q 271 1058 289 1042 q 253 1104 253 1074 q 271 1149 253 1133 q 322 1165 289 1165 l 658 1165 q 710 1149 692 1165 q 728 1104 728 1133 q 658 1042 728 1042 l 322 1042 m 350 1290 q 286 1306 306 1290 q 267 1360 267 1322 l 267 1385 q 288 1439 267 1424 q 351 1454 308 1454 q 417 1438 397 1454 q 438 1385 438 1422 l 438 1360 q 417 1306 438 1321 q 350 1290 397 1290 m 626 1290 q 563 1306 582 1290 q 543 1360 543 1322 l 543 1385 q 563 1439 543 1424 q 626 1454 583 1454 q 694 1439 674 1454 q 714 1385 714 1424 l 714 1360 q 694 1306 714 1321 q 626 1290 674 1290 z "},"Ų":{"ha":979,"x_min":104,"x_max":875,"o":"m 722 61 q 619 -28 654 17 q 583 -108 583 -72 q 596 -145 583 -132 q 626 -158 608 -158 q 656 -142 643 -158 q 713 -117 674 -117 q 756 -135 739 -117 q 774 -183 774 -153 q 751 -231 774 -206 q 690 -272 728 -256 q 613 -287 653 -287 q 492 -250 539 -287 q 446 -139 446 -212 q 489 -7 446 -68 q 289 43 376 -7 q 153 182 201 93 q 104 386 104 271 l 104 889 q 129 949 104 925 q 193 974 154 974 q 253 950 231 974 q 276 889 276 926 l 276 386 q 306 267 276 319 q 384 188 335 215 q 490 160 433 160 q 602 188 550 160 q 685 267 654 215 q 717 386 717 319 l 717 889 q 740 949 717 925 q 794 974 764 974 q 853 950 831 974 q 875 889 875 926 l 875 386 q 838 203 875 293 q 722 61 800 113 z "},"Ů":{"ha":979,"x_min":104,"x_max":875,"o":"m 794 974 q 853 950 831 974 q 875 889 875 926 l 875 386 q 826 182 875 271 q 690 43 778 93 q 490 -7 603 -7 q 290 43 378 -7 q 153 182 201 93 q 104 386 104 271 l 104 889 q 129 949 104 925 q 193 974 154 974 q 251 949 226 974 q 276 889 276 925 l 276 386 q 306 267 276 319 q 384 188 335 215 q 490 160 433 160 q 602 188 550 160 q 685 267 654 215 q 717 386 717 319 l 717 889 q 738 950 717 926 q 794 974 758 974 m 490 1042 q 413 1063 449 1042 q 354 1118 376 1083 q 332 1193 332 1153 q 379 1302 332 1257 q 490 1347 426 1347 q 601 1302 554 1347 q 649 1193 649 1257 q 626 1118 649 1153 q 568 1063 604 1083 q 490 1042 532 1042 m 490 1139 q 534 1154 517 1139 q 551 1193 551 1169 q 533 1235 551 1221 q 490 1250 515 1250 q 447 1235 464 1250 q 429 1193 429 1219 q 447 1154 429 1169 q 490 1139 464 1139 z "},"Ũ":{"ha":979,"x_min":104,"x_max":875,"o":"m 794 974 q 853 950 831 974 q 875 889 875 926 l 875 386 q 826 182 875 271 q 690 43 778 93 q 490 -7 603 -7 q 290 43 378 -7 q 153 182 201 93 q 104 386 104 271 l 104 889 q 129 949 104 925 q 193 974 154 974 q 251 949 226 974 q 276 889 276 925 l 276 386 q 306 267 276 319 q 384 188 335 215 q 490 160 433 160 q 602 188 550 160 q 685 267 654 215 q 717 386 717 319 l 717 889 q 738 950 717 926 q 794 974 758 974 m 303 1022 q 249 1049 271 1022 q 226 1121 226 1076 q 268 1206 226 1168 q 381 1243 310 1243 q 449 1229 417 1243 q 524 1190 481 1215 q 570 1165 553 1174 q 601 1157 588 1157 q 625 1165 617 1157 q 629 1186 633 1174 q 626 1206 626 1193 q 641 1241 626 1228 q 678 1254 656 1254 q 732 1227 710 1254 q 754 1158 754 1200 q 739 1103 754 1132 q 694 1053 724 1074 q 622 1033 664 1033 q 547 1047 582 1033 q 460 1088 513 1061 q 411 1112 429 1104 q 379 1119 393 1119 q 356 1111 364 1119 q 351 1090 347 1103 q 354 1071 354 1083 q 340 1035 354 1049 q 303 1022 325 1022 z "},"Ṹ":{"ha":979,"x_min":104,"x_max":875,"o":"m 794 974 q 853 950 831 974 q 875 889 875 926 l 875 386 q 826 182 875 271 q 690 43 778 93 q 490 -7 603 -7 q 290 43 378 -7 q 153 182 201 93 q 104 386 104 271 l 104 889 q 129 949 104 925 q 193 974 154 974 q 251 949 226 974 q 276 889 276 925 l 276 386 q 306 267 276 319 q 384 188 335 215 q 490 160 433 160 q 602 188 550 160 q 685 267 654 215 q 717 386 717 319 l 717 889 q 738 950 717 926 q 794 974 758 974 m 303 1022 q 249 1049 271 1022 q 226 1121 226 1076 q 268 1206 226 1168 q 381 1243 310 1243 q 449 1229 417 1243 q 524 1190 481 1215 q 570 1165 553 1174 q 601 1157 588 1157 q 625 1165 617 1157 q 629 1186 633 1174 q 626 1206 626 1193 q 641 1241 626 1228 q 678 1254 656 1254 q 732 1227 710 1254 q 754 1158 754 1200 q 739 1103 754 1132 q 694 1053 724 1074 q 622 1033 664 1033 q 547 1047 582 1033 q 460 1088 513 1061 q 411 1112 429 1104 q 379 1119 393 1119 q 356 1111 364 1119 q 351 1090 347 1103 q 354 1071 354 1083 q 340 1035 354 1049 q 303 1022 325 1022 m 492 1326 q 449 1340 465 1326 q 433 1376 433 1354 q 453 1414 433 1396 l 572 1519 q 640 1550 608 1550 q 690 1531 667 1550 q 714 1482 714 1511 q 701 1441 714 1461 q 663 1408 688 1421 l 524 1335 q 492 1326 510 1326 z "},"V":{"ha":942,"x_min":42,"x_max":900,"o":"m 814 975 q 874 951 849 975 q 900 894 900 928 q 892 857 900 876 l 549 54 q 514 14 536 28 q 467 0 492 0 q 423 15 443 1 q 392 53 403 28 l 49 858 q 42 893 42 872 q 69 953 42 931 q 126 976 97 976 q 171 963 150 976 q 203 922 192 949 l 482 265 l 738 922 q 769 961 749 947 q 814 975 790 975 z "},"W":{"ha":1310,"x_min":22,"x_max":1288,"o":"m 1197 976 q 1259 951 1231 976 q 1288 886 1288 925 q 1283 858 1288 874 l 1010 53 q 981 15 1001 29 q 935 0 960 1 q 888 14 910 0 q 853 54 865 28 l 656 503 l 457 54 q 422 14 444 28 q 375 0 400 0 q 329 15 350 1 q 300 53 308 29 l 26 858 q 22 886 22 874 q 51 951 22 925 q 114 976 79 976 q 164 962 142 976 q 194 922 186 947 l 401 294 l 582 728 q 614 767 593 753 q 661 781 635 782 q 708 767 688 782 q 739 728 728 753 l 910 299 l 1115 922 q 1147 962 1124 947 q 1197 976 1169 976 z "},"Ẃ":{"ha":1310,"x_min":22,"x_max":1288,"o":"m 1197 976 q 1259 951 1231 976 q 1288 886 1288 925 q 1283 858 1288 874 l 1010 53 q 981 15 1001 29 q 935 0 960 1 q 888 14 910 0 q 853 54 865 28 l 656 503 l 457 54 q 422 14 444 28 q 375 0 400 0 q 329 15 350 1 q 300 53 308 29 l 26 858 q 22 886 22 874 q 51 951 22 925 q 114 976 79 976 q 164 962 142 976 q 194 922 186 947 l 401 294 l 582 728 q 614 767 593 753 q 661 781 635 782 q 708 767 688 782 q 739 728 728 753 l 910 299 l 1115 922 q 1147 962 1124 947 q 1197 976 1169 976 m 657 1025 q 615 1039 631 1025 q 599 1075 599 1053 q 618 1113 599 1094 l 738 1218 q 806 1249 774 1249 q 856 1229 832 1249 q 879 1181 879 1210 q 866 1140 879 1160 q 828 1107 853 1119 l 689 1033 q 657 1025 675 1025 z "},"Ŵ":{"ha":1310,"x_min":22,"x_max":1288,"o":"m 1197 976 q 1259 951 1231 976 q 1288 886 1288 925 q 1283 858 1288 874 l 1010 53 q 981 15 1001 29 q 935 0 960 1 q 888 14 910 0 q 853 54 865 28 l 656 503 l 457 54 q 422 14 444 28 q 375 0 400 0 q 329 15 350 1 q 300 53 308 29 l 26 858 q 22 886 22 874 q 51 951 22 925 q 114 976 79 976 q 164 962 142 976 q 194 922 186 947 l 401 294 l 582 728 q 614 767 593 753 q 661 781 635 782 q 708 767 688 782 q 739 728 728 753 l 910 299 l 1115 922 q 1147 962 1124 947 q 1197 976 1169 976 m 838 1104 q 854 1082 850 1090 q 858 1063 858 1074 q 846 1039 858 1050 q 815 1028 833 1028 q 788 1035 803 1028 q 744 1058 772 1042 l 654 1111 l 564 1058 q 524 1037 542 1046 q 493 1028 506 1028 q 463 1039 475 1028 q 450 1063 450 1050 q 454 1082 450 1074 q 471 1104 458 1090 l 558 1204 q 596 1235 576 1225 q 643 1244 615 1244 l 665 1244 q 712 1235 692 1244 q 750 1204 732 1225 l 838 1104 z "},"Ẅ":{"ha":1310,"x_min":22,"x_max":1288,"o":"m 1197 976 q 1259 951 1231 976 q 1288 886 1288 925 q 1283 858 1288 874 l 1010 53 q 981 15 1001 29 q 935 0 960 1 q 888 14 910 0 q 853 54 865 28 l 656 503 l 457 54 q 422 14 444 28 q 375 0 400 0 q 329 15 350 1 q 300 53 308 29 l 26 858 q 22 886 22 874 q 51 951 22 925 q 114 976 79 976 q 164 962 142 976 q 194 922 186 947 l 401 294 l 582 728 q 614 767 593 753 q 661 781 635 782 q 708 767 688 782 q 739 728 728 753 l 910 299 l 1115 922 q 1147 962 1124 947 q 1197 976 1169 976 m 515 1056 q 451 1072 471 1056 q 432 1125 432 1088 l 432 1150 q 453 1204 432 1189 q 517 1219 474 1219 q 583 1203 563 1219 q 603 1150 603 1188 l 603 1125 q 583 1071 603 1086 q 515 1056 563 1056 m 792 1056 q 728 1072 747 1056 q 708 1125 708 1088 l 708 1150 q 728 1204 708 1189 q 792 1219 749 1219 q 859 1204 839 1219 q 879 1150 879 1189 l 879 1125 q 859 1071 879 1086 q 792 1056 839 1056 z "},"Ẁ":{"ha":1310,"x_min":22,"x_max":1288,"o":"m 1197 976 q 1259 951 1231 976 q 1288 886 1288 925 q 1283 858 1288 874 l 1010 53 q 981 15 1001 29 q 935 0 960 1 q 888 14 910 0 q 853 54 865 28 l 656 503 l 457 54 q 422 14 444 28 q 375 0 400 0 q 329 15 350 1 q 300 53 308 29 l 26 858 q 22 886 22 874 q 51 951 22 925 q 114 976 79 976 q 164 962 142 976 q 194 922 186 947 l 401 294 l 582 728 q 614 767 593 753 q 661 781 635 782 q 708 767 688 782 q 739 728 728 753 l 910 299 l 1115 922 q 1147 962 1124 947 q 1197 976 1169 976 m 653 1031 q 621 1039 638 1031 l 482 1113 q 444 1146 457 1126 q 431 1186 431 1165 q 454 1235 431 1215 q 504 1254 478 1254 q 572 1224 536 1254 l 692 1118 q 711 1081 711 1100 q 695 1044 711 1058 q 653 1031 679 1031 z "},"X":{"ha":910,"x_min":63,"x_max":847,"o":"m 829 128 q 846 76 846 106 q 819 17 846 40 q 763 -7 793 -7 q 694 29 722 -7 l 447 358 l 207 32 q 138 -7 179 -7 q 85 15 107 -7 q 63 67 63 38 q 83 124 63 97 l 351 486 l 83 842 q 65 892 65 864 q 92 951 65 926 q 150 976 118 976 q 218 940 190 976 l 463 615 l 701 933 q 733 963 715 953 q 769 974 751 974 q 824 949 800 974 q 847 896 847 925 q 829 846 847 869 l 558 489 l 829 128 z "},"Y":{"ha":828,"x_min":24,"x_max":807,"o":"m 807 890 q 792 839 807 863 l 501 424 l 501 85 q 478 24 501 49 q 421 0 454 0 q 362 24 386 0 q 338 85 338 49 l 338 443 l 49 826 q 24 892 24 860 q 52 952 24 928 q 113 976 81 976 q 181 938 151 976 l 425 600 l 654 935 q 724 976 683 976 q 782 951 757 976 q 807 890 807 926 z "},"Ý":{"ha":828,"x_min":24,"x_max":807,"o":"m 807 890 q 792 839 807 863 l 501 424 l 501 85 q 478 24 501 49 q 421 0 454 0 q 362 24 386 0 q 338 85 338 49 l 338 443 l 49 826 q 24 892 24 860 q 52 952 24 928 q 113 976 81 976 q 181 938 151 976 l 425 600 l 654 935 q 724 976 683 976 q 782 951 757 976 q 807 890 807 926 m 415 1025 q 373 1039 389 1025 q 357 1075 357 1053 q 376 1113 357 1094 l 496 1218 q 564 1249 532 1249 q 614 1229 590 1249 q 638 1181 638 1210 q 624 1140 638 1160 q 586 1107 611 1119 l 447 1033 q 415 1025 433 1025 z "},"Ŷ":{"ha":828,"x_min":24,"x_max":807,"o":"m 807 890 q 792 839 807 863 l 501 424 l 501 85 q 478 24 501 49 q 421 0 454 0 q 362 24 386 0 q 338 85 338 49 l 338 443 l 49 826 q 24 892 24 860 q 52 952 24 928 q 113 976 81 976 q 181 938 151 976 l 425 600 l 654 935 q 724 976 683 976 q 782 951 757 976 q 807 890 807 926 m 596 1104 q 613 1082 608 1090 q 617 1063 617 1074 q 604 1039 617 1050 q 574 1028 592 1028 q 546 1035 561 1028 q 503 1058 531 1042 l 413 1111 l 322 1058 q 282 1037 300 1046 q 251 1028 264 1028 q 221 1039 233 1028 q 208 1063 208 1050 q 213 1082 208 1074 q 229 1104 217 1090 l 317 1204 q 354 1235 335 1225 q 401 1244 374 1244 l 424 1244 q 470 1235 450 1244 q 508 1204 490 1225 l 596 1104 z "},"Ÿ":{"ha":828,"x_min":24,"x_max":807,"o":"m 807 890 q 792 839 807 863 l 501 424 l 501 85 q 478 24 501 49 q 421 0 454 0 q 362 24 386 0 q 338 85 338 49 l 338 443 l 49 826 q 24 892 24 860 q 52 952 24 928 q 113 976 81 976 q 181 938 151 976 l 425 600 l 654 935 q 724 976 683 976 q 782 951 757 976 q 807 890 807 926 m 274 1056 q 210 1072 229 1056 q 190 1125 190 1088 l 190 1150 q 211 1204 190 1189 q 275 1219 232 1219 q 341 1203 321 1219 q 361 1150 361 1188 l 361 1125 q 341 1071 361 1086 q 274 1056 321 1056 m 550 1056 q 486 1072 506 1056 q 467 1125 467 1088 l 467 1150 q 487 1204 467 1189 q 550 1219 507 1219 q 617 1204 597 1219 q 638 1150 638 1189 l 638 1125 q 617 1071 638 1086 q 550 1056 597 1056 z "},"Ẏ":{"ha":828,"x_min":24,"x_max":807,"o":"m 807 890 q 792 839 807 863 l 501 424 l 501 85 q 478 24 501 49 q 421 0 454 0 q 362 24 386 0 q 338 85 338 49 l 338 443 l 49 826 q 24 892 24 860 q 52 952 24 928 q 113 976 81 976 q 181 938 151 976 l 425 600 l 654 935 q 724 976 683 976 q 782 951 757 976 q 807 890 807 926 m 411 1028 q 346 1043 365 1028 q 326 1097 326 1058 l 326 1124 q 347 1178 326 1163 q 413 1193 367 1193 q 482 1178 463 1193 q 501 1124 501 1163 l 501 1097 q 481 1042 501 1057 q 411 1028 460 1028 z "},"Ỵ":{"ha":828,"x_min":24,"x_max":807,"o":"m 807 890 q 792 839 807 863 l 501 424 l 501 85 q 478 24 501 49 q 421 0 454 0 q 362 24 386 0 q 338 85 338 49 l 338 443 l 49 826 q 24 892 24 860 q 52 952 24 928 q 113 976 81 976 q 181 938 151 976 l 425 600 l 654 935 q 724 976 683 976 q 782 951 757 976 q 807 890 807 926 m 418 -206 q 353 -190 372 -206 q 333 -136 333 -175 l 333 -110 q 354 -56 333 -71 q 418 -40 375 -40 q 489 -56 469 -40 q 508 -110 508 -71 l 508 -136 q 488 -191 508 -176 q 418 -206 467 -206 z "},"Ỳ":{"ha":828,"x_min":24,"x_max":807,"o":"m 807 890 q 792 839 807 863 l 501 424 l 501 85 q 478 24 501 49 q 421 0 454 0 q 362 24 386 0 q 338 85 338 49 l 338 443 l 49 826 q 24 892 24 860 q 52 952 24 928 q 113 976 81 976 q 181 938 151 976 l 425 600 l 654 935 q 724 976 683 976 q 782 951 757 976 q 807 890 807 926 m 411 1031 q 379 1039 396 1031 l 240 1113 q 202 1146 215 1126 q 189 1186 189 1165 q 213 1235 189 1215 q 263 1254 236 1254 q 331 1224 294 1254 l 450 1118 q 469 1081 469 1100 q 453 1044 469 1058 q 411 1031 438 1031 z "},"Ỷ":{"ha":828,"x_min":24,"x_max":807,"o":"m 807 890 q 792 839 807 863 l 501 424 l 501 85 q 478 24 501 49 q 421 0 454 0 q 362 24 386 0 q 338 85 338 49 l 338 443 l 49 826 q 24 892 24 860 q 52 952 24 928 q 113 976 81 976 q 181 938 151 976 l 425 600 l 654 935 q 724 976 683 976 q 782 951 757 976 q 807 890 807 926 m 279 1289 q 329 1319 304 1308 q 389 1329 354 1329 q 499 1292 467 1329 q 532 1208 532 1256 q 526 1169 532 1186 q 506 1133 519 1151 q 492 1117 503 1129 q 477 1096 482 1104 q 472 1081 472 1088 q 457 1056 472 1064 q 417 1049 442 1049 q 390 1056 401 1049 q 378 1081 378 1064 q 400 1135 378 1106 q 432 1194 432 1178 q 418 1222 432 1211 q 385 1232 404 1232 q 357 1226 369 1232 q 326 1208 344 1219 q 304 1200 313 1200 q 269 1218 288 1200 q 257 1247 257 1231 q 279 1289 257 1269 z "},"Ȳ":{"ha":828,"x_min":24,"x_max":807,"o":"m 807 890 q 792 839 807 863 l 501 424 l 501 85 q 478 24 501 49 q 421 0 454 0 q 362 24 386 0 q 338 85 338 49 l 338 443 l 49 826 q 24 892 24 860 q 52 952 24 928 q 113 976 81 976 q 181 938 151 976 l 425 600 l 654 935 q 724 976 683 976 q 782 951 757 976 q 807 890 807 926 m 246 1042 q 194 1058 213 1042 q 176 1104 176 1074 q 194 1149 176 1133 q 246 1165 213 1165 l 582 1165 q 633 1149 615 1165 q 651 1104 651 1133 q 582 1042 651 1042 l 246 1042 z "},"Ỹ":{"ha":828,"x_min":24,"x_max":807,"o":"m 807 890 q 792 839 807 863 l 501 424 l 501 85 q 478 24 501 49 q 421 0 454 0 q 362 24 386 0 q 338 85 338 49 l 338 443 l 49 826 q 24 892 24 860 q 52 952 24 928 q 113 976 81 976 q 181 938 151 976 l 425 600 l 654 935 q 724 976 683 976 q 782 951 757 976 q 807 890 807 926 m 226 1022 q 172 1049 194 1022 q 150 1121 150 1076 q 192 1206 150 1168 q 304 1243 233 1243 q 372 1229 340 1243 q 447 1190 404 1215 q 494 1165 476 1174 q 525 1157 511 1157 q 549 1165 540 1157 q 553 1186 557 1174 q 550 1206 550 1193 q 565 1241 550 1228 q 601 1254 579 1254 q 656 1227 633 1254 q 678 1158 678 1200 q 663 1103 678 1132 q 617 1053 647 1074 q 546 1033 588 1033 q 471 1047 506 1033 q 383 1088 436 1061 q 335 1112 353 1104 q 303 1119 317 1119 q 279 1111 288 1119 q 275 1090 271 1103 q 278 1071 278 1083 q 263 1035 278 1049 q 226 1022 249 1022 z "},"Z":{"ha":900,"x_min":49,"x_max":851,"o":"m 851 890 q 832 838 851 864 l 304 160 l 747 160 q 808 138 785 160 q 832 81 832 117 q 808 23 832 46 q 747 0 783 0 l 138 0 q 75 25 101 0 q 49 82 49 50 q 68 135 49 108 l 594 813 l 193 813 q 132 835 156 813 q 108 893 108 857 q 133 950 108 928 q 193 972 157 972 l 761 972 q 823 949 794 972 q 851 890 851 925 z "},"Ź":{"ha":900,"x_min":49,"x_max":851,"o":"m 851 890 q 832 838 851 864 l 304 160 l 747 160 q 808 138 785 160 q 832 81 832 117 q 808 23 832 46 q 747 0 783 0 l 138 0 q 75 25 101 0 q 49 82 49 50 q 68 135 49 108 l 594 813 l 193 813 q 132 835 156 813 q 108 893 108 857 q 133 950 108 928 q 193 972 157 972 l 761 972 q 823 949 794 972 q 851 890 851 925 m 451 1025 q 409 1039 425 1025 q 393 1075 393 1053 q 413 1113 393 1094 l 532 1218 q 600 1249 568 1249 q 650 1229 626 1249 q 674 1181 674 1210 q 660 1140 674 1160 q 622 1107 647 1119 l 483 1033 q 451 1025 469 1025 z "},"Ž":{"ha":900,"x_min":49,"x_max":851,"o":"m 851 890 q 832 838 851 864 l 304 160 l 747 160 q 808 138 785 160 q 832 81 832 117 q 808 23 832 46 q 747 0 783 0 l 138 0 q 75 25 101 0 q 49 82 49 50 q 68 135 49 108 l 594 813 l 193 813 q 132 835 156 813 q 108 893 108 857 q 133 950 108 928 q 193 972 157 972 l 761 972 q 823 949 794 972 q 851 890 851 925 m 613 1244 q 643 1233 631 1244 q 656 1210 656 1222 q 651 1192 656 1200 q 635 1168 647 1183 l 547 1068 q 509 1038 529 1047 q 463 1028 489 1028 l 440 1028 q 393 1038 413 1028 q 356 1068 374 1047 l 268 1168 q 251 1192 256 1183 q 247 1210 247 1200 q 260 1233 247 1222 q 290 1244 272 1244 q 361 1217 318 1244 l 451 1158 l 542 1217 q 613 1244 585 1244 z "},"Ż":{"ha":900,"x_min":49,"x_max":851,"o":"m 851 890 q 832 838 851 864 l 304 160 l 747 160 q 808 138 785 160 q 832 81 832 117 q 808 23 832 46 q 747 0 783 0 l 138 0 q 75 25 101 0 q 49 82 49 50 q 68 135 49 108 l 594 813 l 193 813 q 132 835 156 813 q 108 893 108 857 q 133 950 108 928 q 193 972 157 972 l 761 972 q 823 949 794 972 q 851 890 851 925 m 447 1028 q 382 1043 401 1028 q 363 1097 363 1058 l 363 1124 q 383 1178 363 1163 q 449 1193 403 1193 q 518 1178 499 1193 q 538 1124 538 1163 l 538 1097 q 517 1042 538 1057 q 447 1028 496 1028 z "},"Ẓ":{"ha":900,"x_min":49,"x_max":851,"o":"m 851 890 q 832 838 851 864 l 304 160 l 747 160 q 808 138 785 160 q 832 81 832 117 q 808 23 832 46 q 747 0 783 0 l 138 0 q 75 25 101 0 q 49 82 49 50 q 68 135 49 108 l 594 813 l 193 813 q 132 835 156 813 q 108 893 108 857 q 133 950 108 928 q 193 972 157 972 l 761 972 q 823 949 794 972 q 851 890 851 925 m 447 -204 q 382 -189 401 -204 q 363 -135 363 -174 l 363 -108 q 383 -54 363 -69 q 447 -39 404 -39 q 518 -54 499 -39 q 538 -108 538 -69 l 538 -135 q 517 -190 538 -175 q 447 -204 496 -204 z "},"a":{"ha":865,"x_min":49,"x_max":775,"o":"m 692 757 q 751 733 728 757 q 775 672 775 710 l 775 85 q 751 24 775 49 q 692 0 728 0 q 633 24 656 0 q 608 83 610 47 q 515 15 574 43 q 390 -14 456 -14 q 217 35 294 -14 q 94 172 139 85 q 49 371 49 260 q 93 570 49 482 q 215 708 138 658 q 385 757 292 757 q 510 733 451 757 q 608 671 568 708 l 608 672 q 632 733 608 708 q 692 757 656 757 m 411 139 q 558 205 501 139 q 615 371 615 271 q 558 538 615 471 q 411 604 501 604 q 265 538 322 604 q 208 371 208 471 q 265 205 208 271 q 411 139 321 139 z "},"á":{"ha":865,"x_min":49,"x_max":775,"o":"m 692 757 q 751 733 728 757 q 775 672 775 710 l 775 85 q 751 24 775 49 q 692 0 728 0 q 633 24 656 0 q 608 83 610 47 q 515 15 574 43 q 390 -14 456 -14 q 217 35 294 -14 q 94 172 139 85 q 49 371 49 260 q 93 570 49 482 q 215 708 138 658 q 385 757 292 757 q 510 733 451 757 q 608 671 568 708 l 608 672 q 632 733 608 708 q 692 757 656 757 m 411 139 q 558 205 501 139 q 615 371 615 271 q 558 538 615 471 q 411 604 501 604 q 265 538 322 604 q 208 371 208 471 q 265 205 208 271 q 411 139 321 139 m 426 790 q 397 803 413 790 q 382 836 381 815 q 390 863 382 849 l 471 1004 q 504 1044 485 1029 q 547 1060 524 1060 q 603 1040 585 1060 q 621 990 622 1021 q 594 931 618 958 l 489 814 q 426 790 467 790 z "},"ă":{"ha":865,"x_min":49,"x_max":775,"o":"m 692 757 q 751 733 728 757 q 775 672 775 710 l 775 85 q 751 24 775 49 q 692 0 728 0 q 633 24 656 0 q 608 83 610 47 q 515 15 574 43 q 390 -14 456 -14 q 217 35 294 -14 q 94 172 139 85 q 49 371 49 260 q 93 570 49 482 q 215 708 138 658 q 385 757 292 757 q 510 733 451 757 q 608 671 568 708 l 608 672 q 632 733 608 708 q 692 757 656 757 m 411 139 q 558 205 501 139 q 615 371 615 271 q 558 538 615 471 q 411 604 501 604 q 265 538 322 604 q 208 371 208 471 q 265 205 208 271 q 411 139 321 139 m 419 793 q 283 826 340 793 q 200 922 225 860 q 193 953 193 940 q 206 986 193 974 q 240 999 219 999 q 285 987 268 999 q 324 949 303 975 q 419 911 357 911 q 515 949 482 911 q 553 987 536 975 q 599 999 571 999 q 633 987 619 999 q 646 954 646 975 q 640 925 646 940 q 556 827 614 861 q 419 793 499 793 z "},"ắ":{"ha":865,"x_min":49,"x_max":775,"o":"m 692 757 q 751 733 728 757 q 775 672 775 710 l 775 85 q 751 24 775 49 q 692 0 728 0 q 633 24 656 0 q 608 83 610 47 q 515 15 574 43 q 390 -14 456 -14 q 217 35 294 -14 q 94 172 139 85 q 49 371 49 260 q 93 570 49 482 q 215 708 138 658 q 385 757 292 757 q 510 733 451 757 q 608 671 568 708 l 608 672 q 632 733 608 708 q 692 757 656 757 m 411 139 q 558 205 501 139 q 615 371 615 271 q 558 538 615 471 q 411 604 501 604 q 265 538 322 604 q 208 371 208 471 q 265 205 208 271 q 411 139 321 139 m 436 801 q 299 835 357 801 q 217 931 242 868 q 210 961 210 949 q 223 994 210 982 q 257 1007 236 1007 q 302 995 285 1007 q 340 957 319 983 q 436 919 374 919 q 532 957 499 919 q 570 995 553 983 q 615 1007 588 1007 q 649 995 636 1007 q 663 963 663 983 q 657 933 663 949 q 573 835 631 869 q 436 801 515 801 m 443 994 q 413 1007 429 994 q 399 1040 397 1019 q 407 1067 399 1053 l 488 1208 q 521 1249 501 1233 q 564 1264 540 1264 q 620 1244 601 1264 q 638 1194 639 1225 q 611 1135 635 1163 l 506 1018 q 443 994 483 994 z "},"ặ":{"ha":865,"x_min":49,"x_max":775,"o":"m 692 757 q 751 733 728 757 q 775 672 775 710 l 775 85 q 751 24 775 49 q 692 0 728 0 q 633 24 656 0 q 608 83 610 47 q 515 15 574 43 q 390 -14 456 -14 q 217 35 294 -14 q 94 172 139 85 q 49 371 49 260 q 93 570 49 482 q 215 708 138 658 q 385 757 292 757 q 510 733 451 757 q 608 671 568 708 l 608 672 q 632 733 608 708 q 692 757 656 757 m 411 139 q 558 205 501 139 q 615 371 615 271 q 558 538 615 471 q 411 604 501 604 q 265 538 322 604 q 208 371 208 471 q 265 205 208 271 q 411 139 321 139 m 431 -222 q 365 -207 385 -222 q 346 -153 346 -192 l 346 -126 q 367 -72 346 -87 q 431 -57 388 -57 q 501 -72 482 -57 q 521 -126 521 -87 l 521 -153 q 500 -208 521 -193 q 431 -222 479 -222 m 419 793 q 283 826 340 793 q 200 922 225 860 q 193 953 193 940 q 206 986 193 974 q 240 999 219 999 q 285 987 268 999 q 324 949 303 975 q 419 911 357 911 q 515 949 482 911 q 553 987 536 975 q 599 999 571 999 q 633 987 619 999 q 646 954 646 975 q 640 925 646 940 q 556 827 614 861 q 419 793 499 793 z "},"ằ":{"ha":865,"x_min":49,"x_max":775,"o":"m 692 757 q 751 733 728 757 q 775 672 775 710 l 775 85 q 751 24 775 49 q 692 0 728 0 q 633 24 656 0 q 608 83 610 47 q 515 15 574 43 q 390 -14 456 -14 q 217 35 294 -14 q 94 172 139 85 q 49 371 49 260 q 93 570 49 482 q 215 708 138 658 q 385 757 292 757 q 510 733 451 757 q 608 671 568 708 l 608 672 q 632 733 608 708 q 692 757 656 757 m 411 139 q 558 205 501 139 q 615 371 615 271 q 558 538 615 471 q 411 604 501 604 q 265 538 322 604 q 208 371 208 471 q 265 205 208 271 q 411 139 321 139 m 444 810 q 308 843 365 810 q 225 939 250 876 q 218 969 218 957 q 231 1003 218 990 q 265 1015 244 1015 q 310 1003 293 1015 q 349 965 328 992 q 444 928 382 928 q 540 965 507 928 q 578 1003 561 992 q 624 1015 596 1015 q 658 1003 644 1015 q 671 971 671 992 q 665 942 671 957 q 581 844 639 878 q 444 810 524 810 m 449 1004 q 417 1013 433 1004 l 278 1086 q 240 1119 253 1100 q 226 1160 226 1139 q 250 1208 226 1189 q 300 1228 274 1228 q 368 1197 332 1228 l 488 1092 q 507 1054 507 1074 q 491 1018 507 1032 q 449 1004 475 1004 z "},"ẳ":{"ha":865,"x_min":49,"x_max":775,"o":"m 692 757 q 751 733 728 757 q 775 672 775 710 l 775 85 q 751 24 775 49 q 692 0 728 0 q 633 24 656 0 q 608 83 610 47 q 515 15 574 43 q 390 -14 456 -14 q 217 35 294 -14 q 94 172 139 85 q 49 371 49 260 q 93 570 49 482 q 215 708 138 658 q 385 757 292 757 q 510 733 451 757 q 608 671 568 708 l 608 672 q 632 733 608 708 q 692 757 656 757 m 411 139 q 558 205 501 139 q 615 371 615 271 q 558 538 615 471 q 411 604 501 604 q 265 538 322 604 q 208 371 208 471 q 265 205 208 271 q 411 139 321 139 m 428 821 q 291 854 349 821 q 208 950 233 888 q 201 981 201 968 q 215 1014 201 1001 q 249 1026 228 1026 q 294 1015 276 1026 q 332 976 311 1003 q 428 939 365 939 q 524 976 490 939 q 562 1015 544 1003 q 607 1026 579 1026 q 641 1015 628 1026 q 654 982 654 1003 q 649 953 654 968 q 565 855 622 889 q 428 821 507 821 m 293 1256 q 343 1285 318 1275 q 403 1296 368 1296 q 513 1259 481 1296 q 546 1175 546 1222 q 540 1135 546 1153 q 519 1100 533 1118 q 506 1083 517 1096 q 491 1063 496 1071 q 486 1047 486 1054 q 472 1019 486 1031 q 439 1008 458 1008 q 406 1019 419 1008 q 392 1047 392 1031 q 414 1101 392 1072 q 446 1161 446 1144 q 432 1188 446 1178 q 399 1199 418 1199 q 371 1192 383 1199 q 340 1175 358 1186 q 318 1167 326 1167 q 283 1185 301 1167 q 271 1214 271 1197 q 293 1256 271 1236 z "},"ẵ":{"ha":865,"x_min":49,"x_max":775,"o":"m 692 757 q 751 733 728 757 q 775 672 775 710 l 775 85 q 751 24 775 49 q 692 0 728 0 q 633 24 656 0 q 608 83 610 47 q 515 15 574 43 q 390 -14 456 -14 q 217 35 294 -14 q 94 172 139 85 q 49 371 49 260 q 93 570 49 482 q 215 708 138 658 q 385 757 292 757 q 510 733 451 757 q 608 671 568 708 l 608 672 q 632 733 608 708 q 692 757 656 757 m 411 139 q 558 205 501 139 q 615 371 615 271 q 558 538 615 471 q 411 604 501 604 q 265 538 322 604 q 208 371 208 471 q 265 205 208 271 q 411 139 321 139 m 397 793 q 260 826 318 793 q 178 922 203 860 q 171 953 171 940 q 184 986 171 974 q 218 999 197 999 q 263 987 246 999 q 301 949 281 975 q 397 911 335 911 q 493 949 460 911 q 531 987 514 975 q 576 999 549 999 q 610 987 597 999 q 624 954 624 975 q 618 925 624 940 q 534 827 592 861 q 397 793 476 793 m 211 1015 q 157 1041 179 1015 q 135 1110 135 1067 q 179 1195 135 1158 q 306 1232 224 1232 q 372 1217 342 1232 q 440 1176 401 1203 q 480 1150 464 1158 q 510 1142 496 1142 q 533 1150 525 1142 q 538 1171 542 1158 q 535 1190 535 1178 q 549 1226 535 1213 q 586 1239 564 1239 q 640 1214 618 1239 q 663 1147 663 1189 q 646 1092 663 1121 q 594 1042 629 1063 q 504 1022 558 1022 q 446 1036 476 1022 q 374 1075 415 1050 q 322 1103 340 1094 q 288 1113 303 1113 q 264 1104 272 1113 q 260 1083 256 1096 q 263 1064 263 1076 q 248 1028 263 1042 q 211 1015 233 1015 z "},"ǎ":{"ha":865,"x_min":49,"x_max":775,"o":"m 692 757 q 751 733 728 757 q 775 672 775 710 l 775 85 q 751 24 775 49 q 692 0 728 0 q 633 24 656 0 q 608 83 610 47 q 515 15 574 43 q 390 -14 456 -14 q 217 35 294 -14 q 94 172 139 85 q 49 371 49 260 q 93 570 49 482 q 215 708 138 658 q 385 757 292 757 q 510 733 451 757 q 608 671 568 708 l 608 672 q 632 733 608 708 q 692 757 656 757 m 411 139 q 558 205 501 139 q 615 371 615 271 q 558 538 615 471 q 411 604 501 604 q 265 538 322 604 q 208 371 208 471 q 265 205 208 271 q 411 139 321 139 m 564 1036 q 596 1026 582 1036 q 610 1000 610 1015 q 588 951 610 978 l 526 875 q 490 843 510 853 q 442 833 469 833 l 392 833 q 344 843 364 833 q 307 875 324 853 l 246 951 q 229 996 229 974 q 244 1025 229 1014 q 286 1036 258 1036 q 349 1004 311 1036 l 418 944 l 488 1004 q 524 1029 510 1022 q 564 1036 539 1036 z "},"â":{"ha":865,"x_min":49,"x_max":775,"o":"m 692 757 q 751 733 728 757 q 775 672 775 710 l 775 85 q 751 24 775 49 q 692 0 728 0 q 633 24 656 0 q 608 83 610 47 q 515 15 574 43 q 390 -14 456 -14 q 217 35 294 -14 q 94 172 139 85 q 49 371 49 260 q 93 570 49 482 q 215 708 138 658 q 385 757 292 757 q 510 733 451 757 q 608 671 568 708 l 608 672 q 632 733 608 708 q 692 757 656 757 m 411 139 q 558 205 501 139 q 615 371 615 271 q 558 538 615 471 q 411 604 501 604 q 265 538 322 604 q 208 371 208 471 q 265 205 208 271 q 411 139 321 139 m 589 910 q 603 888 600 896 q 606 867 606 879 q 594 842 606 853 q 564 832 582 832 q 533 838 543 832 q 512 852 522 843 q 496 865 501 861 l 422 931 l 343 865 q 326 851 338 861 q 303 836 314 840 q 275 832 292 832 q 245 842 257 832 q 233 867 233 853 q 236 888 233 879 q 250 910 239 896 l 318 996 q 403 1036 350 1036 l 453 1036 q 497 1028 481 1036 q 528 996 513 1019 l 589 910 z "},"ấ":{"ha":865,"x_min":49,"x_max":804,"o":"m 692 757 q 751 733 728 757 q 775 672 775 710 l 775 85 q 751 24 775 49 q 692 0 728 0 q 633 24 656 0 q 608 83 610 47 q 515 15 574 43 q 390 -14 456 -14 q 217 35 294 -14 q 94 172 139 85 q 49 371 49 260 q 93 570 49 482 q 215 708 138 658 q 385 757 292 757 q 510 733 451 757 q 608 671 568 708 l 608 672 q 632 733 608 708 q 692 757 656 757 m 411 139 q 558 205 501 139 q 615 371 615 271 q 558 538 615 471 q 411 604 501 604 q 265 538 322 604 q 208 371 208 471 q 265 205 208 271 q 411 139 321 139 m 579 910 q 593 888 590 896 q 596 867 596 879 q 584 842 596 853 q 554 832 572 832 q 523 838 533 832 q 502 852 513 843 q 486 865 492 861 l 413 931 l 333 865 q 316 851 328 861 q 293 836 304 840 q 265 832 282 832 q 235 842 247 832 q 224 867 224 853 q 226 888 224 879 q 240 910 229 896 l 308 996 q 393 1036 340 1036 l 443 1036 q 487 1028 471 1036 q 518 996 503 1019 l 579 910 m 610 943 q 580 956 596 943 q 565 989 564 968 q 574 1015 565 1001 l 654 1157 q 688 1197 668 1182 q 731 1213 707 1213 q 787 1193 768 1213 q 804 1143 806 1174 q 778 1083 801 1111 l 672 967 q 610 943 650 943 z "},"ậ":{"ha":865,"x_min":49,"x_max":775,"o":"m 692 757 q 751 733 728 757 q 775 672 775 710 l 775 85 q 751 24 775 49 q 692 0 728 0 q 633 24 656 0 q 608 83 610 47 q 515 15 574 43 q 390 -14 456 -14 q 217 35 294 -14 q 94 172 139 85 q 49 371 49 260 q 93 570 49 482 q 215 708 138 658 q 385 757 292 757 q 510 733 451 757 q 608 671 568 708 l 608 672 q 632 733 608 708 q 692 757 656 757 m 411 139 q 558 205 501 139 q 615 371 615 271 q 558 538 615 471 q 411 604 501 604 q 265 538 322 604 q 208 371 208 471 q 265 205 208 271 q 411 139 321 139 m 431 -222 q 365 -207 385 -222 q 346 -153 346 -192 l 346 -126 q 367 -72 346 -87 q 431 -57 388 -57 q 501 -72 482 -57 q 521 -126 521 -87 l 521 -153 q 500 -208 521 -193 q 431 -222 479 -222 m 589 910 q 603 888 600 896 q 606 867 606 879 q 594 842 606 853 q 564 832 582 832 q 533 838 543 832 q 512 852 522 843 q 496 865 501 861 l 422 931 l 343 865 q 326 851 338 861 q 303 836 314 840 q 275 832 292 832 q 245 842 257 832 q 233 867 233 853 q 236 888 233 879 q 250 910 239 896 l 318 996 q 403 1036 350 1036 l 453 1036 q 497 1028 481 1036 q 528 996 513 1019 l 589 910 z "},"ầ":{"ha":865,"x_min":49,"x_max":775,"o":"m 692 757 q 751 733 728 757 q 775 672 775 710 l 775 85 q 751 24 775 49 q 692 0 728 0 q 633 24 656 0 q 608 83 610 47 q 515 15 574 43 q 390 -14 456 -14 q 217 35 294 -14 q 94 172 139 85 q 49 371 49 260 q 93 570 49 482 q 215 708 138 658 q 385 757 292 757 q 510 733 451 757 q 608 671 568 708 l 608 672 q 632 733 608 708 q 692 757 656 757 m 411 139 q 558 205 501 139 q 615 371 615 271 q 558 538 615 471 q 411 604 501 604 q 265 538 322 604 q 208 371 208 471 q 265 205 208 271 q 411 139 321 139 m 579 910 q 593 888 590 896 q 596 867 596 879 q 584 842 596 853 q 554 832 572 832 q 523 838 533 832 q 502 852 513 843 q 486 865 492 861 l 413 931 l 333 865 q 316 851 328 861 q 293 836 304 840 q 265 832 282 832 q 235 842 247 832 q 224 867 224 853 q 226 888 224 879 q 240 910 229 896 l 308 996 q 393 1036 340 1036 l 443 1036 q 487 1028 471 1036 q 518 996 503 1019 l 579 910 m 614 1019 q 582 1028 599 1019 l 443 1101 q 405 1135 418 1115 q 392 1175 392 1154 q 415 1224 392 1204 q 465 1243 439 1243 q 533 1213 497 1243 l 653 1107 q 672 1069 672 1089 q 656 1033 672 1047 q 614 1019 640 1019 z "},"ẩ":{"ha":865,"x_min":49,"x_max":775,"o":"m 692 757 q 751 733 728 757 q 775 672 775 710 l 775 85 q 751 24 775 49 q 692 0 728 0 q 633 24 656 0 q 608 83 610 47 q 515 15 574 43 q 390 -14 456 -14 q 217 35 294 -14 q 94 172 139 85 q 49 371 49 260 q 93 570 49 482 q 215 708 138 658 q 385 757 292 757 q 510 733 451 757 q 608 671 568 708 l 608 672 q 632 733 608 708 q 692 757 656 757 m 411 139 q 558 205 501 139 q 615 371 615 271 q 558 538 615 471 q 411 604 501 604 q 265 538 322 604 q 208 371 208 471 q 265 205 208 271 q 411 139 321 139 m 586 869 q 600 847 597 856 q 603 826 603 839 q 591 802 603 813 q 561 792 579 792 q 530 797 540 792 q 509 812 519 803 q 493 825 499 821 l 419 890 l 340 825 q 323 810 335 821 q 300 796 311 800 q 272 792 289 792 q 242 802 254 792 q 231 826 231 813 q 233 847 231 839 q 247 869 236 856 l 315 956 q 400 996 347 996 l 450 996 q 494 988 478 996 q 525 956 510 979 l 586 869 m 506 1136 q 556 1166 531 1156 q 615 1176 581 1176 q 726 1140 693 1176 q 758 1056 758 1103 q 752 1016 758 1033 q 732 981 746 999 q 719 964 729 976 q 703 943 708 951 q 699 928 699 935 q 685 900 699 911 q 651 889 671 889 q 618 900 632 889 q 604 928 604 911 q 626 982 604 953 q 658 1042 658 1025 q 644 1069 658 1058 q 611 1079 631 1079 q 583 1073 596 1079 q 553 1056 571 1067 q 531 1047 539 1047 q 496 1065 514 1047 q 483 1094 483 1078 q 506 1136 483 1117 z "}}}
